<svg xmlns="http://www.w3.org/2000/svg" viewBox="586.57 1852.648 975.388 1004.261">
  <defs>
    <style>
      .cls-1 {
        fill: #80ff73;
      }
    </style>
  </defs>
  <g id="Group_272" data-name="Group 272" transform="translate(586.68 2694.259) rotate(-77)">
    <g id="Group_271" data-name="Group 271" transform="translate(0.084 -0.132)">
      <path id="Path_173" data-name="Path 173" class="cls-1" d="M858.5,64.882c-6.836-6.836-14.1-13.032-21.15-19.441-4.273-3.845-9.4-5.555-14.954-3.632-12.6,3.845-24.568,8.545-33.327,19.014a7.242,7.242,0,0,1-2.991,1.923c-4.914,1.923-10.041,3.632-14.954,5.555-8.118,2.991-12.6,9.827-17.518,16.45-2.777,3.632-6.409,6.623-10.682,10.682-.427-2.777-.641-3.845-.855-4.914l-1.282-.641c-1.282,1.709-3.418,3.418-3.418,5.127-.214,6.409-4.7,8.545-9.4,10.682a32.882,32.882,0,0,0-6.623,3.632c-3.418,2.564-6.2,6.2-9.827,7.691-5.768,2.35-8.118,6.2-8.545,10.9-2.777,1.709-6.623,3.845-6.409,4.273,2.35,5.768-2.35,3.845-4.059,4.7-.855,2.564-1.5,5.768-3.418,6.836-8.973,4.486-9.186,4.273-8.332,14.527-4.7-6.2-8.332-3.632-11.75.427-.641.855-1.923,1.068-2.777,1.923-2.564,2.35-5.127,4.486-7.477,7.05a88.646,88.646,0,0,0-5.768,6.836c-2.564,3.418-6.623,6.836-6.836,10.255-.427,6.409-2.35,9.186-9.186,8.759-1.068,0-1.923,1.068-4.273,2.564,5.982,0,5.768,2.136,3.2,4.486-4.914,4.7-10.255,9.186-15.382,13.673-.427.427-1.5.214-2.136.427-1.282.641-3.418,1.282-3.418,1.923-.214,4.914-6.836,7.264-5.341,13.032.214,1.282-2.777,4.486-4.486,4.7-8.759.641-11.323,6.623-13.459,13.459a24.351,24.351,0,0,1-2.136,4.059c-.641-.214-1.5-.214-2.136-.427,0-2.136-.854-4.914.214-6.623q5.448-11.216,11.536-21.791c14.314-25,29.054-49.777,42.727-74.986,11.536-21.364,22.432-42.941,32.473-64.945,5.768-12.6,9.827-26.277,13.459-39.736,2.136-7.691,2.35-16.45-4.273-22.645-5.768-5.341-12.177-9.827-18.373-14.741-7.691-5.982-16.023-7.9-25.209-4.059a90.787,90.787,0,0,0-11.964,6.2c-4.7,2.991-8.973,7.05-13.886,9.614-5.768,2.991-11.536,6.409-13.032,13.032-1.5,6.2-5.982,7.477-10.468,9.614a47.284,47.284,0,0,0-7.477,3.418,32.669,32.669,0,0,0-6.623,5.555c-3.845,4.059-9.4,7.691-10.468,12.391-.854,4.486-3.2,6.623-5.768,9.4-3.845,4.059-7.477,8.759-14.1,8.332-.427,0-.855.641-1.282,1.068-5.768,5.768-11.75,11.536-17.3,17.732-2.564,2.777-4.059,6.623-5.982,10.041-13.245,7.05-18.8,22-29.482,32.045-11.109,10.468-20.082,23.286-29.909,35.25a26.219,26.219,0,0,1,2.35-10.9c11.323-25.85,22-51.7,27.773-79.259,1.923-9.614,3.632-20.3-4.059-27.986C480.8,50.141,471.4,44.8,462.638,39.032c-2.35-1.709-5.555-3.2-8.332-3.2-10.9-.214-19.441,5.768-26.7,13.032-5.982,5.982-11.109,12.818-16.877,19.227-.641.855-2.136.641-3.418.855a5.429,5.429,0,0,0-2.777,1.068c-9.614,9.827-19.441,19.654-28.841,29.7-12.6,13.245-21.791,29.482-33.754,43.154C330.825,155.89,321,169.99,310.744,183.876c-4.059,5.555-7.477,11.75-11.323,17.732-2.564,3.845-5.127,7.477-7.691,11.323l-3.2,4.486c.214-10.255,1.282-19.868,2.35-29.7,1.068-10.9-1.923-20.082-11.964-26.064-4.059-2.564-7.9-5.341-12.177-7.691-17.518-10.255-23.5-7.264-39.736,5.982-6.409,5.127-11.109,12.177-16.45,18.373-5.127,5.982-13.032,9.827-12.818,19.441,0,.855-1.709,1.923-2.564,2.991-2.991,3.2-6.2,5.982-8.545,9.614-4.273,6.409-7.477,13.245-11.75,19.654-2.35,3.418-6.836,5.555-9.186,9.186-6.623,10.255-12.818,20.936-18.586,31.618-7.264,13.673-13.673,27.773-20.509,41.659-1.709,3.632-4.273,6.836-6.623,10.255-1.068,1.709-2.35,2.991-2.991,4.7-10.682,25.85-21.364,51.913-32.045,77.763-3.845,9.4-7.9,18.8-11.323,28.2-3.632,9.827-6.409,19.868-9.827,29.7-2.136,5.982-4.914,11.75-7.691,18.373-1.5-1.923-2.136-2.991-3.632-4.914-1.709,6.623-2.991,12.177-4.273,17.732.641,0,1.5.214,2.136.214.427,1.709,2.136,4.059,1.5,5.341-2.136,5.341-2.35,11.964-8.973,14.741a8.366,8.366,0,0,0-1.709,2.136c-7.477,14.955-8.759,31.4-10.9,47.641,0,.427,0,1.282.427,1.5,3.2,3.845,3.632,4.059,1.923,7.05-1.709,3.2-5.127,5.555-6.623,8.759C22.336,590,18.7,598.543,16.354,607.3c-3.2,11.536-5.341,23.286-7.477,35.036-3.2,18.373-5.982,36.745-8.759,55.118-.214,1.282.641,2.777,1.282,4.059,6.836,10.468,17.518,15.809,28.627,20.082,10.254,4.059,13.459,1.5,14.1-9.614.427-9.4,1.068-18.8,2.991-27.986,5.555-25.85,11.323-51.486,17.518-77.122,5.982-24.568,11.536-49.136,18.8-73.063,10.682-35.25,22.218-70.5,34.823-105.109,10.041-27.345,22-54.05,33.754-80.968q8.332-18.907,18.586-37.173c10.468-19.014,21.15-38.027,32.686-56.4,9.186-14.741,19.868-28.841,30.336-42.727,5.341-7.05,11.964-13.459,17.945-20.082,1.282,3.418,1.709,5.982,1.068,8.545-1.068,4.7-2.35,9.4-3.845,13.886-4.914,15.168-9.827,30.336-15.168,45.291-4.914,13.886-10.468,27.559-15.809,41.445-3.845,9.827-7.9,19.441-11.75,29.268-3.632,9.614-5.982,20.082-10.9,29.054-4.7,8.759-6.2,18.8-15.168,26.064-5.982,4.914-7.264,15.6-10.468,23.714-2.564,6.2-4.914,12.391-7.691,18.586-3.632,8.118-8.332,16.023-11.536,24.354-6.409,17.3-11.964,34.823-18.373,52.127-1.5,4.059-.855,6.2,2.136,8.759a140.679,140.679,0,0,0,31.4,22c5.982,3.2,9.614,2.136,11.536-4.273,2.777-8.973,4.7-18.373,7.9-27.132,7.9-21.577,14.954-43.582,24.568-64.518q20.189-44.543,43.368-87.8c10.9-20.509,23.286-40.377,35.464-60.032,13.032-20.936,26.277-42.086,40.591-62.382,17.518-25,35.891-49.35,54.263-73.7,16.45-21.577,33.968-42.3,53.836-60.886,5.341-4.914,10.9-9.614,16.45-14.527.641.427,1.282.855,2.136,1.5-13.032,40.591-31.618,79.045-50.845,117.072l4.7-13.245-1.923-.855c-5.127,11.75-10.041,23.5-15.809,36.532a35.409,35.409,0,0,0,4.273-3.418c-1.068,2.991.214,8.545-6.623,5.982-4.273,8.332-8.759,16.664-13.032,25.423-3.845,7.9-6.409,16.236-10.468,23.927-6.409,12.818-13.673,25.209-20.509,37.813-.427.855-.641,1.709-1.068,2.777-1.5,4.059-2.777,8.332-4.7,12.391-4.273,8.545-9.4,16.877-13.459,25.636-6.623,14.314-12.6,28.841-18.8,43.368-1.5,3.418-2.564,6.836-4.273,10.041-5.127,10.468-10.682,20.723-15.168,31.4-6.836,15.809-13.245,31.832-19.654,48.068-2.136,5.555-4.059,11.323-4.273,17.091,0,2.136,5.127,4.486,7.9,6.836.427.427.641,1.068,1.068,1.282,8.118,6.409,16.236,12.818,24.568,18.8,4.273,2.991,8.545,1.282,10.682-3.418.855-1.923,1.709-3.845,2.35-5.768,6.409-16.877,11.964-34.182,19.441-50.418,9.827-22,20.509-43.582,31.832-64.732,14.527-27.132,30.123-53.622,45.5-80.113,6.409-11.109,13.886-21.791,20.936-32.473,8.118-12.6,16.023-25.209,24.782-37.386,9.186-13.032,19.227-25.423,28.841-38.027,5.341-7.05,10.255-14.314,15.809-21.15,7.477-9.186,15.168-18.159,23.073-27.132,10.9-12.6,21.577-25.423,33.113-37.6,15.382-16.236,30.763-32.259,47-47.641,13.032-12.177,27.132-23.286,40.8-34.823,1.709-1.5,3.845-2.136,5.982-3.418,3.845,13.032-77.763,158.731-87.8,164.5v-2.991a3.609,3.609,0,0,0-1.068-.427c-3.632,6.2-7.264,12.391-10.682,18.8.427.427,1.068.641,1.5,1.068,1.709-2.35,3.632-4.7,5.341-7.05l1.923,1.282c-6.409,10.468-12.818,20.936-19.868,32.259-.855-2.564-1.282-3.418-2.35-6.409-17.732,29.482-38.241,55.545-50.418,86.522a26.057,26.057,0,0,1,3.632,1.5c-1.282,2.136-2.35,3.845-3.418,5.341-.214-.214-.641-.214-.855-.427a21.048,21.048,0,0,1,.427-3.632c-.427-.214-.855-.641-1.282-.855-2.35,2.991-4.914,5.555-6.836,8.759-4.7,7.9-6.2,17.732-14.1,23.927-1.5,1.068-1.923,3.2-2.777,4.914-2.777,4.7-5.555,9.4-8.545,14.1-3.845,6.409-7.691,12.818-11.109,19.227-4.7,8.759-8.759,17.732-13.673,26.491-4.486,8.118-9.827,15.809-14.314,23.927-6.623,12.391-12.6,25-19.014,37.386-1.923,3.845-1.709,6.836,1.5,9.614,7.477,6.836,14.527,14.1,22,20.723,10.468,9.186,15.809,12.177,25.636-2.564,6.409-9.827,12.6-19.654,19.227-29.482,15.809-23.927,31.618-47.641,47.854-71.354,9.614-14.314,19.654-28.414,29.909-42.3,12.177-16.45,24.568-32.473,36.959-48.709,12.818-16.877,25.636-33.754,39.523-49.777,8.545-9.827,16.236-20.3,24.782-30.123,15.6-17.732,31.4-35.677,47.854-52.768,13.673-14.527,28.413-27.986,42.727-41.873a466.051,466.051,0,0,1,82.036-64.091,111.081,111.081,0,0,1,11.323-5.555l1.282,1.282a42.408,42.408,0,0,1-1.923,5.555c-5.341,10.468-10.9,20.936-16.45,31.4-4.486,8.545-8.545,17.518-13.886,25.423-13.673,20.509-27.773,40.8-41.659,61.1-5.127,7.477-9.827,15.168-14.954,22.645-6.623,9.4-13.459,18.373-20.082,27.773-5.982,8.545-11.323,17.3-17.091,26.064-.427.855-1.709,1.068-2.35,1.709l-.641-.641c2.564-4.486,5.341-8.759,8.118-13.245a6.874,6.874,0,0,0-4.059,2.35c-7.9,10.682-15.6,21.364-23.5,31.832-2.991,4.059-6.409,7.477-9.186,11.75-5.341,8.973-10.254,18.159-15.6,27.132-2.777,4.7-6.409,8.759-9.614,13.245-4.486,6.623-8.759,13.459-12.818,20.3-5.982,10.468-18.159,16.877-19.441,30.336,0,.641-.854,1.282-1.282,1.923-3.845,4.914-8.118,9.614-11.75,14.527-6.623,9.186-13.032,18.373-19.441,27.773a13.622,13.622,0,0,0-1.709,2.991c-7.691,12.6-15.168,25.209-23.5,37.386-5.127,7.691-11.536,14.527-16.877,22.218-6.836,9.827-13.032,20.3-19.654,30.336-.214.214-.214.427-.427.641l18.8,41.873a1.11,1.11,0,0,1,.855-.427c1.709-1.068,4.7-.854,6.836-.427,2.991.855,4.486.214,6.623-2.35.854-1.068,1.709-1.923,2.564-2.991l49.777-78.191.214-.427c8.118-11.964,16.023-23.927,24.141-36.1L637.819,449c8.118-12.177,15.6-24.568,23.714-36.745,11.323-16.877,23.286-33.327,34.609-50.418,14.1-21.15,27.773-42.727,42.086-63.877,6.623-10.041,13.673-19.441,20.3-29.482,7.477-11.323,14.527-22.859,22-34.4,7.477-11.323,15.6-22.432,22.645-33.968,16.877-27.986,35.891-54.691,48.709-85.027,4.059-9.4,8.118-18.8,10.9-28.413C864.273,79.409,864.7,71.077,858.5,64.882ZM524.165,269.331c-.427-.427-.854-.641-1.282-1.068,3.2-4.7,6.2-9.614,9.4-14.527.427.214,1.068.641,1.5.855Q528.972,262.281,524.165,269.331Zm111.518,108.74-1.923-1.282c3.2-4.7,6.409-9.186,9.614-13.886.427.427.854.641,1.282,1.068Q639.849,371.021,635.683,378.071Z" transform="translate(-0.084 0.132)"/>
      <path id="Path_174" data-name="Path 174" class="cls-1" d="M353.12,391.552c-1.709,2.136-3.2,4.273-4.914,6.409,2.991,4.059,6.623,6.836,12.6,6.623,4.486-.214,7.691,2.777,8.332,7.691,3.418-1.068,5.982-1.923,8.973-2.991-1.709,3.418-2.777,5.982-4.486,9.186-2.35-1.068-4.486-2.35-7.05-3.632-2.136,4.273-5.127,7.05-10.9,6.623-3.418-.214-5.341,2.991-4.486,5.127-1.923,2.35-3.2,4.914-5.341,5.768a114.068,114.068,0,0,1-14.954,5.768c-2.35.854-4.7.854-7.05,1.709-5.768,1.923-11.75,4.059-17.518,6.2-1.5.641-2.991,1.709-4.7,2.136-4.486,1.068-8.759,2.136-13.245,2.991-1.5.427-3.2.427-4.273,1.282-10.255,7.691-22.645,8.118-34.609,10.255-12.177,2.35-24.354,5.127-36.745,7.05-15.6,2.35-31.191,4.486-46.786,6.2-9.614,1.068-19.441,2.136-29.054,1.709a193.59,193.59,0,0,1-33.113-4.914c-38.668-9.614-64.3-33.754-77.336-71.354a155.366,155.366,0,0,1-4.7-17.091c-.427-1.709.214-4.914,1.282-5.555a6.408,6.408,0,0,1,5.768,1.282,33.6,33.6,0,0,1,6.409,8.118c15.168,27.345,41.018,36.532,69.432,39.523,20.082,2.136,40.8,2.777,61.1.854,26.7-2.777,53.2-8.332,79.686-13.245,17.091-3.2,34.182-7.264,51.273-11.109,12.391-2.777,24.782-6.2,37.386-9.186,4.486-1.068,8.973-1.282,13.459-1.923,1.709-.214,3.418-1.282,5.127-1.923C352.906,390.911,353.12,391.338,353.12,391.552Z" transform="translate(24.408 430.372)"/>
    </g>
    <path id="Path_175" data-name="Path 175" class="cls-1" d="M607.667,269.7a93.189,93.189,0,0,0-10.254-13.886c-10.468-11.536-21.791-22-38.668-22-10.254,0-20.723-3.632-30.55,1.5-.214.214-.855-.214-1.282-.427l2.35-2.777c-3.845.855-6.409,1.282-8.973,2.136-1.5.427-2.777,1.923-4.273,2.136-11.109,1.282-22.218,2.35-33.541,3.845-7.9,1.068-15.382,4.7-23.714,3.632-1.923-.214-4.273,1.709-6.409,2.564-2.564,1.068-5.127,2.35-7.691,2.777-6.623,1.068-13.245,1.282-19.868,2.777-8.118,1.923-15.809,4.914-23.714,7.477.214-.214.427-.427.427-.641l-2.35,1.068L318.832,294.7h-4.7c-11.109,4.914-22.218,9.614-33.113,14.741-13.245,6.409-26.491,13.032-39.523,20.3-9.186,4.914-18.373,10.041-24.354,19.441-2.136,3.2-2.564,5.982,0,8.973,4.486,5.341,8.973,10.468,13.459,15.809,3.632,4.273,7.05,3.845,10.255-.855a44.508,44.508,0,0,1,8.973-10.041c6.409-4.7,12.818-9.4,19.868-13.032,17.518-9.4,35.25-18.8,53.2-27.345,14.741-7.05,30.123-12.818,45.291-18.8,13.886-5.555,27.986-11.109,42.3-15.382,16.023-4.7,32.259-8.332,48.5-12.177,27.559-6.409,55.759-9.186,83.959-11.109,5.768-.427,11.323.427,18.373.641-3.418,2.991-5.127,5.555-7.691,6.836-11.75,6.836-22.859,14.527-35.464,19.654a25.443,25.443,0,0,0-3.2,1.923c-3.845,2.136-7.477,4.273-11.323,6.409-7.691,4.486-15.382,8.759-22.859,13.245-1.709,1.068-2.777,2.777-4.486,3.632-5.768,2.777-11.75,4.914-17.3,7.9-9.614,5.127-18.8,11.109-28.414,16.236-15.168,8.118-30.336,15.6-45.5,23.714-10.255,5.555-20.082,11.536-30.123,17.091-20.936,11.75-42.086,23.286-62.809,35.25-16.45,9.614-32.686,19.441-48.922,29.268-12.391,7.477-24.568,15.168-36.745,22.859-1.5,1.068-3.632,2.564-3.845,4.059a9.192,9.192,0,0,0,2.35,6.409,175.869,175.869,0,0,1,14.741,18.586c4.059,5.768,8.973,6.836,13.245,4.059,14.527-9.614,28.841-19.441,43.582-29.054,5.555-3.632,11.536-6.836,17.091-10.468,2.564-1.709,4.486-4.486,7.05-5.982,9.614-5.127,19.441-9.827,28.841-14.954,21.364-11.964,42.513-24.141,63.877-36.318,15.382-8.759,30.977-17.518,46.573-25.85,23.714-12.818,47.854-25,71.568-38.027,25.636-14.1,51.059-28.627,76.268-43.8,7.05-4.273,12.818-10.682,18.586-16.664C608.949,278.673,610.017,273.759,607.667,269.7Z" transform="translate(230.115 263.898)"/>
  </g>
</svg>
