<svg xmlns="http://www.w3.org/2000/svg" viewBox="4478.675 18752.506 168.077 200.684">
  <defs>
    <style>
      .cls-1 {
        fill: none;
        stroke: #000;
        stroke-linecap: round;
        stroke-linejoin: round;
        stroke-miterlimit: 10;
        stroke-width: 9px;
      }
    </style>
  </defs>
  <g id="Group_275" data-name="Group 275" transform="translate(4482.575 18756.406)">
    <path id="Path_179" data-name="Path 179" class="cls-1" d="M58.5,191.888V154.342l-33.4,5.533-5.336-42.882L.6,115.215,18.385,72.333v-.79A70,70,0,0,1,80.435,1a61.169,61.169,0,0,1,8.5-.4,70.548,70.548,0,0,1,42.684,126.867l-1.779,1.383v63.433" transform="translate(0 0)"/>
    <path id="Path_180" data-name="Path 180" d="M72.657,10.679l-16.2,32.211c-.2.593,0,1.186.593,1.186l8.695,2.964a.849.849,0,0,1,.4,1.383L34.715,95.454c-.593.79-1.976.2-1.581-.79l12.054-41.3a.96.96,0,0,0-.593-1.186L34.913,50a.829.829,0,0,1-.593-1.186L48.351,9.3c0-.2.4-.4.79-.4l22.725.4C72.459,9.3,72.854,10.086,72.657,10.679Z" transform="translate(31.689 12.102)"/>
  </g>
</svg>
