<svg id="Layer_1" data-name="Layer 1" xmlns="http://www.w3.org/2000/svg" viewBox="0 0 95.52 95.52"><title>SBL_svg-files</title><path d="M60.44,50.44A12.69,12.69,0,1,1,47.76,38.05,12.55,12.55,0,0,1,60.44,50.44"/><path d="M76.26,25.51a7.35,7.35,0,0,1-7.43-7.25,7.43,7.43,0,0,1,14.86,0,7.35,7.35,0,0,1-7.43,7.25M47.76,71.92c-12.13,0-22-9.63-22-21.48S35.63,29,47.76,29s22,9.64,22,21.49-9.88,21.48-22,21.48M.88,16.73V78.79A15.85,15.85,0,0,0,16.73,94.64H78.79A15.85,15.85,0,0,0,94.64,78.79V16.73A15.85,15.85,0,0,0,78.79.88H16.73A15.85,15.85,0,0,0,.88,16.73"/></svg>