<svg id="Layer_1" data-name="Layer 1" xmlns="http://www.w3.org/2000/svg" viewBox="0 0 469.94 266.89"><defs><style>.cls-1{fill:#80ff73;}</style></defs><title>SBL_svg-files</title><path class="cls-1" d="M114.92,40.94c-18.4,49.6-51.6,156-68,214.4-2.4,8.8-5.6,10.4-14,8a88.14,88.14,0,0,1-24.8-11.6c-7.2-5.2-8.4-10.4-6-22,9.6-45.6,43.6-164.8,61.2-214.8,3.6-9.6,8.8-11.19,17.6-8.39s21.2,9.59,28.4,15.19C117.32,28.14,118.12,31.74,114.92,40.94Z"/><path class="cls-1" d="M277.32,60.94c2.8,54.4-19.6,141.6-64.8,186-15.2,14.8-31.6,18.8-51.2,16.4-12.8-1.6-28-6.4-38.4-13.6a56.4,56.4,0,0,1-20.4-28.8c-17.2-57.2,17.6-158.8,73.2-204.8,11.6-9.59,29.6-14.39,42.4-12.39,16.8,2.39,34,9.59,43.2,18.79C272.12,33.34,276.52,45.74,277.32,60.94Zm-111.2,66c-14,37.2-21.6,88-6.8,94,14.4,6,37.2-28.8,53.2-76.4,12.4-36.8,21.2-91.6,8.4-95.6C208.52,44.94,180.12,89.34,166.12,126.94Z"/><path class="cls-1" d="M309.32,256.94c-2.8,8.4-5.6,10.4-14,8-7.6-2-17.6-6.4-24-11.2-6.8-5.2-8-10.8-5.6-22,7.6-36.8,28.8-106.8,46.8-164.4-2.8-5.6-6.8-13.2-9.2-20-4-10-3.2-14.8,5.2-19.6,39.2-22,114.8-41.19,138.8-11.6,9.6,12,18.4,27.2,21.2,50,2.8,22.4-8.8,40-23.6,56-24,26.8-72.4,52.8-114.4,65.2C322.92,211.34,315.32,234.94,309.32,256.94Zm113.2-195.6c-1.2-8.8-24.4-9.2-49.6,2.4-7.2,19.2-15.2,42-23.6,66.4C398.52,112.14,425.32,77.34,422.52,61.34Z"/></svg>