<svg xmlns="http://www.w3.org/2000/svg" viewBox="3631 10551 176 176">
  <defs>
    <style>
      .cls-1, .cls-3 {
        fill: none;
      }

      .cls-1 {
        stroke: #000;
        stroke-width: 9px;
      }

      .cls-2 {
        stroke: none;
      }
    </style>
  </defs>
  <g id="Group_285" data-name="Group 285" transform="translate(2908 9916)">
    <g id="Group_162" data-name="Group 162" transform="translate(421.163 634.163)">
      <g id="Group_161" data-name="Group 161" transform="translate(361.059 66.419)">
        <g id="Group_159" data-name="Group 159" transform="translate(45.122)">
          <circle id="Ellipse_8" data-name="Ellipse 8" cx="6.016" cy="6.016" r="6.016" transform="translate(0.301 0.301)"/>
          <path id="Path_61" data-name="Path 61" d="M481.417,123.034a6.317,6.317,0,1,1,6.317-6.317A6.316,6.316,0,0,1,481.417,123.034Zm0-12.032a5.715,5.715,0,1,0,5.715,5.715A5.752,5.752,0,0,0,481.417,111Z" transform="translate(-475.1 -110.4)"/>
        </g>
        <g id="Group_160" data-name="Group 160" transform="translate(0)">
          <circle id="Ellipse_9" data-name="Ellipse 9" cx="6.016" cy="6.016" r="6.016" transform="translate(0.301 0.301)"/>
          <path id="Path_62" data-name="Path 62" d="M406.417,123.034a6.317,6.317,0,1,1,6.317-6.317A6.316,6.316,0,0,1,406.417,123.034Zm0-12.032a5.715,5.715,0,1,0,5.715,5.715A5.752,5.752,0,0,0,406.417,111Z" transform="translate(-400.1 -110.4)"/>
        </g>
      </g>
      <rect id="Rectangle_38" data-name="Rectangle 38" width="64.374" height="10.829" transform="translate(358.813 117.339) rotate(-17.433)"/>
    </g>
    <g id="Ellipse_20" data-name="Ellipse 20" class="cls-1" transform="translate(723 635)">
      <circle class="cls-2" cx="88" cy="88" r="88"/>
      <circle class="cls-3" cx="88" cy="88" r="83.5"/>
    </g>
  </g>
</svg>
