<svg id="Layer_1" data-name="Layer 1" xmlns="http://www.w3.org/2000/svg" xmlns:xlink="http://www.w3.org/1999/xlink" viewBox="0 0 99.33 119.78"><defs><style>.cls-1{fill:none;}.cls-2{clip-path:url(#clip-path);}.cls-3{fill:#231f20;}</style><clipPath id="clip-path"><rect class="cls-1" x="0.93" y="1.12" width="97.47" height="117.53"/></clipPath></defs><title>SBL_svg-files</title><g class="cls-2"><path class="cls-3" d="M88.87,117.91c-5.08-.59-11-1.38-16.87-1.91-2.71-.24-5.29-3.18-5.78-6.94-.85-6.63-1.27-13.37-2.81-19.85C59.72,73.67,59.2,57.8,57.72,42c-.88-9.4-1.16-18.85-1.76-28.28a26.84,26.84,0,0,0-.74-4.36C53.9,3.82,56.71.62,62.4,1.19c5.18.52,10.36,1,15.55,1.45,6.12.52,9,4.43,8.93,11.66s.2,14.51.61,21.75C88,45,88.28,54,89.62,62.76c2.18,14.27,5.14,28.41,7.76,42.6a35.69,35.69,0,0,1,1,6.43c0,5.52-3.22,7.75-9.53,6.12"/><path class="cls-3" d="M.93,8c.58-2.51.47-4.34,3.26-3.46,1.19.38,2.75-.53,4.16-.7a32.55,32.55,0,0,1,5.47-.39c1.93.11,3.84.76,5.77.88,2.38.16,4.38,0,6.62,2a8.55,8.55,0,0,1,2.94,6.21c1.21,12.48,2.1,25,3.35,37.46,1.79,17.83,3.79,35.65,5.74,53.47a9.18,9.18,0,0,0,.92,3,10.47,10.47,0,0,1,.49,8.78c-.92,2.38-2.52,3.71-5.34,3.36-2.15-.26-4.39.08-6.54-.19-1.27-.16-2.42-1.2-3.69-1.5-2.64-.62-5.33-1.09-8-1.48-5.63-.82-7.07-2.52-7.62-8.27-.65-6.91-1.67-13.78-2.38-20.68-.91-8.89-1.77-17.79-2.46-26.7C3,52.33,2.68,44.87,2.31,37.4,1.8,27.33,1.36,17.25.93,8"/></g></svg>