<svg id="Layer_1" data-name="Layer 1" xmlns="http://www.w3.org/2000/svg" viewBox="0 0 101.45 117.44"><defs><style>.cls-1{fill:#231f20;}</style></defs><title>SBL_svg-files</title><path class="cls-1" d="M30.53,39.24l-.81.78c0,2.28-.14,4.57-.06,6.86q.66,18.46,1.42,36.95c.1,2.41.89,2.77,2.77,1.3,2.7-2.12,5.37-4.3,7.95-6.56q10.71-9.37,21.32-18.85a23.85,23.85,0,0,0,1.71-2L30.53,39.24m70.41,9.58c-.48,3.81-1,6.62-1.15,9.45-.1,3.16-1.44,5-4.37,6.27a23.79,23.79,0,0,0-5.3,3.78C77.6,78.58,65,88.79,52.64,99.2c-6.22,5.23-12.06,10.91-18.18,16.26a5.71,5.71,0,0,1-3.83,1.37c-6.54-.64-13-1.58-19.58-2.37-2.6-.32-4.6-2.93-4.63-5.71Q6.29,94.59,6,80.44c-.2-8.7-.69-17.39-.72-26.09,0-9.26.37-18.52.45-27.78a4.22,4.22,0,0,0-1.31-3.1C-.34,20.15-.69,17,3.08,12.48A99.71,99.71,0,0,0,9.54,3.56a6.6,6.6,0,0,1,8.59-2.18c7.12,4,14.31,7.84,21.42,11.84C45.74,16.7,51.77,20.46,58,23.81s12.32,6.9,18.9,9.11c4.77,1.6,8.74,4.28,12.83,6.74,4.31,2.58,7.88,6.39,11.17,9.16"/></svg>