<svg xmlns="http://www.w3.org/2000/svg" viewBox="4531.663 10550.563 175.274 175.273">
  <g id="Group_168" data-name="Group 168" transform="translate(3599.363 10550.363)">
    <g id="Group_286" data-name="Group 286">
      <path id="Path_67" data-name="Path 67" d="M1019.937,175.474a87.637,87.637,0,1,1,87.637-87.637A87.74,87.74,0,0,1,1019.937,175.474Zm0-164.469a76.832,76.832,0,1,0,76.832,76.832A76.9,76.9,0,0,0,1019.937,11Z"/>
      <g id="Group_167" data-name="Group 167" transform="translate(998.028 54.883)">
        <path id="Path_68" data-name="Path 68" d="M1065.27,91.3c13.446,0,20.349,7.143,20.349,16.387,0,8.283-4.022,12.125-9.9,15.667-6.783,4.082-9.184,6.183-9.184,11.7V138h-10.5v-4.022c0-9.3,5.7-13.986,11.585-17.467,3.121-1.861,5.7-4.022,5.7-8.1,0-4.382-2.7-7.2-8.584-7.2-7.5,0-11.525,3.481-13.926,9.364l-9-4.742C1044.681,97.062,1052.9,91.3,1065.27,91.3Zm-10.384,55.283h13.206v13.025h-13.206Z" transform="translate(-1041.8 -91.3)"/>
      </g>
    </g>
  </g>
</svg>
