<svg id="Layer_1" data-name="Layer 1" xmlns="http://www.w3.org/2000/svg" xmlns:xlink="http://www.w3.org/1999/xlink" viewBox="0 0 682.97 1139"><defs><style>.cls-1{fill:none;}.cls-2{fill:#231f20;}.cls-3{clip-path:url(#clip-path);}.cls-4{fill:#a6a8ab;}.cls-5{fill:#d0d2d3;}.cls-6{fill:#bbbdbf;}.cls-7{fill:#80ff73;}.cls-8{fill:#a5ff9c;}.cls-9{fill:#beffb8;}</style><clipPath id="clip-path"><rect class="cls-1" y="2" width="713.97" height="1136"/></clipPath></defs><title>SBL_timelines</title><path class="cls-2" d="M253.06,1001h8v24.59h16.4V1032H253.06Z"/><path class="cls-2" d="M281.62,1001h7.22v6.88h-7.22Zm0,9.75h7.22V1032h-7.22Z"/><path class="cls-2" d="M292.28,1016.49v-5.7h4v-3.93c0-4.63,2.7-6.56,7.09-6.56a13,13,0,0,1,5.57,1l-.78,5.58h-.08a3.93,3.93,0,0,0-2.58-.86c-1.23,0-2,.53-2,1.72v3h5v5.7h-5V1032h-7.21v-15.49Z"/><path class="cls-2" d="M321.66,1027.06c2.22,0,3.9-.49,4.88-2.58l6.11,1.93c-2,4.26-5.78,6.31-10.9,6.31-6.64,0-11.48-4.06-11.48-11.07s4.55-11.43,11.35-11.43c5.29,0,11.89,3,11.07,12.91H317.24C317.69,1025.71,319.33,1027.06,321.66,1027.06Zm4.14-8.07c-.32-2-1.64-3.16-4.18-3.16-2.29,0-3.81.74-4.34,3.16Z"/><path class="cls-2" d="M347.19,1001h18c8.32,0,10.86,4.38,10.86,8.4,0,3.52-1.15,5.29-4,6.6,2.87,1.1,4.67,2.87,4.67,7.09,0,5.2-2.62,8.89-11.47,8.89H347.19Zm17.42,12c2.83,0,3.81-.5,3.81-2.67,0-1.88-.82-2.7-3.77-2.7h-9.42V1013Zm-9.38,12.41h9.71c3.12,0,4-1.1,4-3.19s-.95-3.08-4.22-3.08h-9.51Z"/><path class="cls-2" d="M391.33,1027.06c2.21,0,3.9-.49,4.88-2.58l6.11,1.93c-2,4.26-5.78,6.31-10.91,6.31-6.64,0-11.47-4.06-11.47-11.07s4.55-11.43,11.35-11.43c5.29,0,11.89,3,11.07,12.91H386.91C387.36,1025.71,389,1027.06,391.33,1027.06Zm4.14-8.07c-.33-2-1.64-3.16-4.18-3.16-2.29,0-3.81.74-4.34,3.16Z"/><path class="cls-2" d="M403.5,1010.79h7.75l4.3,12.26,4.43-12.26h7l-8.16,20.13c-1.56,3.85-2.79,6.06-4.59,7.37a7.9,7.9,0,0,1-4.84,1.4,6.89,6.89,0,0,1-3.81-1v-5.86h.25a3.34,3.34,0,0,0,2.58.91c2,0,2.83-.66,3.36-2.14Z"/><path class="cls-2" d="M427.93,1021.65c0-7.13,4.75-11.43,11.39-11.43s11.31,4.55,11.31,11.19c0,7.17-4.75,11.31-11.35,11.31S427.93,1028.66,427.93,1021.65Zm15.49-.2c0-3.57-1.4-5.37-4.1-5.37s-4.14,1.68-4.14,5.33,1.43,5.65,4.14,5.65S443.42,1025,443.42,1021.45Z"/><path class="cls-2" d="M454.44,1010.79h7.21l-.08,3.73a8.13,8.13,0,0,1,7.5-4.3c4.1,0,6.89,2,6.89,7.17V1032h-7.22v-12.09c0-2.13-.73-3.56-2.91-3.56-2.7,0-4.18,1.43-4.18,5.94V1032h-7.21Z"/><path class="cls-2" d="M479.77,1021.24c0-7,3.44-11,8.85-11,3.73,0,5.49,1.68,6.56,3.36V1001h7.21v31h-7.21l.08-3.11c-1.43,2.42-3.36,3.69-6.76,3.69C482.84,1032.56,479.77,1028.33,479.77,1021.24Zm15.53.09c0-3.12-1.52-5.29-4.26-5.29s-4,1.64-4,5.24,1.27,5.21,4,5.21C493.58,1026.49,495.3,1024.44,495.3,1021.33Z"/><path class="cls-2" d="M261.77,1049.46a8,8,0,0,1,7.82,4.8l-3.3,2.22c-.86-2.15-2.11-3.4-4.73-3.4-3.48,0-5.52,3.3-5.95,8.35a7,7,0,0,1,5.88-2.94c4.59,0,8.46,2.94,8.46,8.39s-3.76,9.11-9.07,9.11a8.81,8.81,0,0,1-7.21-3.3,13.66,13.66,0,0,1-2.26-8.17C251.41,1055.8,255.14,1049.46,261.77,1049.46Zm-6,17.71a4.93,4.93,0,0,0,5.09,5.16c3,0,4.8-2.22,4.8-5.27,0-3.3-1.86-5.09-4.77-5.09C257.65,1062,255.79,1063.87,255.79,1067.17Z"/><path class="cls-2" d="M305.56,1056c2.76,0,6.45,1.87,6.45,7v12.58h-4.3v-11.58c0-2.58-.9-4.23-3.37-4.23-2.69,0-4.59,1.79-4.59,5.74v10.07h-4.3v-11.58c0-2.58-.9-4.23-3.38-4.23-2.68,0-4.59,1.79-4.59,5.74v10.07h-4.3v-19.14h4.3l-.07,3.08a6.28,6.28,0,0,1,5.88-3.48,6.09,6.09,0,0,1,5.56,3.59C300.32,1057.09,302.37,1056,305.56,1056Z"/><path class="cls-2" d="M334.32,1065.91c0,6.53-3.45,10.08-9.15,10.08-5.52,0-9.14-4-9.18-10,0-6.35,3.84-10.11,9.18-10.11C330.69,1055.91,334.35,1059.75,334.32,1065.91Zm-14.06-.25c0,3.88,1.25,6.89,4.84,6.89,3.84,0,4.95-2.73,4.95-6.6,0-3.69-1.44-6.63-4.84-6.63S320.26,1061.9,320.26,1065.66Z"/><path class="cls-2" d="M342.78,1056.38l-.07,3.08a6.31,6.31,0,0,1,6-3.48c2.76,0,6.56,1.87,6.56,7v12.58H351v-11.58c0-2.58-1-4.23-3.47-4.23-2.69,0-4.7,1.79-4.7,5.74v10.07h-4.3v-19.14Z"/><path class="cls-2" d="M366,1070.79c0,.93.53,1.44,1.54,1.44a3.83,3.83,0,0,0,2.51-.72h.1l-.25,3.91a7.55,7.55,0,0,1-3.19.57c-3.12,0-5-1.68-5-5.31V1060h-3.3v-3.65h3.3v-2.73a21.66,21.66,0,0,0,4.2-3.73H366v6.46h4V1060h-4Z"/><path class="cls-2" d="M378.6,1048.34v11a6.25,6.25,0,0,1,5.92-3.37c2.76,0,6.56,1.87,6.56,7v12.58h-4.3v-11.58c0-2.58-1-4.23-3.48-4.23-2.69,0-4.7,1.79-4.7,5.74v10.07h-4.3v-27.18Z"/><path class="cls-2" d="M410.91,1059.93l-3.08,2.33a5.4,5.4,0,0,0-4.85-2.69c-2.4,0-3.4.72-3.4,1.93,0,1.51,1.32,1.83,4.37,2.23,3.7.5,7.39,1.57,7.39,6.16,0,3.48-2,6-7.71,6-4.45,0-7.42-1.83-8.89-5l3.3-1.93a5.78,5.78,0,0,0,5.52,3.3c2,0,3.62-.58,3.62-2.16s-1.29-1.82-4.45-2.36c-3.83-.65-7.24-1.47-7.24-6.1,0-3.94,3.23-5.63,7.28-5.63S409.22,1057.42,410.91,1059.93Z"/><path class="cls-2" d="M433.57,1072.37h-4v-5.59H424.1v-3.91h5.49v-5.6h4v5.6H439v3.91h-5.45Z"/><path class="cls-2" d="M238,29h13.57c10.2,0,16.68,5.61,16.68,15.24,0,9.35-5.86,15.74-16.89,15.74H238Zm14,24.38c4.75,0,7.91-2.87,7.91-8.93s-3.32-8.85-8-8.85H246V53.38Z"/><path class="cls-2" d="M282.45,55.06c2.21,0,3.89-.49,4.88-2.58l6.1,1.93c-2,4.26-5.78,6.31-10.9,6.31-6.64,0-11.48-4.06-11.48-11.07s4.55-11.43,11.36-11.43c5.28,0,11.88,3,11.06,12.91H278C278.47,53.71,280.11,55.06,282.45,55.06ZM286.59,47c-.33-2-1.64-3.16-4.18-3.16-2.3,0-3.81.74-4.35,3.16Z"/><path class="cls-2" d="M295.31,44.49v-5.7h3.45V35.84a45.31,45.31,0,0,0,6.88-5.41H306v8.36h4.35v5.7H306v7.83c0,1.15.33,1.8,1.6,1.8a4,4,0,0,0,2-.45h.08v6.07a13.69,13.69,0,0,1-4.71.82c-2.26,0-3.94-.37-4.88-1.48s-1.31-2.42-1.31-4.67V44.49Z"/><path class="cls-2" d="M312.94,49.65c0-7.13,4.75-11.43,11.39-11.43s11.31,4.55,11.31,11.19c0,7.17-4.75,11.31-11.35,11.31S312.94,56.66,312.94,49.65Zm15.49-.2c0-3.57-1.39-5.37-4.1-5.37s-4.14,1.68-4.14,5.33,1.44,5.65,4.14,5.65S328.43,53,328.43,49.45Z"/><path class="cls-2" d="M343.84,49.33l-7.91-10.54h8.65l3.85,5.49,4-5.49H360l-7.79,10L360.72,60h-8.64l-4.39-6.23L343.14,60h-7.62Z"/><path class="cls-2" d="M374,26.66h7.25L368.43,65.6h-7.26Z"/><path class="cls-2" d="M242.94,103.5h-7.79l11.73-31h9.59l11.8,31h-8.48l-2.05-5.77H245Zm8.4-23.64-4.22,11.88h8.45Z"/><path class="cls-2" d="M269.25,93.18c0-7.14,4.71-11.44,11.11-11.44,5.33,0,8.52,2.3,10.29,6.56l-5.82,2.87c-.7-2-1.93-3.57-4.23-3.57-2.62,0-4.05,1.68-4.05,5.33s1.39,5.66,4.1,5.66c2.21,0,3.6-1.48,4.18-3.86l6.1,2.67c-1.68,4.42-5.16,6.84-10.53,6.84C274.05,104.24,269.25,100.18,269.25,93.18Z"/><path class="cls-2" d="M294.13,96.91V82.31h7.21v12.1c0,2.13.74,3.56,2.91,3.56,2.71,0,4.18-1.43,4.18-5.94V82.31h7.21V103.5h-7.21l.08-3.73a8.12,8.12,0,0,1-7.5,4.31C296.91,104.08,294.13,102,294.13,96.91Z"/><path class="cls-2" d="M318.88,88v-5.7h3.44v-3A45.36,45.36,0,0,0,329.21,74h.33v8.36h4.34V88h-4.34v7.83c0,1.15.32,1.8,1.59,1.8a4,4,0,0,0,2-.45h.08v6.07a13.45,13.45,0,0,1-4.71.82c-2.25,0-3.93-.37-4.88-1.48s-1.31-2.42-1.31-4.67V88Z"/><path class="cls-2" d="M347.89,98.59c2.22,0,3.9-.5,4.88-2.59l6.11,1.93c-2,4.26-5.78,6.31-10.9,6.31-6.64,0-11.48-4.06-11.48-11.06s4.55-11.44,11.35-11.44c5.29,0,11.89,3,11.07,12.91H343.47C343.92,97.23,345.56,98.59,347.89,98.59ZM352,90.51c-.32-2-1.64-3.15-4.18-3.15-2.29,0-3.81.73-4.34,3.15Z"/><path class="cls-2" d="M371.62,88c0-9.26,6.56-16.06,16.19-16.06,7.5,0,11.56,3.23,14,8l-6.64,4c-1.4-3.45-3.65-5.09-7.26-5.09-4.79,0-8,3-8,9.06s3.28,9.26,8.07,9.26c3.73,0,6.19-2.25,7.51-5.37l6.84,4.06c-2.58,4.63-6.64,8.32-14.35,8.32C377.32,104.24,371.62,97.27,371.62,88Z"/><path class="cls-2" d="M415.39,87.4a7,7,0,0,0-5.9,2.62l-4.55-3.77c2.7-3,6.64-4.51,11.31-4.51s9.39,1,9.39,6.85v8c0,1.88.57,2.29,1.59,2.29a2.27,2.27,0,0,0,1.07-.2h.16l-1.39,4.67a9.1,9.1,0,0,1-2.87.49c-2,0-4.38-.57-5.16-2.78a8.76,8.76,0,0,1-7.26,3.15c-4.18,0-7.21-1.84-7.21-6.07,0-6.1,6.15-7.29,14.22-7.74C418.75,88.13,418.34,87.4,415.39,87.4Zm3.52,7.29c-4.46,0-7.37.86-7.37,2.83,0,1.07.9,1.52,2.09,1.52C415.84,99,418.91,97.52,418.91,94.69Z"/><path class="cls-2" d="M431.9,82.31h7.22L439,84.9a5.6,5.6,0,0,1,4.79-3,5,5,0,0,1,3.57,1.14l-2.91,6.48h-.09a2.8,2.8,0,0,0-2.33-1c-2.05,0-2.95,1.23-2.95,4V103.5H431.9Z"/><path class="cls-2" d="M459.48,98.59c2.22,0,3.9-.5,4.88-2.59l6.11,1.93c-2,4.26-5.78,6.31-10.9,6.31-6.64,0-11.48-4.06-11.48-11.06s4.55-11.44,11.35-11.44c5.29,0,11.89,3,11.07,12.91H455.06C455.51,97.23,457.15,98.59,459.48,98.59Zm4.14-8.08c-.32-2-1.64-3.15-4.18-3.15-2.29,0-3.81.73-4.34,3.15Z"/><path class="cls-2" d="M238,120.07h10.86c8.43,0,12.55,6,12.55,13.44,0,7.28-2.9,13.56-12.62,13.56H238Zm4.91,22.66h6.2c4.59,0,7.36-3,7.36-9.25,0-5.63-2.73-9-7.39-9h-6.17Z"/><path class="cls-2" d="M277.35,134.19c0-2.29-1.43-2.94-3.58-2.94-2.37,0-4.12.76-5.13,2.91l-3.19-2.08c1.72-3.3,4.73-4.55,8.79-4.55s7.42,1.93,7.42,6.59v8.29c0,1.47,1.15,1.61,2.29,1.32H284l-.6,3.52a16.9,16.9,0,0,1-2.12.14,3.52,3.52,0,0,1-3.77-2.83c-1.14,1.72-2.76,2.83-6.16,2.83S265,146,265,142c0-4.88,4.24-6.39,12.37-7Zm-8.17,7.53c0,1.4,1,2.12,2.8,2.12,2.86,0,5.37-1.76,5.37-4.45v-1.14C272.44,138.61,269.18,139.14,269.18,141.72Z"/><path class="cls-2" d="M284.92,127.92h4.59L293.74,141l4-13.12h4.2l-6.85,21.23a8.23,8.23,0,0,1-2.62,3.94,6.31,6.31,0,0,1-3.76,1.08,7.4,7.4,0,0,1-3.59-.79l1.11-3.62h.07a2.84,2.84,0,0,0,1.87.57,2.62,2.62,0,0,0,2.72-1.9l.65-1.61Z"/><path class="cls-2" d="M321.57,125.73v21.34h-4.09V132.72a8.34,8.34,0,0,1-4.09,1.51v-3.48a6.21,6.21,0,0,0,5.31-5Z"/><path class="cls-2" d="M335.91,135h9.61v4.23h-9.61Z"/><path class="cls-2" d="M366.82,125.73v21.34h-4.09V132.72a8.3,8.3,0,0,1-4.08,1.51v-3.48a6.2,6.2,0,0,0,5.3-5Z"/><path class="cls-2" d="M381.74,125.34c5.56,0,10.07,3.62,10.07,11s-4.05,11.22-10,11.22-10-3.83-10-11.15C371.77,129.28,376.25,125.34,381.74,125.34Zm-5.63,11c0,5.55,2.11,7.53,5.63,7.53s5.74-2,5.74-7.61c0-5.16-2.3-7.31-5.78-7.31S376.11,131.51,376.11,136.35Z"/><path class="cls-2" d="M236.92,252.68h8v31h-8Z"/><path class="cls-2" d="M250.77,262.48H258l-.08,3.73a8.12,8.12,0,0,1,7.5-4.31c4.1,0,6.88,2.05,6.88,7.18v14.59h-7.21V271.58c0-2.13-.74-3.57-2.91-3.57-2.7,0-4.18,1.44-4.18,5.94v9.72h-7.21Z"/><path class="cls-2" d="M277.36,262.48h7.22l-.08,3.11A6.87,6.87,0,0,1,291,261.9c5.53,0,8.9,4,8.9,11s-3.12,11.31-8.41,11.31c-3.32,0-5.53-1.19-6.92-3.44V291h-7.22ZM292.65,273c0-3.57-1.31-5.25-4.06-5.25-2.46,0-4.14,2.18-4.14,5.29s1.68,5.25,4.14,5.25C291.26,278.26,292.65,276.54,292.65,273Z"/><path class="cls-2" d="M313.18,267.56a7,7,0,0,0-5.9,2.62l-4.55-3.77c2.71-3,6.64-4.51,11.31-4.51s9.39,1,9.39,6.85v8c0,1.89.57,2.3,1.6,2.3a2.2,2.2,0,0,0,1.06-.21h.17l-1.4,4.67a9.07,9.07,0,0,1-2.87.5c-2,0-4.38-.58-5.16-2.79a8.75,8.75,0,0,1-7.26,3.15c-4.18,0-7.21-1.84-7.21-6.06,0-6.11,6.15-7.3,14.22-7.75C316.54,268.3,316.13,267.56,313.18,267.56Zm3.53,7.3c-4.47,0-7.38.86-7.38,2.82,0,1.07.9,1.52,2.09,1.52C313.63,279.2,316.71,277.68,316.71,274.86Z"/><path class="cls-2" d="M327.11,268.18v-5.7h3.45v-3a45.31,45.31,0,0,0,6.88-5.41h.33v8.36h4.34v5.7h-4.34V276c0,1.15.33,1.81,1.6,1.81a4.11,4.11,0,0,0,2-.45h.08v6.06a13.45,13.45,0,0,1-4.71.82c-2.26,0-3.94-.37-4.88-1.47s-1.31-2.42-1.31-4.68v-9.91Z"/><path class="cls-2" d="M346,252.72h7.21v6.89H346Zm0,9.76h7.21v21.19H346Z"/><path class="cls-2" d="M368.59,278.75c2.21,0,3.89-.49,4.87-2.58l6.11,1.92c-2,4.27-5.78,6.32-10.9,6.32-6.64,0-11.48-4.06-11.48-11.07s4.55-11.44,11.36-11.44c5.28,0,11.88,3,11.06,12.91H364.16C364.61,277.4,366.25,278.75,368.59,278.75Zm4.14-8.07c-.33-2-1.64-3.16-4.18-3.16-2.3,0-3.81.74-4.35,3.16Z"/><path class="cls-2" d="M383.46,262.48h7.22l-.09,3.73a8.13,8.13,0,0,1,7.5-4.31c4.1,0,6.89,2.05,6.89,7.18v14.59h-7.21V271.58c0-2.13-.74-3.57-2.91-3.57-2.71,0-4.18,1.44-4.18,5.94v9.72h-7.22Z"/><path class="cls-2" d="M408.05,268.18v-5.7h3.44v-3a45.36,45.36,0,0,0,6.89-5.41h.33v8.36h4.34v5.7h-4.34V276c0,1.15.32,1.81,1.6,1.81a4.07,4.07,0,0,0,2-.45h.09v6.06a13.52,13.52,0,0,1-4.72.82c-2.25,0-3.93-.37-4.87-1.47s-1.32-2.42-1.32-4.68v-9.91Z"/><path class="cls-2" d="M433,259.08v-6.4h27.66v6.4h-9.55v24.59h-8V259.08Z"/><path class="cls-2" d="M460.38,262.48h7.22l-.09,2.58a5.62,5.62,0,0,1,4.8-2.95,5,5,0,0,1,3.57,1.15L473,269.73h-.09a2.83,2.83,0,0,0-2.33-1c-2.05,0-2.95,1.23-2.95,4v10.95h-7.22Z"/><path class="cls-2" d="M488,278.75c2.22,0,3.9-.49,4.88-2.58l6.11,1.92c-2,4.27-5.78,6.32-10.9,6.32-6.64,0-11.48-4.06-11.48-11.07s4.55-11.44,11.35-11.44c5.29,0,11.89,3,11.07,12.91H483.54C484,277.4,485.63,278.75,488,278.75Zm4.14-8.07c-.32-2-1.64-3.16-4.18-3.16-2.29,0-3.81.74-4.34,3.16Z"/><path class="cls-2" d="M512.14,267.56a7,7,0,0,0-5.9,2.62l-4.55-3.77c2.71-3,6.64-4.51,11.31-4.51s9.39,1,9.39,6.85v8c0,1.89.57,2.3,1.6,2.3a2.2,2.2,0,0,0,1.06-.21h.17l-1.4,4.67a9.07,9.07,0,0,1-2.87.5c-2,0-4.38-.58-5.16-2.79a8.74,8.74,0,0,1-7.25,3.15c-4.18,0-7.22-1.84-7.22-6.06,0-6.11,6.15-7.3,14.22-7.75C515.5,268.3,515.09,267.56,512.14,267.56Zm3.53,7.3c-4.47,0-7.38.86-7.38,2.82,0,1.07.9,1.52,2.09,1.52C512.59,279.2,515.67,277.68,515.67,274.86Z"/><path class="cls-2" d="M526.07,268.18v-5.7h3.45v-3a45.31,45.31,0,0,0,6.88-5.41h.33v8.36h4.35v5.7h-4.35V276c0,1.15.33,1.81,1.6,1.81a4.11,4.11,0,0,0,2-.45h.08v6.06a13.45,13.45,0,0,1-4.71.82c-2.26,0-3.94-.37-4.88-1.47s-1.31-2.42-1.31-4.68v-9.91Z"/><path class="cls-2" d="M558,283.67V271.41c0-2.37-.9-3.4-2.66-3.4-2.42,0-3.41,1.52-3.41,5.12v10.54h-7.21V262.48h7.21l-.08,3.28a7,7,0,0,1,6.31-3.86c3,0,5.33.87,6.4,3.45a7.76,7.76,0,0,1,6.84-3.45c4.1,0,7.09,1.73,7.09,7.14v14.63h-7.21V271.41c0-2.37-.9-3.4-2.66-3.4-2.42,0-3.41,1.52-3.41,5.12v10.54Z"/><path class="cls-2" d="M593.53,278.75c2.21,0,3.89-.49,4.88-2.58l6.11,1.92c-2,4.27-5.78,6.32-10.91,6.32-6.64,0-11.47-4.06-11.47-11.07s4.55-11.44,11.35-11.44c5.29,0,11.89,3,11.07,12.91H589.1C589.56,277.4,591.19,278.75,593.53,278.75Zm4.14-8.07c-.33-2-1.64-3.16-4.18-3.16-2.3,0-3.81.74-4.34,3.16Z"/><path class="cls-2" d="M608.41,262.48h7.21l-.08,3.73a8.12,8.12,0,0,1,7.5-4.31c4.1,0,6.88,2.05,6.88,7.18v14.59h-7.21V271.58c0-2.13-.74-3.57-2.91-3.57-2.7,0-4.18,1.44-4.18,5.94v9.72h-7.21Z"/><path class="cls-2" d="M633,268.18v-5.7h3.45v-3a45.31,45.31,0,0,0,6.88-5.41h.33v8.36H648v5.7h-4.34V276c0,1.15.33,1.81,1.6,1.81a4.11,4.11,0,0,0,2-.45h.08v6.06a13.45,13.45,0,0,1-4.71.82c-2.26,0-3.94-.37-4.88-1.47s-1.31-2.42-1.31-4.68v-9.91Z"/><path class="cls-2" d="M661.56,250.35h7.25L656,289.28h-7.25Z"/><path class="cls-2" d="M234,324.53l5.29-4.72c2.17,2.54,5.66,4.31,10.49,4.31,4.39,0,6.11-.91,6.11-2.91,0-2.22-1.6-2.59-7.21-3.37-6.11-.86-13.53-2.17-13.53-9.91,0-6.64,5.33-9.72,13.36-9.72,7,0,11.15,1.89,14.39,5.33l-5,4.71c-1.39-1.8-4.26-3.81-9.14-3.81-4.26,0-5.94.82-5.94,2.79s1.68,2.54,7.58,3.24c6.39.78,13.36,2.46,13.36,10,0,6.76-4.38,10.08-13.89,10.08C242.08,330.51,237.33,328.17,234,324.53Z"/><path class="cls-2" d="M267.57,323.17V308.58h7.21v12.09c0,2.13.74,3.57,2.91,3.57,2.71,0,4.18-1.44,4.18-5.94v-9.72h7.22v21.19h-7.22L282,326a8.14,8.14,0,0,1-7.5,4.31C270.36,330.35,267.57,328.3,267.57,323.17Z"/><path class="cls-2" d="M301.46,326.66l.08,3.11h-7.21v-31h7.21v12.58A7.07,7.07,0,0,1,308,308c5.53,0,8.89,4,8.89,11s-3.11,11.32-8.4,11.32C305.15,330.35,302.9,329.07,301.46,326.66Zm8.16-7.59c0-3.56-1.31-5.24-4.06-5.24-2.46,0-4.14,2.17-4.14,5.29s1.68,5.24,4.14,5.24C308.22,324.36,309.62,322.64,309.62,319.07Z"/><path class="cls-2" d="M318.67,326.62l3.77-4.18c1.68,1.43,3.49,2.5,7.42,2.5,2.75,0,3.36-.54,3.36-1.44,0-1.19-.82-1-4.75-1.43-5.29-.62-8.81-2-8.81-7.09s4.42-6.93,10-6.93c4.63,0,8.07,1.11,9.71,2.25l-3.28,4.76c-1.31-.9-3.2-1.72-6.68-1.72-2.83,0-3.16.69-3.16,1.31,0,.78.62,1.15,3.94,1.39,4.79.37,10.08,1.35,10.08,7,0,5.08-3.85,7.3-10.12,7.3C324.86,330.39,321.21,329.07,318.67,326.62Z"/><path class="cls-2" d="M341.87,314.28v-5.7h3.44v-2.95a45.85,45.85,0,0,0,6.89-5.41h.32v8.36h4.35v5.7h-4.35v7.83c0,1.15.33,1.8,1.6,1.8a4,4,0,0,0,2-.45h.08v6.07a13.69,13.69,0,0,1-4.71.82c-2.26,0-3.94-.37-4.88-1.48s-1.31-2.42-1.31-4.67v-9.92Z"/><path class="cls-2" d="M369.82,313.66a7,7,0,0,0-5.9,2.63l-4.55-3.77c2.7-3,6.64-4.51,11.31-4.51s9.38,1,9.38,6.84v8c0,1.88.58,2.29,1.6,2.29a2.29,2.29,0,0,0,1.07-.2h.16l-1.39,4.67a9.5,9.5,0,0,1-2.87.49c-2,0-4.39-.57-5.17-2.79a8.72,8.72,0,0,1-7.25,3.16c-4.18,0-7.21-1.85-7.21-6.07,0-6.1,6.15-7.29,14.22-7.74C373.18,314.4,372.77,313.66,369.82,313.66Zm3.52,7.3c-4.47,0-7.38.86-7.38,2.83,0,1.06.91,1.51,2.09,1.51C370.27,325.3,373.34,323.79,373.34,321Z"/><path class="cls-2" d="M386.33,308.58h7.21l-.08,3.73A8.13,8.13,0,0,1,401,308c4.1,0,6.89,2.05,6.89,7.17v14.59h-7.21V317.68c0-2.13-.74-3.56-2.91-3.56-2.71,0-4.19,1.43-4.19,5.94v9.71h-7.21Z"/><path class="cls-2" d="M411.49,319.44c0-7.13,4.72-11.43,11.11-11.43,5.33,0,8.53,2.29,10.29,6.56l-5.82,2.87c-.7-2-1.93-3.57-4.22-3.57-2.63,0-4.06,1.68-4.06,5.33s1.39,5.65,4.1,5.65c2.21,0,3.6-1.47,4.18-3.85l6.1,2.66c-1.68,4.43-5.16,6.85-10.53,6.85C416.29,330.51,411.49,326.45,411.49,319.44Z"/><path class="cls-2" d="M446.49,324.85c2.22,0,3.9-.49,4.88-2.58l6.11,1.93c-2,4.26-5.78,6.31-10.91,6.31-6.63,0-11.47-4.06-11.47-11.07S439.65,308,446.45,308c5.29,0,11.89,3,11.07,12.91H442.07C442.52,323.5,444.16,324.85,446.49,324.85Zm4.14-8.07c-.33-2-1.64-3.16-4.18-3.16-2.29,0-3.81.74-4.34,3.16Z"/><path class="cls-2" d="M470.22,314.28c0-9.26,6.56-16.07,16.19-16.07,7.5,0,11.56,3.24,14,8l-6.63,4c-1.4-3.44-3.65-5.08-7.26-5.08-4.79,0-8,3-8,9.06s3.28,9.26,8.07,9.26c3.73,0,6.19-2.25,7.5-5.37l6.85,4.06c-2.58,4.63-6.64,8.32-14.35,8.32C475.92,330.51,470.22,323.54,470.22,314.28Z"/><path class="cls-2" d="M514,313.66a7,7,0,0,0-5.9,2.63l-4.55-3.77c2.7-3,6.64-4.51,11.31-4.51s9.38,1,9.38,6.84v8c0,1.88.58,2.29,1.6,2.29a2.29,2.29,0,0,0,1.07-.2h.16l-1.39,4.67a9.5,9.5,0,0,1-2.87.49c-2,0-4.39-.57-5.17-2.79a8.72,8.72,0,0,1-7.25,3.16c-4.18,0-7.21-1.85-7.21-6.07,0-6.1,6.14-7.29,14.22-7.74C517.35,314.4,516.94,313.66,514,313.66Zm3.52,7.3c-4.47,0-7.38.86-7.38,2.83,0,1.06.91,1.51,2.09,1.51C514.44,325.3,517.51,323.79,517.51,321Z"/><path class="cls-2" d="M530.5,308.58h7.21l-.08,2.58a5.63,5.63,0,0,1,4.8-3,5,5,0,0,1,3.56,1.15l-2.91,6.48H543a2.8,2.8,0,0,0-2.33-1c-2,0-3,1.23-3,4v10.94H530.5Z"/><path class="cls-2" d="M558.08,324.85c2.22,0,3.9-.49,4.88-2.58l6.11,1.93c-2,4.26-5.78,6.31-10.91,6.31-6.64,0-11.47-4.06-11.47-11.07S551.24,308,558,308c5.29,0,11.89,3,11.07,12.91H553.66C554.11,323.5,555.75,324.85,558.08,324.85Zm4.14-8.07c-.33-2-1.64-3.16-4.18-3.16-2.29,0-3.81.74-4.34,3.16Z"/><path class="cls-2" d="M236.79,346.31h10.86c8.43,0,12.55,6,12.55,13.45,0,7.28-2.9,13.55-12.62,13.55H236.79ZM241.7,369h6.2c4.59,0,7.35-3,7.35-9.26,0-5.63-2.72-9-7.38-9H241.7Z"/><path class="cls-2" d="M276.12,360.44c0-2.29-1.43-2.94-3.58-2.94-2.37,0-4.13.75-5.13,2.91l-3.19-2.08c1.72-3.3,4.73-4.56,8.78-4.56s7.43,1.94,7.43,6.6v8.28c0,1.47,1.14,1.62,2.29,1.33h.07l-.61,3.51a14.73,14.73,0,0,1-2.11.15,3.52,3.52,0,0,1-3.77-2.84c-1.14,1.73-2.76,2.84-6.16,2.84s-6.39-1.44-6.39-5.42c0-4.87,4.23-6.38,12.37-7ZM268,368c0,1.4,1,2.12,2.8,2.12,2.86,0,5.37-1.76,5.37-4.45v-1.15C271.21,364.85,268,365.39,268,368Z"/><path class="cls-2" d="M283.69,354.17h4.59l4.23,13.12,4-13.12h4.2l-6.85,21.22a8.21,8.21,0,0,1-2.62,3.95,6.3,6.3,0,0,1-3.76,1.07,7.41,7.41,0,0,1-3.59-.78L285,376h.07a2.84,2.84,0,0,0,1.87.58,2.64,2.64,0,0,0,2.72-1.9l.65-1.62Z"/><path class="cls-2" d="M320.34,352v21.33h-4.09V359a8.43,8.43,0,0,1-4.09,1.51V357a6.22,6.22,0,0,0,5.31-5Z"/><path class="cls-2" d="M335.25,351.58c5.56,0,10.08,3.63,10.08,11s-4.05,11.22-10,11.22-10-3.84-10-11.15C325.29,355.53,329.77,351.58,335.25,351.58Zm-5.63,11c0,5.56,2.12,7.53,5.63,7.53s5.74-2,5.74-7.6c0-5.16-2.29-7.31-5.77-7.31S329.62,357.75,329.62,362.59Z"/><path class="cls-2" d="M358.31,361.27h9.61v4.23h-9.61Z"/><path class="cls-2" d="M381.73,362c0-8.14,4.12-14,8.82-18l2.54,2.4A21.25,21.25,0,0,0,386.68,362c0,7.39,3.15,11.94,6.41,15.53l-2.54,2.4C386,375.79,381.73,370.34,381.73,362Z"/><path class="cls-2" d="M406.76,347.25a8,8,0,0,1,7.81,4.8l-3.3,2.22c-.86-2.15-2.11-3.4-4.73-3.4-3.48,0-5.52,3.3-6,8.35a7,7,0,0,1,5.88-2.94c4.59,0,8.46,2.94,8.46,8.39s-3.76,9.11-9.07,9.11a8.81,8.81,0,0,1-7.21-3.3,13.66,13.66,0,0,1-2.26-8.17C396.39,353.59,400.12,347.25,406.76,347.25Zm-6,17.71a4.93,4.93,0,0,0,5.09,5.16c3,0,4.8-2.22,4.8-5.27,0-3.3-1.86-5.09-4.76-5.09C402.63,359.76,400.77,361.66,400.77,365Z"/><path class="cls-2" d="M428.38,351.58c5.56,0,10.07,3.63,10.07,11s-4.05,11.22-10,11.22-10-3.84-10-11.15C418.41,355.53,422.89,351.58,428.38,351.58Zm-5.63,11c0,5.56,2.11,7.53,5.63,7.53s5.74-2,5.74-7.6c0-5.16-2.3-7.31-5.78-7.31S422.75,357.75,422.75,362.59Z"/><path class="cls-2" d="M451.44,361.27h9.61v4.23h-9.61Z"/><path class="cls-2" d="M482.7,378.08a8.65,8.65,0,0,1-8.28-5.37l3.44-1.87c1.08,2.26,2.23,3.62,5,3.62,3.55,0,5.45-3.26,6-8.68a6.71,6.71,0,0,1-6,2.84c-4.8,0-8.6-2.91-8.6-8.14s3.65-8.9,9.21-8.9c6.49,0,9.61,4.49,9.61,11.26C493.1,371.77,490,378.08,482.7,378.08Zm5.78-17.82c0-3-1.51-5.09-5-5.09-3.3,0-4.88,2.19-4.88,5.13,0,3.37,1.65,4.87,4.73,4.87C486.94,365.17,488.48,363.27,488.48,360.26Z"/><path class="cls-2" d="M506.66,351.58c5.55,0,10.07,3.63,10.07,11s-4.05,11.22-10,11.22-10-3.84-10-11.15C496.69,355.53,501.17,351.58,506.66,351.58Zm-5.63,11c0,5.56,2.11,7.53,5.63,7.53s5.73-2,5.73-7.6c0-5.16-2.29-7.31-5.77-7.31S501,357.75,501,362.59Z"/><path class="cls-2" d="M520,377.51c3.27-3.59,6.42-8.14,6.42-15.53A21.25,21.25,0,0,0,520,346.42l2.55-2.4c4.7,4,8.82,9.82,8.82,18,0,8.36-4.23,13.81-8.82,17.93Z"/><path class="cls-2" d="M244.79,708.3h-8v-31h16.64c8,0,11.19,4.1,11.19,10.12,0,5.41-3.11,9.43-10.33,9.43h-9.46Zm8.11-17.86c3.07,0,3.89-1.19,3.89-3.37,0-1.92-.86-3.15-3.85-3.15h-8.15v6.52Z"/><path class="cls-2" d="M266,698c0-7.14,4.76-11.44,11.4-11.44s11.31,4.55,11.31,11.19c0,7.17-4.76,11.31-11.36,11.31S266,705,266,698Zm15.49-.21c0-3.56-1.39-5.37-4.09-5.37s-4.14,1.68-4.14,5.33,1.43,5.66,4.14,5.66S281.46,701.3,281.46,697.77Z"/><path class="cls-2" d="M289.9,705.15l3.78-4.18c1.68,1.43,3.48,2.5,7.41,2.5,2.75,0,3.36-.53,3.36-1.44,0-1.18-.82-1-4.75-1.43-5.29-.62-8.81-2-8.81-7.09s4.42-6.93,10-6.93c4.63,0,8.07,1.11,9.71,2.26l-3.28,4.75c-1.31-.9-3.19-1.72-6.68-1.72-2.83,0-3.15.7-3.15,1.31,0,.78.61,1.15,3.93,1.39,4.8.37,10.08,1.36,10.08,7,0,5.09-3.85,7.3-10.12,7.3C296.09,708.92,292.45,707.61,289.9,705.15Z"/><path class="cls-2" d="M313.1,692.81v-5.69h3.44v-3a45.89,45.89,0,0,0,6.89-5.4h.33v8.36h4.34v5.69h-4.34v7.83c0,1.15.32,1.8,1.59,1.8a4,4,0,0,0,2-.45h.08v6.07a13.45,13.45,0,0,1-4.71.82c-2.25,0-3.93-.37-4.88-1.48s-1.31-2.41-1.31-4.67v-9.92Z"/><path class="cls-2" d="M340.52,683.71v-6.39h27.66v6.39h-9.55V708.3h-8V683.71Z"/><path class="cls-2" d="M367.89,687.12h7.21L375,689.7a5.61,5.61,0,0,1,4.8-3,5,5,0,0,1,3.56,1.14l-2.91,6.48h-.08a2.8,2.8,0,0,0-2.33-1c-2.05,0-3,1.23-3,4V708.3h-7.21Z"/><path class="cls-2" d="M395.47,703.39c2.21,0,3.9-.5,4.88-2.59l6.11,1.93c-2,4.26-5.78,6.31-10.91,6.31-6.64,0-11.47-4-11.47-11.06s4.55-11.44,11.35-11.44c5.29,0,11.89,3,11.07,12.91H391.05C391.5,702,393.14,703.39,395.47,703.39Zm4.14-8.08c-.33-2-1.64-3.15-4.18-3.15-2.29,0-3.81.73-4.34,3.15Z"/><path class="cls-2" d="M419.65,692.2a7,7,0,0,0-5.9,2.62l-4.55-3.77c2.7-3,6.64-4.51,11.31-4.51s9.39,1,9.39,6.85v8c0,1.88.57,2.29,1.6,2.29a2.25,2.25,0,0,0,1.06-.2h.16l-1.39,4.67a9.1,9.1,0,0,1-2.87.49c-2,0-4.38-.57-5.16-2.78A8.76,8.76,0,0,1,416,709c-4.18,0-7.21-1.84-7.21-6.06,0-6.11,6.15-7.3,14.22-7.75C423,692.94,422.6,692.2,419.65,692.2Zm3.52,7.29c-4.46,0-7.37.86-7.37,2.83,0,1.07.9,1.52,2.09,1.52C420.1,703.84,423.17,702.32,423.17,699.49Z"/><path class="cls-2" d="M433.58,692.81v-5.69H437v-3a46.35,46.35,0,0,0,6.88-5.4h.33v8.36h4.34v5.69h-4.34v7.83c0,1.15.33,1.8,1.6,1.8a4,4,0,0,0,2-.45h.08v6.07a13.47,13.47,0,0,1-4.72.82c-2.25,0-3.93-.37-4.87-1.48S437,705,437,702.73v-9.92Z"/><path class="cls-2" d="M465.51,708.3V696.05c0-2.38-.9-3.4-2.67-3.4-2.41,0-3.4,1.52-3.4,5.12V708.3h-7.21V687.12h7.21l-.08,3.27a7,7,0,0,1,6.31-3.85c2.95,0,5.33.86,6.4,3.44a7.75,7.75,0,0,1,6.84-3.44c4.1,0,7.09,1.72,7.09,7.13V708.3h-7.21V696.05c0-2.38-.9-3.4-2.67-3.4-2.41,0-3.4,1.52-3.4,5.12V708.3Z"/><path class="cls-2" d="M501,703.39c2.21,0,3.89-.5,4.88-2.59l6.1,1.93c-2,4.26-5.78,6.31-10.9,6.31-6.64,0-11.48-4-11.48-11.06s4.55-11.44,11.36-11.44c5.28,0,11.88,3,11.06,12.91H496.61C497.06,702,498.7,703.39,501,703.39Zm4.14-8.08c-.33-2-1.64-3.15-4.18-3.15-2.3,0-3.81.73-4.35,3.15Z"/><path class="cls-2" d="M515.91,687.12h7.22l-.09,3.72a8.14,8.14,0,0,1,7.51-4.3c4.09,0,6.88,2.05,6.88,7.17V708.3h-7.21V696.21c0-2.13-.74-3.56-2.91-3.56-2.71,0-4.18,1.43-4.18,5.94v9.71h-7.22Z"/><path class="cls-2" d="M540.5,692.81v-5.69h3.44v-3a45.89,45.89,0,0,0,6.89-5.4h.33v8.36h4.34v5.69h-4.34v7.83c0,1.15.33,1.8,1.6,1.8a4,4,0,0,0,2-.45h.09v6.07a13.52,13.52,0,0,1-4.72.82c-2.25,0-3.93-.37-4.87-1.48s-1.32-2.41-1.32-4.67v-9.92Z"/><path class="cls-2" d="M236.79,724.85h10.86c8.43,0,12.55,5.95,12.55,13.44,0,7.28-2.9,13.56-12.62,13.56H236.79Zm4.91,22.66h6.2c4.59,0,7.35-3,7.35-9.25,0-5.63-2.72-9-7.38-9H241.7Z"/><path class="cls-2" d="M276.12,739c0-2.29-1.43-2.94-3.58-2.94-2.37,0-4.13.76-5.13,2.91l-3.19-2.08c1.72-3.3,4.73-4.56,8.78-4.56s7.43,1.94,7.43,6.6v8.29c0,1.47,1.14,1.61,2.29,1.32h.07l-.61,3.52a16.59,16.59,0,0,1-2.11.14,3.52,3.52,0,0,1-3.77-2.83c-1.14,1.72-2.76,2.83-6.16,2.83s-6.39-1.43-6.39-5.41c0-4.88,4.23-6.39,12.37-7ZM268,746.51c0,1.39,1,2.11,2.8,2.11,2.86,0,5.37-1.76,5.37-4.45V743C271.21,743.38,268,743.92,268,746.51Z"/><path class="cls-2" d="M283.69,732.7h4.59l4.23,13.12,4-13.12h4.2l-6.85,21.23a8.23,8.23,0,0,1-2.62,3.94,6.24,6.24,0,0,1-3.76,1.08,7.4,7.4,0,0,1-3.59-.79l1.11-3.62h.07a2.84,2.84,0,0,0,1.87.57,2.62,2.62,0,0,0,2.72-1.9l.65-1.61Z"/><path class="cls-2" d="M320.7,756.62a8.67,8.67,0,0,1-8.29-5.38l3.45-1.87c1.07,2.26,2.22,3.63,5,3.63,3.55,0,5.45-3.27,5.95-8.68a6.72,6.72,0,0,1-5.95,2.83c-4.81,0-8.61-2.9-8.61-8.14s3.66-8.89,9.22-8.89c6.49,0,9.61,4.48,9.61,11.26C331.1,750.31,328,756.62,320.7,756.62Zm5.77-17.82c0-3-1.51-5.1-5-5.1-3.3,0-4.88,2.19-4.88,5.13,0,3.37,1.65,4.88,4.74,4.88C324.93,743.71,326.47,741.81,326.47,738.8Z"/><path class="cls-2" d="M344.65,730.12c5.56,0,10.08,3.62,10.08,11s-4.06,11.22-10,11.22-10-3.83-10-11.15C334.68,734.06,339.16,730.12,344.65,730.12Zm-5.63,11c0,5.55,2.12,7.53,5.63,7.53s5.74-2,5.74-7.61c0-5.16-2.3-7.31-5.78-7.31S339,736.29,339,741.13Z"/><path class="cls-2" d="M367.71,739.8h9.61V744h-9.61Z"/><path class="cls-2" d="M391.12,740.52c0-8.14,4.13-14,8.82-18l2.55,2.4a21.26,21.26,0,0,0-6.42,15.57c0,7.38,3.16,11.94,6.42,15.52l-2.55,2.41C395.35,754.32,391.12,748.87,391.12,740.52Z"/><path class="cls-2" d="M409,748.66c.78,2.58,2,4.23,5.37,4.23,3.59,0,4.45-2,4.45-4.27,0-2.44-1.22-3.84-4.27-3.84h-2v-3.62h2.22c2.34,0,3.41-1.25,3.41-3.55s-1.07-3.91-3.87-3.91-4,1.65-4.74,4l-3.72-1.43c1.11-4,4.12-6.13,8.57-6.13,5.3,0,8,3,8,7.46a5.43,5.43,0,0,1-3.34,5.16,6.18,6.18,0,0,1,4,6c0,4.92-3.15,7.86-8.71,7.86-5.23,0-8.25-2.69-9.43-6.53Z"/><path class="cls-2" d="M436.09,739.8h9.61V744h-9.61Z"/><path class="cls-2" d="M469.4,725.78a8.07,8.07,0,0,1,7.82,4.8l-3.3,2.23c-.86-2.15-2.12-3.41-4.73-3.41-3.48,0-5.53,3.3-6,8.36a7,7,0,0,1,5.88-2.94c4.59,0,8.47,2.94,8.47,8.39a8.65,8.65,0,0,1-9.08,9.1,8.79,8.79,0,0,1-7.2-3.3,13.59,13.59,0,0,1-2.26-8.17C459,732.13,462.77,725.78,469.4,725.78Zm-6,17.71a4.93,4.93,0,0,0,5.09,5.17c3,0,4.81-2.23,4.81-5.28,0-3.29-1.87-5.09-4.77-5.09C465.28,738.29,463.41,740.19,463.41,743.49Z"/><path class="cls-2" d="M513.18,732.3c2.76,0,6.46,1.87,6.46,7v12.59h-4.31V740.27c0-2.59-.89-4.24-3.37-4.24-2.69,0-4.59,1.8-4.59,5.74v10.08h-4.3V740.27c0-2.59-.9-4.24-3.37-4.24-2.69,0-4.59,1.8-4.59,5.74v10.08h-4.3V732.7h4.3l-.07,3.08a6.28,6.28,0,0,1,5.88-3.48,6.1,6.1,0,0,1,5.56,3.59C508,733.42,510,732.3,513.18,732.3Z"/><path class="cls-2" d="M541.94,742.24c0,6.52-3.44,10.07-9.14,10.07-5.52,0-9.15-4-9.18-10,0-6.35,3.84-10.12,9.18-10.12C538.32,732.23,542,736.07,541.94,742.24ZM527.89,742c0,3.87,1.25,6.88,4.84,6.88,3.83,0,4.94-2.72,4.94-6.6,0-3.69-1.43-6.63-4.84-6.63S527.89,738.22,527.89,742Z"/><path class="cls-2" d="M550.4,732.7l-.07,3.08a6.35,6.35,0,0,1,6-3.48c2.76,0,6.56,1.87,6.56,7v12.59h-4.3V740.27c0-2.59-1-4.24-3.48-4.24-2.69,0-4.7,1.8-4.7,5.74v10.08h-4.3V732.7Z"/><path class="cls-2" d="M573.64,747.11c0,.94.54,1.44,1.54,1.44a3.79,3.79,0,0,0,2.51-.72h.11l-.25,3.91a7.62,7.62,0,0,1-3.19.57c-3.12,0-5-1.68-5-5.3V736.36H566V732.7h3.3V730a21.89,21.89,0,0,0,4.19-3.72h.11v6.45h4v3.66h-4Z"/><path class="cls-2" d="M586.23,724.67v11a6.24,6.24,0,0,1,5.91-3.38c2.76,0,6.57,1.87,6.57,7v12.59H594.4V740.27c0-2.59-1-4.24-3.48-4.24-2.69,0-4.69,1.8-4.69,5.74v10.08h-4.31V724.67Z"/><path class="cls-2" d="M618.53,736.25l-3.08,2.33a5.37,5.37,0,0,0-4.84-2.69c-2.4,0-3.41.72-3.41,1.94,0,1.5,1.33,1.83,4.38,2.22,3.69.5,7.39,1.58,7.39,6.17,0,3.48-2.05,6-7.71,6-4.45,0-7.43-1.83-8.9-5l3.3-1.94a5.79,5.79,0,0,0,5.52,3.3c2.05,0,3.63-.58,3.63-2.15s-1.3-1.83-4.45-2.37c-3.84-.65-7.24-1.47-7.24-6.1,0-3.94,3.22-5.63,7.28-5.63C614.3,732.3,616.85,733.74,618.53,736.25Z"/><path class="cls-2" d="M622.05,756c3.26-3.58,6.42-8.14,6.42-15.52A21.26,21.26,0,0,0,622.05,725l2.54-2.4c4.7,4,8.83,9.83,8.83,18,0,8.35-4.24,13.8-8.83,17.93Z"/><g class="cls-3"><path class="cls-4" d="M107.5,2S9,2,9,100.5v939s0,98.5,98.5,98.5h4s98.5,0,98.5-98.5v-939S210,2,111.5,2Z"/><path class="cls-5" d="M107.5,262S9,262,9,360.5v679s0,98.5,98.5,98.5h4s98.5,0,98.5-98.5v-679s0-98.5-98.5-98.5Z"/></g><rect class="cls-6" x="9" y="175" width="201" height="276"/><rect class="cls-7" x="9" y="451" width="201" height="252"/><rect class="cls-8" x="9" y="703" width="201" height="119.93"/><rect class="cls-9" x="9" y="822.93" width="201" height="119.93"/><path class="cls-2" d="M81.18,588.06H75.44V565.94H87.32c5.74,0,8,2.93,8,7.23,0,3.86-2.22,6.73-7.37,6.73H81.18ZM87,575.3c2.2,0,2.78-.84,2.78-2.4,0-1.37-.61-2.25-2.75-2.25H81.18v4.65Z"/><path class="cls-2" d="M104.36,578.93v9.13H98.62V565.94h5.74v8.34h10.27v-8.34h5.74v22.12h-5.74v-9.13Z"/><path class="cls-2" d="M131,588.06h-5.74V565.94h11.88c5.74,0,8,2.93,8,7.23,0,3.86-2.22,6.73-7.37,6.73H131Zm5.79-12.76c2.2,0,2.78-.84,2.78-2.4,0-1.37-.61-2.25-2.75-2.25H131v4.65Z"/><path class="cls-2" d="M81.88,751.91h5.74V774H81.88Z"/><path class="cls-2" d="M91.37,763c0-6.61,5.41-11.47,11.94-11.47s11.94,4.42,11.94,11.3c0,6.67-4.86,11.76-12.09,11.76S91.37,769.59,91.37,763Zm17.94,0c0-4.3-2.49-6.5-6-6.5s-6,2.2-6,6.5,2.4,6.56,6,6.56S109.31,767.18,109.31,762.94Z"/><path class="cls-2" d="M124.62,774h-5.74V751.91h11.88c5.74,0,8,2.92,8,7.23,0,3.86-2.22,6.73-7.37,6.73h-6.76Zm5.79-12.76c2.2,0,2.78-.85,2.78-2.4,0-1.37-.61-2.25-2.75-2.25h-5.82v4.65Z"/><path class="cls-2" d="M86.24,882.9c0-6.61,5.42-11.47,11.94-11.47s11.94,4.42,11.94,11.29c0,6.68-4.85,11.77-12.08,11.77S86.24,889.51,86.24,882.9Zm17.94,0c0-4.3-2.48-6.5-6-6.5s-6,2.2-6,6.5,2.4,6.56,6,6.56S104.18,887.11,104.18,882.87Z"/><path class="cls-2" d="M119.5,894h-5.74V871.84h11.88c5.74,0,8,2.92,8,7.23,0,3.86-2.22,6.73-7.37,6.73H119.5Zm5.79-12.76c2.19,0,2.78-.85,2.78-2.4,0-1.37-.61-2.25-2.75-2.25H119.5v4.65Z"/></svg>