<svg id="Layer_1" data-name="Layer 1" xmlns="http://www.w3.org/2000/svg" viewBox="0 0 396.32 307.09"><defs><style>.cls-1{fill:#80ff73;}.cls-2{fill:none;}</style></defs><title>SBL_blog</title><path class="cls-1" d="M386.22,10.06c-.21,6.33-2.33,12.46-.16,15.34,7.57,10,1.79.22,3.42,10.47.88,5.54-1.52,11.81-3.26,17.5-3.05,9.91-10.2,6.48-20.6,6.7-16.55.36-9.4.65-25.93,1.37q-60.54,2.64-121.06,5.71c-27,1.41-53.93,3.47-80.9,5-26.18,1.5-52.36,3.22-78.57,3.82-9.86.23-20-1.69-29.63-4-6.47-1.56-8-7-8.11-14.2-.29-19.11,3.95-8.57,7.14-27.13,2.26-13.17,7.28-15.51,20.31-14.35a415.22,415.22,0,0,0,58,1.23c32.61-1.66,65.1-5.54,97.7-7.33,58.37-3.19,93-8.38,151.57-3,10.87,1,21.74,2.1,30.13,2.91"/><path class="cls-2" d="M386.22,10.06c-.21,6.33-2.33,12.46-.16,15.34,7.57,10,1.79.22,3.42,10.47.88,5.54-1.52,11.81-3.26,17.5-3.05,9.91-10.2,6.48-20.6,6.7-16.55.36-9.4.65-25.93,1.37q-60.54,2.64-121.06,5.71c-27,1.41-53.93,3.47-80.9,5-26.18,1.5-52.36,3.22-78.57,3.82-9.86.23-20-1.69-29.63-4-6.47-1.56-8-7-8.11-14.2-.29-19.11,3.95-8.57,7.14-27.13,2.26-13.17,7.28-15.51,20.31-14.35a415.22,415.22,0,0,0,58,1.23c32.61-1.66,65.1-5.54,97.7-7.33,58.37-3.19,93-8.38,151.57-3C367,8.14,377.83,9.25,386.22,10.06Z"/><path class="cls-1" d="M29.79,134.77c5.38-1.43,10.43-3.49,15.64-4,18.36-1.88,36.74-3.7,55.16-4.68,36.13-1.92,72.27-4.16,108.43-4.55,32-.34,121.14,1.56,153.16,2.64,15.48.52,21,5,22.55,20.11.89,8.64,0,8.3-1,17-1.14,9.63-2.57-1.24-5.35,8-4,13.37-9.55,15.8-23.49,15-40-2.2-137.1-5.71-177.08-5.33-42.08.4-84.13,4.62-126.18,7.43-3.57.24-7,3.25-10.53,3.41-5.93.26-12.42.52-17.76-1.56-6.61-2.57-6.06-8.66-4.89-15.45,3-17.15,4.32-4.67,6.71-21.93.67-4.85,2.68-9.51,4.62-16.11"/><path class="cls-2" d="M29.79,134.77c5.38-1.43,10.43-3.49,15.64-4,18.36-1.88,36.74-3.7,55.16-4.68,36.13-1.92,72.27-4.16,108.43-4.55,32-.34,121.14,1.56,153.16,2.64,15.48.52,21,5,22.55,20.11.89,8.64,0,8.3-1,17-1.14,9.63-2.57-1.24-5.35,8-4,13.37-9.55,15.8-23.49,15-40-2.2-137.1-5.71-177.08-5.33-42.08.4-84.13,4.62-126.18,7.43-3.57.24-7,3.25-10.53,3.41-5.93.26-12.42.52-17.76-1.56-6.61-2.57-6.06-8.66-4.89-15.45,3-17.15,4.32-4.67,6.71-21.93C25.84,146,27.85,141.37,29.79,134.77Z"/><path class="cls-1" d="M268.93,240.6c8.17,10.38,11.57,6.11,9.42,17.61-2.56,13.68-6.4,6.54-8.2,20.3-1.32,10.14-8.13,13.3-15.65,13.51-71,2-79.22,1.82-86.41,2.05-46.52,1.56-93,4.27-139.49,6.49a16.83,16.83,0,0,0-2.84.35c-14.86,3.44-18.91.85-19.42-14.86-.77-23.51,3.14-11.51,9.85-34,2.67-8.92,14.58-13,23.69-12a415.66,415.66,0,0,0,49.4,2.3c43.32-.46,86.64-1.59,130-2.56,24.12-.55,17.3-1.44,41.42-1.84,3.07-.05,6.17,1.9,8.28,2.6"/><path class="cls-2" d="M268.93,240.6c8.17,10.38,11.57,6.11,9.42,17.61-2.56,13.68-6.4,6.54-8.2,20.3-1.32,10.14-8.13,13.3-15.65,13.51-71,2-79.22,1.82-86.41,2.05-46.52,1.56-93,4.27-139.49,6.49a16.83,16.83,0,0,0-2.84.35c-14.86,3.44-18.91.85-19.42-14.86-.77-23.51,3.14-11.51,9.85-34,2.67-8.92,14.58-13,23.69-12a415.66,415.66,0,0,0,49.4,2.3c43.32-.46,86.64-1.59,130-2.56,24.12-.55,17.3-1.44,41.42-1.84C263.72,238,266.82,239.9,268.93,240.6Z"/></svg>