<svg id="Layer_1" data-name="Layer 1" xmlns="http://www.w3.org/2000/svg" viewBox="0 0 94.9 94.9"><title>SBL_svg-files</title><path d="M94.33,16.42V78.48A15.85,15.85,0,0,1,78.48,94.32H66.8V53h9.93V43.07H66.8V35.76c0-3.5,2-4.76,4.78-4.76a7.71,7.71,0,0,1,5,1.76h.3l1.61-8,.24-1.18C76.83,22.05,73.81,21,69.63,21H69.2c-6.71.12-11.38,3.39-13.2,9.35a21.18,21.18,0,0,0-.87,6.32v6.42H47.05V53h8.08V94.32H16.42A15.85,15.85,0,0,1,.57,78.48V16.42A15.85,15.85,0,0,1,16.42.57H78.48A15.85,15.85,0,0,1,94.33,16.42"/></svg>