<svg id="Layer_1" data-name="Layer 1" xmlns="http://www.w3.org/2000/svg" xmlns:xlink="http://www.w3.org/1999/xlink" viewBox="0 0 1918.37 236.72"><defs><style>.cls-1{fill:none;}.cls-2{fill:#231f20;}.cls-3{clip-path:url(#clip-path);}.cls-4{fill:#d0d2d3;}.cls-5{fill:#80ff73;}.cls-6{fill:#beffb8;}.cls-7{fill:#a5ff9c;}.cls-8{fill:#bbbdbf;}.cls-9{fill:#a6a8ab;}</style><clipPath id="clip-path"><rect class="cls-1" y="5" width="1915.37" height="231.72"/></clipPath></defs><title>SBL_timelines</title><path class="cls-2" d="M1529.6,143.64h5.74V161.2H1547v4.57H1529.6Z"/><path class="cls-2" d="M1550,143.67h5.16v4.92H1550Zm0,7h5.16v15.14H1550Z"/><path class="cls-2" d="M1557.62,154.7v-4.07h2.84v-2.8c0-3.31,1.93-4.69,5.06-4.69a9.43,9.43,0,0,1,4,.73l-.56,4h-.06a2.81,2.81,0,0,0-1.84-.61c-.88,0-1.43.38-1.43,1.23v2.16h3.54v4.07h-3.54v11.07h-5.15V154.7Z"/><path class="cls-2" d="M1578.6,162.25c1.58,0,2.78-.35,3.48-1.84l4.37,1.38c-1.41,3-4.13,4.5-7.79,4.5-4.74,0-8.19-2.89-8.19-7.9s3.24-8.16,8.1-8.16c3.78,0,8.49,2.16,7.9,9.21h-11A3,3,0,0,0,1578.6,162.25Zm3-5.76c-.24-1.44-1.17-2.26-3-2.26-1.64,0-2.72.53-3.1,2.26Z"/><path class="cls-2" d="M1596.84,143.64h12.88c5.94,0,7.75,3.13,7.75,6,0,2.52-.82,3.78-2.87,4.71,2.05.79,3.34,2.05,3.34,5.07,0,3.71-1.87,6.35-8.19,6.35h-12.91Zm12.44,8.55c2,0,2.72-.35,2.72-1.91,0-1.34-.59-1.93-2.69-1.93h-6.73v3.84Zm-6.7,8.86h6.93c2.23,0,2.87-.79,2.87-2.28s-.67-2.19-3-2.19h-6.79Z"/><path class="cls-2" d="M1628.36,162.25c1.59,0,2.78-.35,3.49-1.84l4.36,1.38c-1.41,3-4.13,4.5-7.79,4.5-4.74,0-8.19-2.89-8.19-7.9s3.25-8.16,8.1-8.16c3.78,0,8.49,2.16,7.91,9.21h-11A3.05,3.05,0,0,0,1628.36,162.25Zm3-5.76c-.23-1.44-1.17-2.26-3-2.26-1.63,0-2.72.53-3.1,2.26Z"/><path class="cls-2" d="M1637.06,150.63h5.53l3.07,8.76,3.16-8.76h5L1648,165c-1.11,2.75-2,4.33-3.27,5.26a5.65,5.65,0,0,1-3.46,1,5,5,0,0,1-2.72-.68v-4.18h.18a2.4,2.4,0,0,0,1.84.64,2.13,2.13,0,0,0,2.4-1.52Z"/><path class="cls-2" d="M1654.51,158.39c0-5.09,3.39-8.16,8.13-8.16a7.67,7.67,0,0,1,8.08,8c0,5.12-3.4,8.07-8.11,8.07S1654.51,163.4,1654.51,158.39Zm11.06-.15c0-2.54-1-3.83-2.93-3.83s-3,1.2-3,3.81,1,4,3,4S1665.57,160.76,1665.57,158.24Z"/><path class="cls-2" d="M1673.44,150.63h5.16l-.06,2.67a5.78,5.78,0,0,1,5.35-3.07c2.93,0,4.92,1.46,4.92,5.12v10.42h-5.15v-8.64c0-1.52-.53-2.54-2.08-2.54-1.93,0-3,1-3,4.24v6.94h-5.16Z"/><path class="cls-2" d="M1691.54,158.1c0-5,2.45-7.87,6.32-7.87a5,5,0,0,1,4.68,2.4v-9h5.15v22.13h-5.15l.06-2.23a5,5,0,0,1-4.83,2.64C1693.73,166.18,1691.54,163.16,1691.54,158.1Zm11.09.06c0-2.23-1.09-3.78-3.05-3.78s-2.87,1.17-2.87,3.75.91,3.71,2.87,3.71S1702.63,160.38,1702.63,158.16Z"/><path class="cls-2" d="M1535.83,178.24a5.75,5.75,0,0,1,5.58,3.43l-2.35,1.59a3.31,3.31,0,0,0-3.39-2.43c-2.48,0-3.94,2.36-4.25,6a5,5,0,0,1,4.2-2.1,5.71,5.71,0,0,1,6.05,6,6.18,6.18,0,0,1-6.48,6.51,6.31,6.31,0,0,1-5.15-2.36,9.78,9.78,0,0,1-1.62-5.84C1528.42,182.78,1531.09,178.24,1535.83,178.24Zm-4.28,12.66a3.52,3.52,0,0,0,3.64,3.69c2.12,0,3.43-1.59,3.43-3.77,0-2.36-1.33-3.64-3.41-3.64A3.36,3.36,0,0,0,1531.55,190.9Z"/><path class="cls-2" d="M1567.1,182.9a4.6,4.6,0,0,1,4.62,5v9h-3.08v-8.28c0-1.84-.64-3-2.41-3-1.92,0-3.28,1.28-3.28,4.1v7.2h-3.07v-8.28c0-1.84-.64-3-2.41-3-1.92,0-3.28,1.28-3.28,4.1v7.2h-3.07V183.19h3.07l0,2.2a4.48,4.48,0,0,1,4.2-2.49,4.33,4.33,0,0,1,4,2.57A5,5,0,0,1,1567.1,182.9Z"/><path class="cls-2" d="M1587.64,190c0,4.66-2.45,7.2-6.53,7.2s-6.53-2.84-6.56-7.12c0-4.54,2.74-7.23,6.56-7.23S1587.67,185.59,1587.64,190Zm-10-.18c0,2.77.9,4.92,3.46,4.92,2.74,0,3.54-2,3.54-4.71s-1-4.74-3.46-4.74S1577.6,187.13,1577.6,189.82Z"/><path class="cls-2" d="M1593.69,183.19l0,2.2a4.53,4.53,0,0,1,4.27-2.49,4.65,4.65,0,0,1,4.69,5v9h-3.07v-8.28c0-1.84-.72-3-2.49-3-1.92,0-3.35,1.28-3.35,4.1v7.2h-3.08V183.19Z"/><path class="cls-2" d="M1610.29,193.49c0,.66.38,1,1.1,1a2.71,2.71,0,0,0,1.79-.51h.08l-.18,2.79a5.41,5.41,0,0,1-2.28.41c-2.23,0-3.59-1.2-3.59-3.79V185.8h-2.36v-2.61h2.36v-1.95a15.93,15.93,0,0,0,3-2.66h.08v4.61h2.86v2.61h-2.86Z"/><path class="cls-2" d="M1619.28,177.45v7.86a4.44,4.44,0,0,1,4.22-2.41,4.65,4.65,0,0,1,4.69,5v9h-3.07v-8.28c0-1.84-.72-3-2.49-3-1.92,0-3.35,1.28-3.35,4.1v7.2h-3.08V177.45Z"/><path class="cls-2" d="M1642.35,185.72l-2.2,1.67a3.85,3.85,0,0,0-3.46-1.92c-1.71,0-2.43.51-2.43,1.38,0,1.08,1,1.31,3.12,1.59,2.64.36,5.28,1.13,5.28,4.4,0,2.49-1.46,4.28-5.51,4.28-3.17,0-5.3-1.3-6.35-3.58l2.36-1.39a4.13,4.13,0,0,0,3.94,2.36c1.46,0,2.59-.41,2.59-1.54s-.92-1.3-3.18-1.69c-2.74-.46-5.17-1.05-5.17-4.35,0-2.82,2.3-4,5.2-4A6.44,6.44,0,0,1,1642.35,185.72Z"/><path class="cls-2" d="M1658.54,194.61h-2.84v-4h-3.92v-2.8h3.92v-4h2.84v4h3.89v2.8h-3.89Z"/><path class="cls-2" d="M11.46,143.64h9.69c7.28,0,11.91,4,11.91,10.89,0,6.67-4.19,11.24-12.06,11.24H11.46Zm10,17.41c3.39,0,5.65-2,5.65-6.38s-2.37-6.32-5.71-6.32H17.19v12.7Z"/><path class="cls-2" d="M43.22,162.25c1.58,0,2.78-.35,3.48-1.84l4.36,1.38c-1.4,3-4.13,4.5-7.78,4.5-4.74,0-8.2-2.89-8.2-7.9s3.25-8.16,8.11-8.16c3.77,0,8.49,2.16,7.9,9.21h-11A3,3,0,0,0,43.22,162.25Zm3-5.76c-.23-1.44-1.17-2.26-3-2.26-1.64,0-2.72.53-3.1,2.26Z"/><path class="cls-2" d="M52.41,154.7v-4.07h2.46v-2.1a33.46,33.46,0,0,0,4.92-3.86H60v6h3.1v4.07H60v5.59c0,.82.23,1.29,1.14,1.29a3,3,0,0,0,1.44-.32h0v4.33a9.67,9.67,0,0,1-3.36.59c-1.61,0-2.81-.27-3.48-1.06a4.78,4.78,0,0,1-.94-3.33V154.7Z"/><path class="cls-2" d="M65,158.39c0-5.09,3.39-8.16,8.13-8.16a7.67,7.67,0,0,1,8.08,8c0,5.12-3.39,8.07-8.11,8.07S65,163.4,65,158.39Zm11.06-.15c0-2.54-1-3.83-2.93-3.83s-2.95,1.2-2.95,3.81,1,4,2.95,4S76.06,160.76,76.06,158.24Z"/><path class="cls-2" d="M87.1,158.16l-5.65-7.53h6.17l2.76,3.93,2.83-3.93h5.45l-5.56,7.12,6.05,8H93l-3.13-4.45-3.25,4.45H81.16Z"/><path class="cls-2" d="M108.61,142h5.18l-9.16,27.81H99.45Z"/><path class="cls-2" d="M15,196.85H9.44l8.37-22.12h6.85l8.43,22.12H27l-1.47-4.12h-9.1ZM21,180l-3,8.48h6Z"/><path class="cls-2" d="M33.82,189.48c0-5.1,3.37-8.17,7.93-8.17,3.81,0,6.09,1.64,7.35,4.69l-4.16,2c-.49-1.43-1.37-2.54-3-2.54-1.87,0-2.9,1.2-2.9,3.8s1,4,2.93,4c1.58,0,2.57-1.05,3-2.75l4.36,1.9c-1.2,3.16-3.68,4.89-7.52,4.89C37.25,197.38,33.82,194.48,33.82,189.48Z"/><path class="cls-2" d="M51.59,192.14V181.72h5.15v8.64c0,1.52.53,2.54,2.08,2.54,1.93,0,3-1,3-4.24v-6.94H67v15.13H61.8l.06-2.66a5.8,5.8,0,0,1-5.35,3.07C53.58,197.26,51.59,195.8,51.59,192.14Z"/><path class="cls-2" d="M69.27,185.79v-4.07h2.46v-2.11a32.8,32.8,0,0,0,4.92-3.86h.23v6H80v4.07h-3.1v5.59c0,.82.23,1.29,1.14,1.29a3,3,0,0,0,1.44-.32h.05v4.33a9.72,9.72,0,0,1-3.36.58c-1.61,0-2.81-.26-3.48-1a4.81,4.81,0,0,1-.94-3.34v-7.08Z"/><path class="cls-2" d="M90,193.34c1.58,0,2.78-.35,3.49-1.84l4.36,1.37c-1.41,3-4.13,4.51-7.79,4.51-4.74,0-8.19-2.9-8.19-7.9s3.25-8.17,8.1-8.17c3.78,0,8.49,2.17,7.91,9.22h-11A3.05,3.05,0,0,0,90,193.34Zm3-5.76c-.23-1.44-1.17-2.26-3-2.26-1.63,0-2.72.53-3.1,2.26Z"/><path class="cls-2" d="M106.94,185.79c0-6.61,4.69-11.47,11.56-11.47,5.36,0,8.26,2.31,10,5.73l-4.74,2.87a5.1,5.1,0,0,0-5.18-3.63c-3.42,0-5.71,2.17-5.71,6.47s2.35,6.62,5.77,6.62a5.69,5.69,0,0,0,5.36-3.84l4.88,2.9c-1.84,3.31-4.74,5.94-10.24,5.94C111,197.38,106.94,192.4,106.94,185.79Z"/><path class="cls-2" d="M138.21,185.35a5,5,0,0,0-4.22,1.87l-3.25-2.69a10.43,10.43,0,0,1,8.08-3.22c3.25,0,6.7.73,6.7,4.89v5.71c0,1.34.41,1.64,1.14,1.64a1.53,1.53,0,0,0,.76-.15h.12l-1,3.34a6.82,6.82,0,0,1-2.05.35c-1.41,0-3.13-.41-3.69-2a6.24,6.24,0,0,1-5.18,2.25c-3,0-5.15-1.32-5.15-4.33,0-4.36,4.39-5.21,10.15-5.53C140.6,185.88,140.31,185.35,138.21,185.35Zm2.51,5.21c-3.19,0-5.27.61-5.27,2,0,.76.65,1.08,1.5,1.08C138.53,193.66,140.72,192.58,140.72,190.56Z"/><path class="cls-2" d="M150,181.72h5.15l-.05,1.85a4,4,0,0,1,3.42-2.11,3.56,3.56,0,0,1,2.55.82L159,186.9h-.06a2,2,0,0,0-1.67-.7c-1.46,0-2.11.88-2.11,2.84v7.81H150Z"/><path class="cls-2" d="M169.7,193.34c1.58,0,2.78-.35,3.48-1.84l4.36,1.37c-1.4,3-4.12,4.51-7.78,4.51-4.74,0-8.2-2.9-8.2-7.9s3.25-8.17,8.11-8.17c3.78,0,8.49,2.17,7.9,9.22h-11A3,3,0,0,0,169.7,193.34Zm3-5.76c-.24-1.44-1.17-2.26-3-2.26-1.64,0-2.72.53-3.1,2.26Z"/><path class="cls-2" d="M11.48,208.68h7.77c6,0,9,4.25,9,9.61,0,5.2-2.07,9.68-9,9.68H11.48ZM15,224.87h4.43c3.28,0,5.25-2.15,5.25-6.61,0-4-1.95-6.46-5.28-6.46H15Z"/><path class="cls-2" d="M39.58,218.77c0-1.64-1-2.1-2.56-2.1a3.59,3.59,0,0,0-3.66,2.08l-2.28-1.49c1.23-2.36,3.38-3.25,6.28-3.25s5.3,1.38,5.3,4.71v5.92c0,1.05.82,1.15,1.64,1h.05l-.44,2.51a11.72,11.72,0,0,1-1.51.1,2.52,2.52,0,0,1-2.69-2c-.82,1.23-2,2-4.4,2s-4.56-1-4.56-3.87c0-3.48,3-4.56,8.83-5Zm-5.84,5.38c0,1,.7,1.51,2,1.51,2,0,3.84-1.25,3.84-3.17v-.82C36.07,221.92,33.74,222.31,33.74,224.15Z"/><path class="cls-2" d="M45,214.29h3.28l3,9.38,2.85-9.38h3l-4.9,15.17a5.88,5.88,0,0,1-1.87,2.81,4.46,4.46,0,0,1-2.69.77,5.28,5.28,0,0,1-2.56-.56l.79-2.59H46a2,2,0,0,0,1.33.41,1.88,1.88,0,0,0,2-1.36l.46-1.15Z"/><path class="cls-2" d="M71.19,212.73V228H68.27V217.72a5.92,5.92,0,0,1-2.92,1.08v-2.49a4.43,4.43,0,0,0,3.79-3.58Z"/><path class="cls-2" d="M81.43,219.36H88.3v3H81.43Z"/><path class="cls-2" d="M103.51,212.73V228h-2.92V217.72a5.88,5.88,0,0,1-2.92,1.08v-2.49a4.41,4.41,0,0,0,3.79-3.58Z"/><path class="cls-2" d="M114.17,212.44c4,0,7.2,2.59,7.2,7.84s-2.9,8-7.18,8-7.14-2.74-7.14-8S110.25,212.44,114.17,212.44Zm-4,7.87c0,4,1.51,5.38,4,5.38s4.1-1.41,4.1-5.43c0-3.69-1.64-5.23-4.13-5.23S110.15,216.85,110.15,220.31Z"/><path class="cls-2" d="M301.86,143.64h5.74v22.13h-5.74Z"/><path class="cls-2" d="M311.75,150.63h5.16l-.06,2.67a5.78,5.78,0,0,1,5.35-3.07c2.93,0,4.92,1.46,4.92,5.12v10.42H322v-8.64c0-1.52-.53-2.54-2.08-2.54-1.93,0-3,1-3,4.24v6.94h-5.16Z"/><path class="cls-2" d="M330.75,150.63h5.15l-.06,2.23a4.93,4.93,0,0,1,4.66-2.63c3.95,0,6.35,2.83,6.35,7.87s-2.23,8.08-6,8.08a5.33,5.33,0,0,1-5-2.46V171h-5.15Zm10.92,7.5c0-2.55-.94-3.75-2.9-3.75-1.75,0-3,1.55-3,3.78s1.21,3.74,3,3.74C340.67,161.9,341.67,160.67,341.67,158.13Z"/><path class="cls-2" d="M356.33,154.26a5,5,0,0,0-4.21,1.88l-3.25-2.7a10.42,10.42,0,0,1,8.08-3.21c3.25,0,6.7.73,6.7,4.88v5.71c0,1.35.41,1.64,1.14,1.64a1.53,1.53,0,0,0,.76-.15h.12l-1,3.34a6.82,6.82,0,0,1-2.05.35c-1.41,0-3.13-.41-3.69-2a6.24,6.24,0,0,1-5.18,2.25c-3,0-5.15-1.31-5.15-4.33,0-4.36,4.39-5.21,10.15-5.53C358.73,154.79,358.44,154.26,356.33,154.26Zm2.52,5.21c-3.19,0-5.27.62-5.27,2,0,.76.65,1.09,1.5,1.09C356.66,162.58,358.85,161.49,358.85,159.47Z"/><path class="cls-2" d="M366.29,154.7v-4.07h2.46v-2.1a32.9,32.9,0,0,0,4.91-3.86h.24v6H377v4.07h-3.1v5.59c0,.82.23,1.29,1.14,1.29a2.93,2.93,0,0,0,1.43-.32h.06v4.33a9.67,9.67,0,0,1-3.36.59c-1.61,0-2.81-.27-3.49-1.06a4.84,4.84,0,0,1-.93-3.33V154.7Z"/><path class="cls-2" d="M379.75,143.67h5.15v4.92h-5.15Zm0,7h5.15v15.14h-5.15Z"/><path class="cls-2" d="M395.91,162.25c1.58,0,2.78-.35,3.48-1.84l4.36,1.38c-1.4,3-4.12,4.5-7.78,4.5-4.74,0-8.2-2.89-8.2-7.9s3.25-8.16,8.11-8.16c3.78,0,8.49,2.16,7.9,9.21h-11A3,3,0,0,0,395.91,162.25Zm3-5.76c-.24-1.44-1.17-2.26-3-2.26-1.64,0-2.72.53-3.1,2.26Z"/><path class="cls-2" d="M406.54,150.63h5.15l-.06,2.67a5.78,5.78,0,0,1,5.36-3.07c2.92,0,4.91,1.46,4.91,5.12v10.42h-5.15v-8.64c0-1.52-.53-2.54-2.08-2.54-1.93,0-3,1-3,4.24v6.94h-5.15Z"/><path class="cls-2" d="M424.1,154.7v-4.07h2.46v-2.1a33.46,33.46,0,0,0,4.92-3.86h.23v6h3.1v4.07h-3.1v5.59c0,.82.23,1.29,1.14,1.29a3,3,0,0,0,1.44-.32h0v4.33a9.67,9.67,0,0,1-3.36.59c-1.61,0-2.81-.27-3.48-1.06a4.78,4.78,0,0,1-.94-3.33V154.7Z"/><path class="cls-2" d="M441.93,148.21v-4.57h19.75v4.57h-6.82v17.56h-5.73V148.21Z"/><path class="cls-2" d="M461.48,150.63h5.15l-.06,1.85a4,4,0,0,1,3.43-2.11,3.53,3.53,0,0,1,2.54.82l-2.07,4.63h-.06a2,2,0,0,0-1.67-.71c-1.46,0-2.11.88-2.11,2.84v7.82h-5.15Z"/><path class="cls-2" d="M481.18,162.25c1.58,0,2.78-.35,3.48-1.84l4.36,1.38c-1.4,3-4.12,4.5-7.78,4.5-4.74,0-8.2-2.89-8.2-7.9s3.25-8.16,8.11-8.16c3.78,0,8.49,2.16,7.9,9.21H478A3,3,0,0,0,481.18,162.25Zm2.95-5.76c-.23-1.44-1.17-2.26-3-2.26-1.64,0-2.72.53-3.1,2.26Z"/><path class="cls-2" d="M498.45,154.26a5,5,0,0,0-4.21,1.88l-3.25-2.7a10.42,10.42,0,0,1,8.07-3.21c3.25,0,6.71.73,6.71,4.88v5.71c0,1.35.41,1.64,1.14,1.64a1.55,1.55,0,0,0,.76-.15h.12l-1,3.34a6.82,6.82,0,0,1-2.05.35c-1.4,0-3.13-.41-3.69-2a6.23,6.23,0,0,1-5.18,2.25c-3,0-5.15-1.31-5.15-4.33,0-4.36,4.39-5.21,10.16-5.53C500.85,154.79,500.56,154.26,498.45,154.26Zm2.52,5.21c-3.19,0-5.27.62-5.27,2,0,.76.64,1.09,1.49,1.09C498.77,162.58,501,161.49,501,159.47Z"/><path class="cls-2" d="M508.4,154.7v-4.07h2.46v-2.1a32.45,32.45,0,0,0,4.92-3.86H516v6h3.1v4.07H516v5.59c0,.82.24,1.29,1.14,1.29a2.94,2.94,0,0,0,1.44-.32h.06v4.33a9.79,9.79,0,0,1-3.37.59c-1.61,0-2.81-.27-3.48-1.06a4.78,4.78,0,0,1-.94-3.33V154.7Z"/><path class="cls-2" d="M531.2,165.77V157c0-1.69-.64-2.42-1.9-2.42-1.72,0-2.43,1.08-2.43,3.65v7.53h-5.15V150.63h5.15l-.06,2.35a5,5,0,0,1,4.51-2.75c2.11,0,3.81.61,4.57,2.45a5.53,5.53,0,0,1,4.88-2.45c2.93,0,5.07,1.22,5.07,5.09v10.45h-5.15V157c0-1.69-.65-2.42-1.91-2.42-1.72,0-2.43,1.08-2.43,3.65v7.53Z"/><path class="cls-2" d="M556.58,162.25c1.58,0,2.78-.35,3.49-1.84l4.36,1.38c-1.41,3-4.13,4.5-7.79,4.5-4.74,0-8.19-2.89-8.19-7.9s3.25-8.16,8.1-8.16c3.78,0,8.49,2.16,7.91,9.21h-11A3.05,3.05,0,0,0,556.58,162.25Zm3-5.76c-.23-1.44-1.17-2.26-3-2.26-1.63,0-2.72.53-3.1,2.26Z"/><path class="cls-2" d="M567.21,150.63h5.15l-.06,2.67a5.81,5.81,0,0,1,5.36-3.07c2.93,0,4.92,1.46,4.92,5.12v10.42h-5.16v-8.64c0-1.52-.52-2.54-2.07-2.54-1.93,0-3,1-3,4.24v6.94h-5.15Z"/><path class="cls-2" d="M584.77,154.7v-4.07h2.46v-2.1a32.45,32.45,0,0,0,4.92-3.86h.23v6h3.11v4.07h-3.11v5.59c0,.82.24,1.29,1.14,1.29a2.94,2.94,0,0,0,1.44-.32H595v4.33a9.79,9.79,0,0,1-3.37.59c-1.61,0-2.81-.27-3.48-1.06a4.78,4.78,0,0,1-.94-3.33V154.7Z"/><path class="cls-2" d="M605.18,142h5.18l-9.16,27.81H596Z"/><path class="cls-2" d="M299.75,195l3.78-3.36a9.49,9.49,0,0,0,7.49,3.07c3.13,0,4.36-.65,4.36-2.08,0-1.58-1.14-1.84-5.15-2.4-4.36-.61-9.66-1.55-9.66-7.08,0-4.74,3.81-6.94,9.54-6.94,5,0,8,1.35,10.28,3.81l-3.55,3.36c-1-1.28-3-2.72-6.52-2.72-3.05,0-4.24.59-4.24,2s1.19,1.82,5.41,2.31c4.56.56,9.54,1.76,9.54,7.11,0,4.83-3.13,7.2-9.92,7.2C305.55,199.22,302.15,197.56,299.75,195Z"/><path class="cls-2" d="M323.76,194V183.57h5.15v8.63c0,1.52.52,2.55,2.07,2.55,1.94,0,3-1,3-4.25v-6.93h5.15V198.7H334L334,196a5.8,5.8,0,0,1-5.36,3.08C325.75,199.11,323.76,197.64,323.76,194Z"/><path class="cls-2" d="M348,196.47l.06,2.23h-5.15V176.57H348v9a5,5,0,0,1,4.6-2.4c3.95,0,6.35,2.84,6.35,7.87s-2.23,8.08-6,8.08A5.35,5.35,0,0,1,348,196.47Zm5.83-5.41c0-2.55-.94-3.75-2.9-3.75-1.76,0-3,1.55-3,3.78s1.2,3.74,3,3.74S353.79,193.6,353.79,191.06Z"/><path class="cls-2" d="M360.26,196.44l2.69-3a7.15,7.15,0,0,0,5.3,1.78c2,0,2.4-.38,2.4-1,0-.85-.59-.7-3.4-1-3.77-.44-6.29-1.41-6.29-5.07s3.16-4.94,7.14-4.94A12.93,12.93,0,0,1,375,184.8l-2.34,3.39a7.93,7.93,0,0,0-4.77-1.23c-2,0-2.26.5-2.26.94s.44.82,2.81,1c3.43.27,7.2,1,7.2,5,0,3.63-2.75,5.21-7.23,5.21C364.68,199.14,362.07,198.2,360.26,196.44Z"/><path class="cls-2" d="M376.83,187.63v-4.06h2.46v-2.11a32.9,32.9,0,0,0,4.91-3.86h.24v6h3.1v4.06h-3.1v5.59c0,.82.23,1.29,1.14,1.29a2.82,2.82,0,0,0,1.43-.32h.06v4.33a9.5,9.5,0,0,1-3.37.59c-1.61,0-2.81-.27-3.48-1.06a4.84,4.84,0,0,1-.93-3.33v-7.09Z"/><path class="cls-2" d="M396.79,187.2a5,5,0,0,0-4.22,1.87l-3.24-2.69a10.39,10.39,0,0,1,8.07-3.22c3.25,0,6.7.73,6.7,4.88v5.71c0,1.35.41,1.64,1.15,1.64a1.55,1.55,0,0,0,.76-.15h.11l-1,3.34a6.52,6.52,0,0,1-2.05.35c-1.4,0-3.13-.41-3.69-2a6.24,6.24,0,0,1-5.18,2.25c-3,0-5.15-1.31-5.15-4.33,0-4.36,4.39-5.21,10.16-5.53C399.19,187.72,398.9,187.2,396.79,187.2Zm2.52,5.21c-3.19,0-5.27.61-5.27,2,0,.77.64,1.09,1.49,1.09C397.11,195.51,399.31,194.42,399.31,192.41Z"/><path class="cls-2" d="M408.59,183.57h5.15l-.06,2.66a5.78,5.78,0,0,1,5.35-3.07c2.93,0,4.92,1.46,4.92,5.12V198.7H418.8v-8.64c0-1.52-.53-2.54-2.08-2.54-1.93,0-3,1-3,4.24v6.94h-5.15Z"/><path class="cls-2" d="M426.56,191.32c0-5.09,3.37-8.16,7.93-8.16,3.81,0,6.09,1.64,7.35,4.68l-4.16,2c-.5-1.44-1.37-2.55-3-2.55-1.88,0-2.9,1.2-2.9,3.81s1,4,2.93,4c1.58,0,2.57-1.06,3-2.76l4.36,1.91c-1.2,3.16-3.69,4.88-7.52,4.88C430,199.22,426.56,196.33,426.56,191.32Z"/><path class="cls-2" d="M451.56,195.19c1.58,0,2.78-.36,3.48-1.85l4.36,1.38c-1.41,3-4.13,4.5-7.79,4.5-4.74,0-8.19-2.89-8.19-7.9s3.25-8.16,8.11-8.16c3.77,0,8.48,2.16,7.9,9.22h-11A3,3,0,0,0,451.56,195.19Zm2.95-5.77c-.23-1.43-1.17-2.25-3-2.25-1.64,0-2.72.52-3.11,2.25Z"/><path class="cls-2" d="M468.51,187.63c0-6.61,4.68-11.47,11.56-11.47,5.35,0,8.25,2.31,10,5.74l-4.75,2.87a5.1,5.1,0,0,0-5.18-3.63c-3.42,0-5.7,2.16-5.7,6.47s2.34,6.61,5.76,6.61a5.67,5.67,0,0,0,5.36-3.83l4.89,2.89c-1.85,3.31-4.75,5.94-10.25,5.94C472.57,199.22,468.51,194.25,468.51,187.63Z"/><path class="cls-2" d="M499.77,187.2a5,5,0,0,0-4.22,1.87l-3.25-2.69a10.42,10.42,0,0,1,8.08-3.22c3.25,0,6.7.73,6.7,4.88v5.71c0,1.35.41,1.64,1.15,1.64a1.55,1.55,0,0,0,.76-.15h.11l-1,3.34a6.52,6.52,0,0,1-2.05.35c-1.41,0-3.13-.41-3.69-2a6.24,6.24,0,0,1-5.18,2.25c-3,0-5.15-1.31-5.15-4.33,0-4.36,4.39-5.21,10.16-5.53C502.17,187.72,501.87,187.2,499.77,187.2Zm2.51,5.21c-3.19,0-5.26.61-5.26,2,0,.77.64,1.09,1.49,1.09C500.09,195.51,502.28,194.42,502.28,192.41Z"/><path class="cls-2" d="M511.56,183.57h5.16l-.06,1.84a4,4,0,0,1,3.42-2.11,3.56,3.56,0,0,1,2.55.82l-2.08,4.63h-.06a2,2,0,0,0-1.67-.71c-1.46,0-2.1.88-2.1,2.84v7.82h-5.16Z"/><path class="cls-2" d="M531.26,195.19c1.58,0,2.78-.36,3.49-1.85l4.36,1.38c-1.41,3-4.13,4.5-7.79,4.5-4.74,0-8.19-2.89-8.19-7.9s3.25-8.16,8.1-8.16c3.78,0,8.49,2.16,7.91,9.22h-11A3.05,3.05,0,0,0,531.26,195.19Zm3-5.77c-.23-1.43-1.17-2.25-3-2.25-1.63,0-2.72.52-3.1,2.25Z"/><path class="cls-2" d="M301.77,210.51h7.76c6,0,9,4.25,9,9.6s-2.08,9.69-9,9.69h-7.71Zm3.51,16.19h4.43c3.28,0,5.25-2.15,5.25-6.61,0-4-1.94-6.46-5.27-6.46h-4.41Z"/><path class="cls-2" d="M329.87,220.6c0-1.64-1-2.1-2.56-2.1a3.6,3.6,0,0,0-3.67,2.08l-2.28-1.49c1.23-2.36,3.39-3.25,6.28-3.25s5.3,1.38,5.3,4.71v5.92c0,1.05.82,1.15,1.64.95h.05l-.43,2.51a12,12,0,0,1-1.51.1,2.5,2.5,0,0,1-2.69-2c-.82,1.23-2,2-4.41,2s-4.56-1-4.56-3.87c0-3.48,3-4.56,8.84-5ZM324,226c0,1,.69,1.51,2,1.51,2.05,0,3.84-1.25,3.84-3.17v-.82C326.36,223.75,324,224.14,324,226Z"/><path class="cls-2" d="M335.3,216.12h3.28l3,9.38,2.84-9.38h3l-4.89,15.17a6,6,0,0,1-1.87,2.81,4.48,4.48,0,0,1-2.69.77,5.22,5.22,0,0,1-2.56-.56l.79-2.59h0a2,2,0,0,0,1.33.41,1.88,1.88,0,0,0,1.95-1.36l.46-1.15Z"/><path class="cls-2" d="M361.48,214.56V229.8h-2.92V219.55a6.15,6.15,0,0,1-2.93,1.08v-2.49a4.43,4.43,0,0,0,3.8-3.58Z"/><path class="cls-2" d="M372.13,214.27c4,0,7.2,2.59,7.2,7.84s-2.9,8-7.17,8-7.15-2.74-7.15-8C365,217.09,368.21,214.27,372.13,214.27Zm-4,7.87c0,4,1.51,5.38,4,5.38s4.1-1.41,4.1-5.43c0-3.69-1.64-5.23-4.13-5.23S368.11,218.68,368.11,222.14Z"/><path class="cls-2" d="M388.6,221.19h6.86v3H388.6Z"/><path class="cls-2" d="M405.32,221.7a16.51,16.51,0,0,1,6.31-12.83l1.81,1.71a15.21,15.21,0,0,0-4.58,11.12,15.53,15.53,0,0,0,4.58,11.1l-1.81,1.71C408.35,231.57,405.32,227.67,405.32,221.7Z"/><path class="cls-2" d="M423.2,211.17a5.77,5.77,0,0,1,5.59,3.44l-2.36,1.59a3.29,3.29,0,0,0-3.38-2.44c-2.49,0-3.95,2.36-4.25,6a5,5,0,0,1,4.2-2.1,5.71,5.71,0,0,1,6,6,6.18,6.18,0,0,1-6.48,6.5,6.29,6.29,0,0,1-5.15-2.36,9.77,9.77,0,0,1-1.61-5.84C415.8,215.71,418.46,211.17,423.2,211.17Zm-4.27,12.66a3.52,3.52,0,0,0,3.63,3.69c2.13,0,3.44-1.59,3.44-3.77,0-2.35-1.34-3.64-3.41-3.64A3.36,3.36,0,0,0,418.93,223.83Z"/><path class="cls-2" d="M438.65,214.27c4,0,7.2,2.59,7.2,7.84s-2.9,8-7.18,8-7.14-2.74-7.14-8C431.53,217.09,434.73,214.27,438.65,214.27Zm-4,7.87c0,4,1.51,5.38,4,5.38s4.1-1.41,4.1-5.43c0-3.69-1.64-5.23-4.13-5.23S434.63,218.68,434.63,222.14Z"/><path class="cls-2" d="M455.12,221.19H462v3h-6.86Z"/><path class="cls-2" d="M477.45,233.21a6.2,6.2,0,0,1-5.92-3.85L474,228c.77,1.62,1.59,2.59,3.59,2.59,2.54,0,3.89-2.33,4.25-6.2a4.79,4.79,0,0,1-4.25,2c-3.43,0-6.15-2.07-6.15-5.81s2.61-6.36,6.58-6.36c4.64,0,6.87,3.21,6.87,8C484.88,228.7,482.65,233.21,477.45,233.21Zm4.13-12.74c0-2.15-1.08-3.63-3.59-3.63s-3.49,1.56-3.49,3.66c0,2.41,1.18,3.48,3.39,3.48C480.47,224,481.58,222.63,481.58,220.47Z"/><path class="cls-2" d="M494.56,214.27c4,0,7.2,2.59,7.2,7.84s-2.89,8-7.17,8-7.15-2.74-7.15-8C487.44,217.09,490.64,214.27,494.56,214.27Zm-4,7.87c0,4,1.51,5.38,4,5.38s4.1-1.41,4.1-5.43c0-3.69-1.64-5.23-4.12-5.23S490.54,218.68,490.54,222.14Z"/><path class="cls-2" d="M504.11,232.8a15.54,15.54,0,0,0,4.59-11.1,15.18,15.18,0,0,0-4.59-11.12l1.82-1.71a16.5,16.5,0,0,1,6.3,12.83c0,6-3,9.87-6.3,12.81Z"/><g class="cls-3"><path class="cls-4" d="M1915.37,52.57v6.82c0,47.57-47.57,47.57-47.57,47.57H1301V5H1867.8c47.57,0,47.57,47.57,47.57,47.57"/></g><rect class="cls-5" x="733.86" y="5" width="338.35" height="101.96"/><rect class="cls-6" x="1186.3" y="5" width="114.72" height="101.96"/><rect class="cls-7" x="1072.21" y="5" width="114.72" height="101.96"/><rect class="cls-8" x="144.75" y="5" width="589.11" height="101.96"/><g class="cls-3"><path class="cls-9" d="M203.3,5V107h-150C3,107,3,59.39,3,59.39V52.57C3,5,53.29,5,53.29,5Z"/></g><path class="cls-2" d="M878.78,160.32h-5.73V138.19h11.88c5.73,0,8,2.93,8,7.23,0,3.86-2.23,6.73-7.38,6.73h-6.76Zm5.8-12.76c2.19,0,2.78-.85,2.78-2.4,0-1.38-.62-2.26-2.75-2.26h-5.83v4.66Z"/><path class="cls-2" d="M893.92,152.94c0-5.09,3.39-8.16,8.13-8.16a7.68,7.68,0,0,1,8.08,8c0,5.12-3.39,8.07-8.11,8.07S893.92,158,893.92,152.94ZM905,152.8c0-2.55-1-3.84-2.93-3.84s-2.95,1.2-2.95,3.81,1,4,2.95,4S905,155.31,905,152.8Z"/><path class="cls-2" d="M911,158.06l2.69-3a7.15,7.15,0,0,0,5.3,1.78c2,0,2.4-.38,2.4-1,0-.85-.58-.7-3.39-1-3.78-.44-6.3-1.41-6.3-5.07s3.16-4.94,7.15-4.94a12.91,12.91,0,0,1,6.93,1.61l-2.34,3.39a7.9,7.9,0,0,0-4.77-1.23c-2,0-2.25.5-2.25.94s.44.82,2.81,1c3.42.27,7.19,1,7.19,5,0,3.63-2.75,5.21-7.22,5.21C915.46,160.76,912.86,159.82,911,158.06Z"/><path class="cls-2" d="M927.61,149.26v-4.07h2.46v-2.11a32.9,32.9,0,0,0,4.91-3.86h.24v6h3.1v4.07h-3.1v5.58c0,.82.23,1.29,1.14,1.29a2.82,2.82,0,0,0,1.43-.32h.06v4.33a9.44,9.44,0,0,1-3.36.59c-1.61,0-2.81-.27-3.49-1.06a4.84,4.84,0,0,1-.93-3.33v-7.08Z"/><path class="cls-2" d="M947.19,142.76v-4.57H967v4.57h-6.82v17.56h-5.74V142.76Z"/><path class="cls-2" d="M966.75,145.19h5.15l-.06,1.84a4,4,0,0,1,3.42-2.11,3.56,3.56,0,0,1,2.55.82l-2.08,4.63h-.06a2,2,0,0,0-1.67-.71c-1.46,0-2.1.88-2.1,2.84v7.82h-5.15Z"/><path class="cls-2" d="M986.44,156.81c1.59,0,2.78-.36,3.49-1.85l4.36,1.38c-1.41,3-4.13,4.5-7.79,4.5-4.74,0-8.19-2.89-8.19-7.9s3.25-8.16,8.11-8.16c3.77,0,8.48,2.16,7.9,9.22h-11A3.06,3.06,0,0,0,986.44,156.81Zm3-5.77c-.23-1.43-1.17-2.25-3-2.25-1.64,0-2.73.52-3.11,2.25Z"/><path class="cls-2" d="M1003.71,148.82a5,5,0,0,0-4.21,1.87L996.25,148a10.4,10.4,0,0,1,8.08-3.22c3.25,0,6.7.73,6.7,4.88v5.71c0,1.35.41,1.64,1.14,1.64a1.53,1.53,0,0,0,.76-.15h.12l-1,3.34a6.52,6.52,0,0,1-2,.35c-1.41,0-3.13-.41-3.69-2a6.24,6.24,0,0,1-5.18,2.25c-3,0-5.15-1.31-5.15-4.33,0-4.36,4.39-5.21,10.15-5.53C1006.11,149.34,1005.82,148.82,1003.71,148.82Zm2.52,5.21c-3.19,0-5.27.61-5.27,2,0,.76.65,1.08,1.5,1.08C1004,157.13,1006.23,156.05,1006.23,154Z"/><path class="cls-2" d="M1013.67,149.26v-4.07h2.46v-2.11a32.9,32.9,0,0,0,4.91-3.86h.24v6h3.1v4.07h-3.1v5.58c0,.82.23,1.29,1.14,1.29a2.82,2.82,0,0,0,1.43-.32h.06v4.33a9.44,9.44,0,0,1-3.36.59c-1.61,0-2.81-.27-3.49-1.06a4.84,4.84,0,0,1-.93-3.33v-7.08Z"/><path class="cls-2" d="M1036.47,160.32v-8.75c0-1.7-.64-2.43-1.9-2.43-1.73,0-2.43,1.08-2.43,3.66v7.52H1027V145.19h5.15l-.06,2.34a5,5,0,0,1,4.51-2.75c2.1,0,3.8.61,4.56,2.46a5.54,5.54,0,0,1,4.89-2.46c2.93,0,5.06,1.23,5.06,5.09v10.45H1046v-8.75c0-1.7-.64-2.43-1.9-2.43-1.73,0-2.43,1.08-2.43,3.66v7.52Z"/><path class="cls-2" d="M1061.85,156.81c1.58,0,2.78-.36,3.48-1.85l4.36,1.38c-1.4,3-4.12,4.5-7.78,4.5-4.74,0-8.2-2.89-8.2-7.9s3.25-8.16,8.11-8.16c3.77,0,8.49,2.16,7.9,9.22h-11A3,3,0,0,0,1061.85,156.81Zm3-5.77c-.23-1.43-1.17-2.25-3-2.25-1.64,0-2.72.52-3.1,2.25Z"/><path class="cls-2" d="M1072.48,145.19h5.15l-.06,2.66a5.78,5.78,0,0,1,5.35-3.07c2.93,0,4.92,1.46,4.92,5.12v10.42h-5.15v-8.64c0-1.52-.53-2.54-2.08-2.54-1.93,0-3,1-3,4.24v6.94h-5.15Z"/><path class="cls-2" d="M1090,149.26v-4.07h2.46v-2.11a33.46,33.46,0,0,0,4.92-3.86h.23v6h3.1v4.07h-3.1v5.58c0,.82.23,1.29,1.14,1.29a2.82,2.82,0,0,0,1.43-.32h.06v4.33a9.44,9.44,0,0,1-3.36.59c-1.61,0-2.81-.27-3.49-1.06a4.84,4.84,0,0,1-.93-3.33v-7.08Z"/><path class="cls-2" d="M873.07,172.13h7.76c6,0,9,4.25,9,9.61,0,5.2-2.07,9.68-9,9.68h-7.71Zm3.51,16.19H881c3.28,0,5.26-2.15,5.26-6.61,0-4-1.95-6.46-5.28-6.46h-4.41Z"/><path class="cls-2" d="M901.17,182.22c0-1.64-1-2.1-2.56-2.1A3.58,3.58,0,0,0,895,182.2l-2.28-1.49c1.23-2.36,3.38-3.25,6.27-3.25s5.31,1.38,5.31,4.71v5.92c0,1,.82,1.15,1.64.95h.05l-.44,2.51a12,12,0,0,1-1.51.1,2.51,2.51,0,0,1-2.69-2c-.82,1.23-2,2-4.41,2s-4.56-1-4.56-3.87c0-3.48,3-4.56,8.84-5Zm-5.84,5.38c0,1,.69,1.51,2,1.51,2,0,3.84-1.25,3.84-3.17v-.82C897.66,185.37,895.33,185.76,895.33,187.6Z"/><path class="cls-2" d="M906.6,177.74h3.28l3,9.38,2.85-9.38h3l-4.89,15.17a5.88,5.88,0,0,1-1.87,2.81,4.48,4.48,0,0,1-2.69.77,5.25,5.25,0,0,1-2.56-.56l.79-2.59h.05a2,2,0,0,0,1.34.41,1.87,1.87,0,0,0,1.94-1.36l.46-1.15Z"/><path class="cls-2" d="M933,194.83a6.17,6.17,0,0,1-5.91-3.85l2.46-1.33c.76,1.62,1.58,2.59,3.58,2.59,2.54,0,3.9-2.33,4.26-6.2a4.8,4.8,0,0,1-4.26,2c-3.43,0-6.15-2.07-6.15-5.81s2.62-6.36,6.59-6.36c4.63,0,6.86,3.21,6.86,8.05C940.46,190.32,938.23,194.83,933,194.83Zm4.13-12.74c0-2.15-1.08-3.63-3.59-3.63-2.35,0-3.48,1.56-3.48,3.66,0,2.41,1.18,3.48,3.38,3.48C936.06,185.6,937.16,184.25,937.16,182.09Z"/><path class="cls-2" d="M950.14,175.89c4,0,7.2,2.59,7.2,7.84s-2.89,8-7.17,8-7.15-2.74-7.15-8S946.22,175.89,950.14,175.89Zm-4,7.87c0,4,1.51,5.38,4,5.38s4.1-1.41,4.1-5.43c0-3.69-1.64-5.23-4.12-5.23S946.12,180.3,946.12,183.76Z"/><path class="cls-2" d="M966.61,182.81h6.87v3h-6.87Z"/><path class="cls-2" d="M983.34,183.32a16.5,16.5,0,0,1,6.3-12.83l1.82,1.72a15.15,15.15,0,0,0-4.59,11.11,15.52,15.52,0,0,0,4.59,11.1l-1.82,1.71C986.36,193.19,983.34,189.29,983.34,183.32Z"/><path class="cls-2" d="M996.12,189.14c.56,1.84,1.43,3,3.84,3s3.18-1.43,3.18-3-.87-2.74-3-2.74h-1.41v-2.58h1.59c1.66,0,2.43-.9,2.43-2.54a2.47,2.47,0,0,0-2.76-2.79c-2,0-2.87,1.17-3.39,2.84l-2.66-1c.79-2.85,2.94-4.39,6.12-4.39,3.79,0,5.74,2.13,5.74,5.33a3.87,3.87,0,0,1-2.38,3.69,4.42,4.42,0,0,1,2.89,4.31c0,3.51-2.25,5.61-6.22,5.61-3.74,0-5.89-1.92-6.74-4.66Z"/><path class="cls-2" d="M1015.46,182.81h6.86v3h-6.86Z"/><path class="cls-2" d="M1039.25,172.8a5.76,5.76,0,0,1,5.59,3.43l-2.36,1.59a3.3,3.3,0,0,0-3.38-2.44c-2.49,0-3.95,2.36-4.26,6a5,5,0,0,1,4.21-2.1,5.71,5.71,0,0,1,6,6,6.17,6.17,0,0,1-6.48,6.5,6.3,6.3,0,0,1-5.15-2.35,9.79,9.79,0,0,1-1.61-5.85C1031.85,177.33,1034.51,172.8,1039.25,172.8ZM1035,185.45a3.52,3.52,0,0,0,3.64,3.69c2.13,0,3.43-1.59,3.43-3.77,0-2.35-1.33-3.63-3.4-3.63A3.35,3.35,0,0,0,1035,185.45Z"/><path class="cls-2" d="M1070.53,177.46a4.59,4.59,0,0,1,4.61,5v9h-3.08v-8.28c0-1.84-.64-3-2.4-3-1.93,0-3.28,1.28-3.28,4.1v7.2h-3.08v-8.28c0-1.84-.64-3-2.41-3-1.92,0-3.27,1.28-3.27,4.1v7.2h-3.08V177.74h3.08l-.06,2.2a4.49,4.49,0,0,1,4.21-2.48,4.36,4.36,0,0,1,4,2.56A5,5,0,0,1,1070.53,177.46Z"/><path class="cls-2" d="M1091.07,184.55c0,4.67-2.46,7.2-6.53,7.2s-6.54-2.84-6.56-7.12c0-4.53,2.74-7.22,6.56-7.22S1091.09,180.15,1091.07,184.55Zm-10-.17c0,2.76.89,4.91,3.45,4.91,2.75,0,3.54-1.94,3.54-4.71s-1-4.74-3.46-4.74S1081,181.68,1081,184.38Z"/><path class="cls-2" d="M1097.11,177.74l0,2.2a4.53,4.53,0,0,1,4.28-2.48,4.64,4.64,0,0,1,4.69,5v9H1103v-8.28c0-1.84-.71-3-2.48-3-1.92,0-3.36,1.28-3.36,4.1v7.2H1094V177.74Z"/><path class="cls-2" d="M1113.71,188c0,.66.38,1,1.1,1a2.69,2.69,0,0,0,1.79-.51h.08l-.18,2.79a5.38,5.38,0,0,1-2.28.41c-2.23,0-3.59-1.2-3.59-3.79v-7.61h-2.35v-2.61h2.35v-2a15.58,15.58,0,0,0,3-2.66h.08v4.61h2.87v2.61h-2.87Z"/><path class="cls-2" d="M1122.7,172v7.87a4.45,4.45,0,0,1,4.22-2.41,4.64,4.64,0,0,1,4.69,5v9h-3.07v-8.28c0-1.84-.72-3-2.49-3s-3.35,1.28-3.35,4.1v7.2h-3.08V172Z"/><path class="cls-2" d="M1145.78,180.28l-2.21,1.66a3.84,3.84,0,0,0-3.45-1.92c-1.72,0-2.44.51-2.44,1.38,0,1.08,1,1.31,3.13,1.59,2.64.36,5.27,1.13,5.27,4.41,0,2.48-1.46,4.28-5.5,4.28-3.18,0-5.31-1.31-6.36-3.59l2.36-1.38a4.14,4.14,0,0,0,4,2.35c1.46,0,2.58-.41,2.58-1.53s-.92-1.31-3.17-1.69c-2.74-.47-5.18-1.06-5.18-4.36,0-2.82,2.31-4,5.2-4A6.44,6.44,0,0,1,1145.78,180.28Z"/><path class="cls-2" d="M1148.28,194.42a15.48,15.48,0,0,0,4.59-11.1,15.15,15.15,0,0,0-4.59-11.11l1.82-1.72a16.51,16.51,0,0,1,6.31,12.83c0,6-3,9.87-6.31,12.81Z"/><path class="cls-2" d="M874.71,68.05H869V45.92h11.89c5.73,0,8,2.93,8,7.23,0,3.86-2.23,6.73-7.38,6.73h-6.76Zm5.79-12.76c2.2,0,2.79-.85,2.79-2.41,0-1.37-.62-2.25-2.76-2.25h-5.82v4.66Z"/><path class="cls-2" d="M897.89,58.91v9.14h-5.73V45.92h5.73v8.34h10.28V45.92h5.73V68.05h-5.73V58.91Z"/><path class="cls-2" d="M924.56,68.05h-5.74V45.92h11.89c5.73,0,8,2.93,8,7.23,0,3.86-2.23,6.73-7.38,6.73h-6.76Zm5.8-12.76c2.19,0,2.78-.85,2.78-2.41,0-1.37-.62-2.25-2.76-2.25h-5.82v4.66Z"/><path class="cls-2" d="M1101.69,45.92h5.74V68.05h-5.74Z"/><path class="cls-2" d="M1111.18,57c0-6.61,5.41-11.47,11.94-11.47s11.94,4.42,11.94,11.3c0,6.67-4.86,11.76-12.09,11.76S1111.18,63.6,1111.18,57Zm17.94,0c0-4.3-2.49-6.49-6-6.49s-6,2.19-6,6.49,2.4,6.56,6,6.56S1129.12,61.2,1129.12,57Z"/><path class="cls-2" d="M1144.43,68.05h-5.74V45.92h11.88c5.74,0,8,2.93,8,7.23,0,3.86-2.22,6.73-7.37,6.73h-6.76Zm5.79-12.76c2.2,0,2.78-.85,2.78-2.41,0-1.37-.61-2.25-2.75-2.25h-5.82v4.66Z"/><path class="cls-2" d="M1220.13,57c0-6.61,5.41-11.47,11.94-11.47S1244,49.93,1244,56.81c0,6.67-4.86,11.76-12.09,11.76S1220.13,63.6,1220.13,57Zm17.94,0c0-4.3-2.49-6.49-6-6.49s-6,2.19-6,6.49,2.4,6.56,6,6.56S1238.07,61.2,1238.07,57Z"/><path class="cls-2" d="M1253.38,68.05h-5.74V45.92h11.89c5.73,0,8,2.93,8,7.23,0,3.86-2.22,6.73-7.37,6.73h-6.76Zm5.79-12.76c2.2,0,2.78-.85,2.78-2.41,0-1.37-.61-2.25-2.75-2.25h-5.82v4.66Z"/></svg>