<svg id="Layer_1" data-name="Layer 1" xmlns="http://www.w3.org/2000/svg" xmlns:xlink="http://www.w3.org/1999/xlink" viewBox="0 0 430.37 475.27"><defs><style>.cls-1{fill:none;}.cls-2{clip-path:url(#clip-path);}.cls-3{fill:#80ff73;}</style><clipPath id="clip-path"><rect class="cls-1" width="430.37" height="475.27"/></clipPath></defs><title>SBL_blog</title><g class="cls-2"><path class="cls-3" d="M378.13,298.19a142.65,142.65,0,0,1-7,38.77c-4.38,13.88-16.59,42.46-16,42.77-2.9,5.37-5.54,10.91-8.76,16.08-8,12.93-15.62,26.22-24.72,38.37-7.85,10.49-17.12,20.06-26.69,29.05-2.48,2.34-8.51,1.75-12.74,1.2a264.52,264.52,0,0,1-28-5.18c-2.52-.6-6.19-3.55-6.29-5.57-.19-4.13.27-10.29,2.93-12.24,22-16.16,38.15-37.26,51.67-60.46,10.91-18.74,21.09-37.91,31.09-57.15,5.25-10.1,5.91-21.49,5.23-32.55-1.7-27.42-5.37-54.69-13.8-80.88-5-15.65-12-30.75-18.87-45.73-7.18-15.62-15-31-23.16-46.1-5.14-9.57-11.56-18.45-17-27.84-2.83-4.85-4.5-10.38-7.41-15.17C255.46,70.44,251.36,66,248,61c-1.79-2.68-4.29-6.05-3.87-8.71.35-2.21,4.26-4.3,7-5.58,3.62-1.69,7.63-2.59,11.49-3.74,10.77-3.23,17.57,4.19,23.64,10.41a250.77,250.77,0,0,1,27.07,32.58,420.26,420.26,0,0,1,26,43.67c5.85,11.2,9.83,23.37,14.6,35.13,4.11,10.11,9,20,12.08,30.42,4.64,15.56,8.35,31.42,11.81,47.3,1.46,6.67,1.27,13.71,1.83,20.58-.56,0-1.16,23.65-1.56,35.17"/><path class="cls-3" d="M245.45,296.5c-.78,7-1.2,15.4-2.75,23.58-2,10.3-4.87,20.42-7.32,30.63C231.83,365.51,222.84,377,213,388c-5.4,6-10.91,11.89-16.36,17.84-2.35,2.56-4.64,3.32-8.48,2.33-5.09-1.33-10.68-.55-16-1.37-6-.93-12.14-2-17.75-4.24-2.79-1.1-5.89-4.63-6.38-7.48-.52-3.08.95-7.47,3.12-9.85,14.66-16,32.21-30.09,39.15-51.55a180.69,180.69,0,0,0,8-40.42,260.62,260.62,0,0,0-.09-48.86c-1.38-13-6-25.71-9.9-38.35a258.28,258.28,0,0,0-11.08-30.27c-7-15.5-14.89-30.57-22.17-45.93a140.31,140.31,0,0,1-6.71-17.12c-1.29-4,2.51-9.14,7.19-9.44a197.06,197.06,0,0,1,24.54-.29c3,.19,7,2.1,8.68,4.51,10,14.58,21.83,28.14,28.23,45,6.24,16.37,12.48,32.75,18.11,49.33,3.53,10.41,6.77,21,8.6,31.85s2,21.67,2.31,32.54c.26,9.64-.31,19.29-.54,30.31"/><path class="cls-3" d="M118.79,318.14c-2,2.49-4.57,4.42-5.19,6.86-2.88,11.3-4.31,13.62-16.06,12.89-10.22-.64-20.43-3.25-30.37-6-6.29-1.73-7.43-13.45-1.13-18.13,11.44-8.49,15.82-20.54,19.32-33.22,4-14.29,4.52-29-.24-43-4.24-12.42-10.23-24.33-16.4-36-2.28-4.3-6.94-7.64-11.13-10.53-3.92-2.69-6.89-5.34-5.62-10.37,1.53-6,6.14-9.33,11.73-8.39,10.5,1.75,21,3.48,31.4,5.72a12.62,12.62,0,0,1,7.21,4.64c7.11,10.52,14,21.21,20.44,32.16,2.29,3.89,3.3,8.61,4.53,13.05,2.09,7.58,4.34,15.16,5.66,22.89.9,5.22.41,10.68.32,16,0,1-1,2.07-1.68,3s-2.14,2.08-2.29,3.23a155.5,155.5,0,0,1-10.5,39.39c-.74,1.78,0,4.16,0,5.68"/></g></svg>