<svg id="Layer_1" data-name="Layer 1" xmlns="http://www.w3.org/2000/svg" viewBox="0 0 374.35 292.54"><defs><style>.cls-1{fill:#80ff73;}</style></defs><title>SBL_blog</title><path class="cls-1" d="M353.5,144.46c0-.51,0-1,0-1.52,0,.5,0,1,0,1.52,2.95.89,5.12,2.22,5.14,4.77,0-2.55-2.19-3.88-5.14-4.77m0-2.64a11.31,11.31,0,0,1-2.35-2.92,11.31,11.31,0,0,0,2.35,2.92Zm-16.67,67.81a18.54,18.54,0,0,1-1.26,5.76,18.54,18.54,0,0,0,1.26-5.76c1.46-.78,3.23-.71,5-.67-1.78,0-3.55-.11-5,.67m-.1-10.62a2.56,2.56,0,0,1,1.3-1.19,2.56,2.56,0,0,0-1.3,1.19h0m-3,0-1.49-1.53,1.49,1.53,0,1.52,0-1.52m-21.26-16.77c-.81.25-2,.24-1.3,1.65l-1.58,1.65a41.77,41.77,0,0,0-12.28,8.76C272,212.18,244.43,224.75,214.13,231c-11.38,2.35-22.94,3.83-34.43,5.71A240.57,240.57,0,0,1,84.09,221c-10.76-4.11-21.5-9.29-30.2-17.45a1.65,1.65,0,0,1-1-.86l-3.22-2.22-1.38-1,0-.42h-.41l-4.18-4.21-.22-.29-1.47-2-3.11-4.12a3,3,0,0,0-1-3.07l-.06-5.93h0c.07-.73.13-1.46.2-2.19l0-.12c.58-5.52,5-10,4.5-15.79l1.8-4.36c1.49-.86,1-2.14.67-3.36.09-.52.19-1,.29-1.56.85-.1,1.14-.57.91-1.38.22-.5.44-1,.67-1.5,9-8.17,16.12-17.91,23.62-27.34l.33-.48c9.61-8,18.14-17.29,29.26-23.36,11.64-7.48,24.9-10.51,38-13.92,9.18-2.39,11.26-4.55,12.27-12,.09-.65.81-1.21,1.23-1.81a.83.83,0,0,0,.71-.48c4.16-1.26.23-4.74,1.84-6.71,4.38-.61,7.16-4.8,12-4.87,8.08-.1,16.14-.9,24.21-1.42,3.54.85,7.07,1.34,10.57-.18,3.82-.52,8,2.72,11.5-1,1,1.54,2.57,1.41,4.12,1.24,3.26,3.37,7.31,3.52,11.57,2.85l4.56,0c9.6,4.52,20.39,4.39,30.44,8.37,8,3.17,17.4,3.89,25.4,8.33a2.52,2.52,0,0,0,1.45.32c3.38,2.12,6.57,4.63,10.66,5.38l1.35.74a1.28,1.28,0,0,1,.33-.81h0a1.28,1.28,0,0,0-.33.81c14.05,7.77,26.15,17.71,34.94,31.34l0,.23c-.19,2.25,1.44,3.34,2.89,4.55q.22,7,.43,14h0L337.4,144.7c-.28,1-.55,2-.83,2.94-5.24,13.51-14.83,24-24.16,34.64m4.72,45.56c.35,2.87-2,4.48-3.65,6.31,1.66-1.83,4-3.44,3.65-6.31,5.76,1.46,9,2,10.83.72-1.86,1.25-5.07.74-10.83-.72m-6-37.9c-.05-.5-.09-1-.12-1.49,0,.5.07,1,.12,1.49a4.14,4.14,0,0,1,3.48,2.5,4.14,4.14,0,0,0-3.48-2.5m-2.51,15.53h0c.21.09.44.24.66.35-.22-.11-.45-.26-.66-.35m-2.1-11-4.5.07,4.5-.08Zm-36.28,58.12a16.09,16.09,0,0,1,4.59,3.94,16.23,16.23,0,0,0-4.59-3.94m-40.74-20.34h0c.19,1,.37,1.93.56,2.72-.19-.79-.37-1.7-.56-2.72m-.75,11.82c.11-.21.26-.45.35-.66h0c-.09.2-.24.44-.35.65m-4.7.68h0l.59.32-.59-.32m-18.16,26.08-1.07-.1,1.08.1h0M202.32,279a8.6,8.6,0,0,0,1.87.08,8.6,8.6,0,0,1-1.87-.08m-40.86-1.28c-.58-.23-1.62-.39-1.66-.69,0,.3,1.08.46,1.67.69a9.42,9.42,0,0,0,4.17,1.41,9.5,9.5,0,0,1-4.18-1.41M144,265.85l.54-1.25h0l-.54,1.25m-1.68-11.51c.09-.21.23-.44.34-.66-.11.22-.25.45-.34.66Zm-1.15,4.85c.07.22.12.46.2.65h0c-.08-.19-.13-.43-.2-.65m-3.79,16.9c-1.46-.6-3.12,0-4.73.31,1.61-.28,3.27-.91,4.73-.31a28.27,28.27,0,0,0,8.67,1.66,28.27,28.27,0,0,1-8.67-1.66m-9.1-1.51-3,0,3,0a3.48,3.48,0,0,0,3.19,1.94,3.48,3.48,0,0,1-3.19-1.94M64.9,248.85c-.76-1.07-1.49-2.2-2.23-3.31.74,1.11,1.47,2.24,2.23,3.31l1.51,0-1.51,0M40.3,92.37h0c-.08.17-.19.35-.29.53a5.48,5.48,0,0,0,.28-.53m2.89,64.19a2.81,2.81,0,0,0,.93.38,2.81,2.81,0,0,1-.93-.38ZM52,138.64a22.28,22.28,0,0,0-5.71,9.13h0A22.41,22.41,0,0,1,52,138.64M72.17,76a1.76,1.76,0,0,1-.63,1.35,1.78,1.78,0,0,0,.63-1.34c-.09-1-.42-2-1.62-2.06,1.2.1,1.53,1,1.62,2.05M84.69,98.52c-1.86,1.12-3.36,2.5-3.14,5.45-.22-3,1.28-4.33,3.14-5.45M151,28.39h0a6.71,6.71,0,0,0-1.7-.48,6.9,6.9,0,0,1,1.71.48m1.5,24.08a27.28,27.28,0,0,0,13.12,1.31,27.28,27.28,0,0,1-13.12-1.31ZM177.58,34h0c-.21-.09-.45-.24-.66-.35.21.11.45.26.66.35m23.26-10.2h0m4.2-.09a13.74,13.74,0,0,1-4.2.09,13.74,13.74,0,0,0,4.2-.09M305.18,76.59c-1.74.44-3.12,1.16-3.19,3.35.07-2.19,1.45-2.91,3.19-3.35m34.57,123.92,0,0ZM18,117.42a6.3,6.3,0,0,0,2.68-.49,6.27,6.27,0,0,1-2.68.49m346.07,37.84c1.26-8.14-3.48-15-4.67-22.69-.1-.5-.21-1-.31-1.5-5.47-40.37-24.84-72.47-58-95.92-6.38-4.51-12.68-10.55-21.72-9.68a2.79,2.79,0,0,0-1.3-.55,65.32,65.32,0,0,0-36.35-13.25c-.23-.82-.66-1.24-1.55-.84L237,10.64c-11.17-2.41-22.42-3.85-33.87-2.8-2.4.22-6.36,0-6.42,2.26-.27,10.53-8.66,7.72-13.46,7.36-4.2-.31-8.41-.89-12.68-.54l-2.36-.48-2.1.23c-1.65-.23-4.75-.41-4.76-.72-.55-12.31-6.92-2.08-10.08-4-.37,4.28,7.34,3.14,3.56,7.1-2.79,2.92-7.27,5.65-11.82,5.11-6.15-.73-11.07,1.75-16.12,4.39-4.31-.73-8.12,1-12.09,2.24-6,1.89-12,4.59-18.58,3.78.47-1.59,2.55-3,1-4.79-1.65-2-2.3.86-3.57,1.09C80.35,33.29,69.94,42.2,57.6,47c2.32.36,3.56,4,6.66,1.44,1.44-1.18,2.45.67,1.9,2.49-7.9,8.3-18,14.35-24.52,24.06a.66.66,0,0,0-.92.57c-.49.28-2-.62-1.24,1.12L28.87,90.3a.48.48,0,0,0-.71.4l-10,18c-3.55,2.75-3.17,7.23-4.24,10.85-5.13,17.23-6.24,34.64-.21,52l.08.27A4.61,4.61,0,0,0,15.2,176l0,.29c0,2.09-.18,4.21,1.39,5.93,1.37,3.63,1.56,7.78,4.67,10.65A7,7,0,0,0,23,199a40.94,40.94,0,0,0,8.76,18l.05.13c-.19,7.56,5.71,11.83,9.35,17.32l.41.54a15.82,15.82,0,0,0,6.39,7.37c3.47,5.45,8.54,9.07,14,12.28l.4.24a1.32,1.32,0,0,1,1,.9l1.44.73c10,9.94,22.79,14.52,35.72,18.66,4.32,1.38,8.59,6.79,13.8,1.59.85.87,1.7,1.75,2.57,2.6.7.67,1.31,1.5,2.52,1.07,5.36-1.91,6.36-2.07,9.64-.85a112.13,112.13,0,0,1,11.45,4.68c2.07,1,5.08,1.11,5.57.13,3.7-7.45,9.85-3.28,14.62-2.91,9.41.71,18.75,1.47,28.16.42l3-.3c10.66,1.37,20.88-2,31.33-2.91l.08.12c1.86,1.7,3.7,1.79,5.92.44,14.94-9.09,32.35-9.48,48.68-13.71-1.35.28-2.56.31-1.61-1.59.58-1.18,1.74-1.91,2.8-.78s-.3,1.63-1,2.25c5.31-2.45,10.31-5.37,13.59-10.39,2.22-3.4,5.94-6,9.09-4.89,5.36,1.83,8.32-1.07,12.1-3.28,12.66-7.38,21-19.28,31.34-29.15,9.46-9.07,16.05-19.29,18.22-32.26.16-.47.32-.93.48-1.41a75.6,75.6,0,0,0,1.9-19.84l-.66-8.91"/><path class="cls-1" d="M173.9,10.86c-3.21-1.12-6.17-.81-8.11,2.27-1.4,2.21,2.35,1,2.67,2.31,1.12-2.16,5.14-1.17,5.44-4.58"/><path class="cls-1" d="M168.46,15.44a2.62,2.62,0,0,0-.29,1h.09a1.38,1.38,0,0,0,.2-1"/></svg>