<svg id="Layer_1" data-name="Layer 1" xmlns="http://www.w3.org/2000/svg" xmlns:xlink="http://www.w3.org/1999/xlink" viewBox="0 0 333.34 350.13"><defs><style>.cls-1{fill:none;}.cls-2{clip-path:url(#clip-path);}.cls-3{fill:#80ff73;}</style><clipPath id="clip-path"><rect class="cls-1" x="5.13" y="5.39" width="323.07" height="339.34"/></clipPath></defs><title>SBL_blog</title><g class="cls-2"><path class="cls-3" d="M226.49,178.36q-42,36-84.15,71.93c-10.21,8.65-20.72,17-31.42,25-7.4,5.59-10.5,4.23-10.89-5q-3.07-70.5-5.63-141c-.32-8.69.12-17.44.23-26.15l3.19-3c44.67,23.25,89.34,46.47,135.42,70.44-3.1,3.59-4.68,5.93-6.75,7.72m53-51.08c-11.81-6.86-23.3-14.37-37.08-18.84-19-6.17-36.8-16.22-54.64-25.43-18.09-9.35-35.54-19.87-53.43-29.59C113.81,42.24,93,31.45,72.47,20.34a19.47,19.47,0,0,0-24.83,6.11A282.83,282.83,0,0,1,29,51.37C18.07,64,19.07,72.78,32.68,82.06c2.3,1.56,3.83,5.7,3.8,8.64-.23,25.88-1.4,51.76-1.3,77.64.09,24.28,1.51,48.57,2.08,72.86q.95,39.56,1.36,79.11c.08,7.74,5.86,15,13.37,15.92,18.88,2.23,37.69,4.84,56.61,6.64,3.57.34,8.27-1.48,11.05-3.84,17.71-14.94,34.57-30.8,52.56-45.4C208,264.53,244.35,236,280.54,207.34c4.85-3.85,9.67-8.21,15.3-10.56,8.47-3.5,12.34-8.67,12.65-17.51.27-7.9,1.91-15.76,3.31-26.4-9.52-7.75-19.84-18.38-32.29-25.59"/></g></svg>