<svg id="Layer_1" data-name="Layer 1" xmlns="http://www.w3.org/2000/svg" viewBox="0 0 569.14 266.89"><defs><style>.cls-1{fill:#80ff73;}</style></defs><title>SBL_svg-files</title><path class="cls-1" d="M45.73,256.94c-2.8,8.4-5.6,10.4-14,8-7.6-2-17.6-6.4-24-11.2-6.8-5.2-8-10.8-5.6-22,7.6-36.8,28.8-106.8,46.8-164.4-2.8-5.6-6.8-13.2-9.2-20-4-10-3.2-14.8,5.2-19.6,39.2-22,114.8-41.19,138.8-11.6,9.6,12,18.4,27.2,21.2,50,2.8,22.4-8.8,40-23.6,56-24,26.8-72.4,52.8-114.4,65.2C59.33,211.34,51.73,234.94,45.73,256.94Zm113.2-195.6c-1.2-8.8-24.4-9.2-49.6,2.4-7.2,19.2-15.2,42-23.6,66.4C134.93,112.14,161.73,77.34,158.93,61.34Z"/><path class="cls-1" d="M318.13,255.74c-2.4,8.8-5.2,10.4-13.6,8s-17.6-6-24.4-11.2-8-10.4-5.6-22c3.2-15.6,8.8-36.8,15.2-60-12.8,2-28.8,4.8-42.8,7.6-8.8,28.8-16.8,56-22.8,77.2-2.4,8.8-5.6,10.4-14,8-8-2.4-18-6.8-24.8-11.6-7.2-5.2-8.4-10.4-6-22,3.2-14.8,8.8-37.2,15.6-62.4-2.8-6.4-5.2-13.2-6-18-1.2-7.2-.4-9.6,6.4-11.6l8.4-2.4c12.8-45.2,27.2-93.2,37.2-120.4,4-10.39,8.8-11.6,17.2-8.39,8.8,3.19,21.2,9.59,28.4,15.19,8,6.4,8.8,10,5.6,19.2-7.6,20.4-18,50.8-28.4,83.6,13.6-1.6,30-3.2,40.4-4,12-40,24.8-80.8,34.8-109.6,3.6-10.8,8.8-11.19,17.6-8.39a92.3,92.3,0,0,1,26.8,14.39c7.2,5.6,8.4,10,5.2,19.2C368.93,90.14,338.93,184.54,318.13,255.74Z"/><path class="cls-1" d="M408.53,256.94c-2.8,8.4-5.6,10.4-14,8-7.6-2-17.6-6.4-24-11.2-6.8-5.2-8-10.8-5.6-22,7.6-36.8,28.8-106.8,46.8-164.4-2.8-5.6-6.8-13.2-9.2-20-4-10-3.2-14.8,5.2-19.6,39.2-22,114.79-41.19,138.79-11.6,9.6,12,18.4,27.2,21.2,50,2.8,22.4-8.8,40-23.6,56-24,26.8-72.39,52.8-114.39,65.2C422.13,211.34,414.53,234.94,408.53,256.94ZM521.72,61.34c-1.2-8.8-24.39-9.2-49.59,2.4-7.21,19.2-15.2,42-23.6,66.4C497.72,112.14,524.52,77.34,521.72,61.34Z"/></svg>