<svg xmlns="http://www.w3.org/2000/svg" xmlns:xlink="http://www.w3.org/1999/xlink" viewBox="499.139 20143.318 1253.603 888.73">
  <defs>
    <style>
      .cls-1 {
        fill: #80ff73;
      }

      .cls-2 {
        clip-path: url(#clip-path);
      }
    </style>
    <clipPath id="clip-path">
      <path id="Path_42" data-name="Path 42" class="cls-1" d="M0,361.363H1253.6v-888.73H0Z" transform="translate(0 527.367)"/>
    </clipPath>
  </defs>
  <g id="Group_88" data-name="Group 88" transform="translate(499.139 20143.318)">
    <g id="Group_86" data-name="Group 86" class="cls-2">
      <g id="Group_81" data-name="Group 81" transform="translate(0 0)">
        <path id="Path_37" data-name="Path 37" class="cls-1" d="M508.4,180.971c-3.278-16-5.866-32.181-13.777-46.728-9.286-17.078-19.87-33.305-33.335-47.483C451.22,76.155,441.567,65.048,427.612,59.2a.719.719,0,0,0-.826-.436,6.873,6.873,0,0,0-3.419-3.313l-1.325-1.34a12.479,12.479,0,0,0-7.193-4.237c-2.385-2-4.088-4.966-7.6-5.371l-1.419-.827c-.932-1.66-2.629-1.776-4.227-2.1l-.076-.042c-5.067-4.247-10.924-7.058-17.048-9.382l-.056-.034a21.013,21.013,0,0,0-7.417-3.409c-6.008-2.695-10.974-7.587-17.85-8.445a3.2,3.2,0,0,0-3.34-1.03c-.418-.249-.836-.5-1.252-.747-3.3-2.477-7.3-2.762-11.138-3.539a2.714,2.714,0,0,0-2.765-.728c-14.06-3.473-27.417-10.185-42.405-9.339,15.73,3.48,28.863,13.89,44.776,16.852l9.338,3.692.1.319.093-.28,4.259,1.754c.63,1.311,1.79,1.363,3.011,1.266,1.323,1.523,3.2,1.71,5,2.085.981,1.225,1.953,2.464,3.734,2.484l1.411.313,1.6,1.839a.452.452,0,0,0,.617.4.617.617,0,0,0,.774.671,348.813,348.813,0,0,1,43.234,28.671l.079.072c2.127,4.432,6.326,6.992,9.574,10.389a132.725,132.725,0,0,1,22.225,31.512q.326.723.656,1.446a68.8,68.8,0,0,0,2.319,7.391,149.821,149.821,0,0,1,10.957,84.027c-1.919,12.781-3.627,25.632-8.131,37.852a265.733,265.733,0,0,1-15.3,34.844,1.6,1.6,0,0,0-.878,2.054q-.4.829-.8,1.662-.731,1.3-1.459,2.6-.541.8-1.079,1.606c-.647.234-1.025.58-.529,1.288a1.37,1.37,0,0,0-.421,1.168l0-.04-.236-.039.216.071q-.559.832-1.116,1.665-.538.715-1.079,1.427a10.442,10.442,0,0,0-2.912,4.949c-4.039,6.547-7.84,13.435-12.511,19.356-10.639,13.482-21.38,26.952-33.217,39.468-3.367,3.561-7.986,5.991-9.98,10.816-2.027,1.08-3.106,3.035-4.41,4.783-1.78,1.3-4.179,1.926-4.815,4.461l-.9.888a4.335,4.335,0,0,1-.559,2.144,3.031,3.031,0,0,1-.893.94,3.031,3.031,0,0,0,.893-.94,4.335,4.335,0,0,0,.559-2.144c-1.832.652-3.448,1.507-3.549,3.783q-1.1,1.014-2.2,2.029c-5.74,2.912-9.628,8-14.282,12.184-2.107,2.905-5.627,3.96-8.19,6.267-14.341,11.968-29.338,23.177-44.269,34.3a305.52,305.52,0,0,1-35.811,22.552c-14.525,7.949-28.463,16.85-43.4,24.185-23.362,11.47-46.9,22.491-70.768,32.832-4.545,1.97-9.424,3.18-13.48,6.2a6.505,6.505,0,0,1,.915.543A6.679,6.679,0,0,0,126.5,515s-.3.222-.3.222l-.017-.04q-.647.116-1.291.238c-12.846,3.3-24.542,9.749-37.3,13.445-6.822,1.977-14.159,3.406-20.127,7.887l-3.751.868h0c-17.368,5.332-34.507,11.638-52.156,15.757-24.613,5.743-48.716,13.414-73.691,17.894-22.415,4.019-44.655,9.09-67.252,12.135-19.869,2.678-39.77,5.121-59.655,7.669q-1.924.174-3.849.347L-234.67,594l-2.44.148c-6.647-.433-13.224.42-19.815,1.043q-1.934-.033-3.869-.067c-1.313-1.043-2.683-.534-4.046-.145l-3.841-.165a2.391,2.391,0,0,0-2.792-.039l-6.426.084a2.015,2.015,0,0,0-2.558.224,15.531,15.531,0,0,0-7.937.1,2.336,2.336,0,0,0-2.73.066c-4.776-1.009-9.606-.7-14.427-.6q-1.2.023-2.391.044c-.974-.019-1.951-.037-2.927-.054q-14.613-.865-29.23-1.724l-1.456.157c-4.227-1.916-8.748-1.411-13.185-1.6q-1.347-.174-2.693-.352-1.342-.129-2.685-.26c-9.908-1.933-20.007-2.334-29.992-3.824-25.233-3.765-50.594-6.66-75.213-13.738l-13.97-3.718c-9.98-4.134-20.7-6.121-30.47-11.015-4.1-2.054-7.646-5.568-12.609-5.794q-.751-.126-1.5-.249c-6.979-3.2-13.628-7.122-21.015-9.4l-1.414-.409c-9.35-5.489-18.721-10.942-28.044-16.476-6.042-3.586-12.012-7.289-18.013-10.939-.762-1.021-1.362-2.257-2.929-2.208a1.865,1.865,0,0,1-.544-.037,1.865,1.865,0,0,0,.544.037q-.726-.554-1.451-1.1l-.02-.131c-12.772-10.165-25.915-19.913-36.546-32.488-24.631-26.1-41.428-56.581-50.959-91.125q-.2-1.244-.4-2.487-1.133-4.462-2.267-8.923-.372-1.9-.747-3.8-.255-1.962-.509-3.921-.271-1.914-.539-3.829c-.182-3-.167-6.036-.578-9.009-2.818-20.428-.327-40.637,2.482-60.82,2.221-15.961,7.193-31.293,11.023-46.885q.243-2.546.484-5.091c-2.2-.411-4.281-1.495-6.451-2.095,2.171.6,4.252,1.684,6.453,2.095q-.245,2.546-.485,5.091a7.072,7.072,0,0,0,1.906-5.288q-.323-.207-.649-.41a1.875,1.875,0,0,0,.084-.841c-.726-.615-1.512-1.175-2.214-1.812.7.637,1.488,1.2,2.218,1.812a1.925,1.925,0,0,1-.088.841c.214.133.433.271.649.41l4.833-12.466q4.4-10.48,8.805-20.962l-.77-.56h0c.253.185.512.372.77.56,10.16-18.273,17.7-37.815,28.922-55.666,10.935-17.4,22.727-34.24,33.4-51.789,5.43-8.93,14.569-14.921,18.8-24.685l1.411-1.419c2.959-9.27,11.557-13.923,17.486-20.676,11.53-13.135,24.115-25.373,36.681-37.55,4.174-4.046,7.428-9.119,11.9-12.5,10.945-8.276,18.986-19.645,30.4-27.37,8.312-5.625,15.015-13.333,23-19.311,23.28-17.418,46.141-35.418,70.639-51.19,12.024-7.74,23.344-17.085,35.74-23.693,23.677-12.622,47.016-25.971,71.224-37.628,27.235-13.113,54.7-25.691,83.107-36.067,4.65-1.7,8.676-5.5,13.2-6,14.271-1.574,26.332-10.15,40.44-11.844l1.266-.347c9.638-1.3,18.63-4.907,27.826-7.787l2.474-.634q3.87-.89,7.74-1.781c.428-.079.859-.158,1.288-.239q26.6-5.523,53.2-11.05.779-.1,1.557-.211c1.392.3,2.8.72,3.957-.586q1.914-.339,3.825-.681l2.7-.506c2.562-.179,5.271.5,7.545-1.321,1.764.44,3.566,1.813,5.229-.214l5.057-1.264,2.782-.067,3.9-.516c3.485-.012,7.005.378,10.383-.888,3.028-.152,6.127.635,9.065-.691,2.69.61,5.251-.268,7.851-.679A2.076,2.076,0,0,0,16.185-237l2.828-.108q1.83-.167,3.664-.332l9.339-.627,3.7-.393q13.888.025,27.774.052,3.9.046,7.8.094,6.684.167,13.367.33c.878,0,1.758,0,2.634,0,1.188,1.323,2.636.541,3.992.5l3.819.566c.93.885,1.871.618,2.816.03,8.915,1.274,17.794,3.141,26.751,3.674,11.4.676,22.184,5.022,33.64,4.948-.052-.677-.093-1.372-.185-2,.094.625.133,1.32.185,2q1.706.442,3.413.881h0c2.228,1.859,4.912,2.218,7.671,2.336q1.959.518,3.916,1.035c11.545,4.462,23.3,8.465,33.929,15q1.112,1.1,2.224,2.2c.772,1.495,2.25,1.823,3.681,2.233l.5.209.4-.369s.143.089.145.088c.034.4-.088.957.13,1.173,18.3,18.121,36.237,36.65,58.684,49.948,5.137,3.043,10.5,5.871,14.916,10.093a4.6,4.6,0,0,0,4.778,1.321c1.1-.408,2.095-1.593,1.48-2.484-2.418-3.5-1.245-8.035-3.861-11.537-20.425-27.346-44.2-51.02-74.369-67.567-10.607-5.817-21.133-11.98-33.067-14.931a5.188,5.188,0,0,0-4-2.037,8.021,8.021,0,0,0-5.6-1.367c-2.385-1.989-5.3-2.594-8.234-3.15-6.837-4.988-15.747-4.3-22.916-8.372a74.439,74.439,0,0,0-29.631-4.931c-11.2.231-21.852-3.578-33.4-3.237-9.7.285-19.99-1.818-30.09-2.049-17.184-.393-34.343-.79-51.5,1.269-10.625,1.274-21.192,3.608-32.063,2.634-3.108-.278-5.94-2.285-9.436-.763-8.3,3.611-17.395,4.277-26.1,6.405-7.182,1.756-15.128-.29-21.465,1.389-12.983,3.441-26.136,6.422-39.09,10.064-12.8,3.6-25.378,8.1-38.548,10.327h0c-2.191-6.154-5.913-2.732-8.964-1.158-1,.514-1.04,2.529-3.071,2.479-7.9-.192-14.481,1.953-19.655,8.758-2.017,2.653-6.726,3.258-10.209,4.8a4.864,4.864,0,0,0-3.721,1.357q-2.7-.056-5.413-.108c-2.388-4.466-6-2.75-8.827-1.153a61.232,61.232,0,0,1-11.618,5.19,41.205,41.205,0,0,0-20.16,13.782c-1.355.1-2.791-.025-3.726,1.291-4.265,1.587-9.161,1.488-12.786,4.784l-2.2,1.66a513.869,513.869,0,0,0-51.473,24.808c-4.865,2.688-10.228,5.032-15.651,4.87-3.571-.108-5.276-.851-4.557,3.558a3.2,3.2,0,0,1-1.384,2.718c-6.168,2.309-10.541,8.015-17.764,8.611-3.536.293-7.845,1.984-10.079,4.545-2.8,3.214-11.227,10.853-14.461,9.405-4.179-1.871-6.429-.1-8.109,2.636-3.281,5.339-8.367,6.791-13.9,8.274-4.938,1.321-8.6,4.479-8.182,10.418-6.424,3.856-12.317,8.494-18.728,12.432-6.93,4.259-14.2,8.389-19.764,15.12a37.845,37.845,0,0,1-16.323,11.154c-5.015,1.692-8.091,3.751-9.867,8.364a11.211,11.211,0,0,0-5.453,4.655q-1.949,1.613-3.895,3.231h0c-1.982,1.625-4.028,3.173-5.932,4.884-6.948,6.244-14.06,12.27-22.045,17.181-1.331-3.259-3.087-2.4-5.135-.645-5.763,4.934-8.222,12.343-16.3,16.161-7.43,3.514-12.666,12.053-18.281,18.864a50.33,50.33,0,0,1-10,9.388c-2.562,1.8-6.338,2.519-7.557,5.691a21.049,21.049,0,0,1-7.4,9.436c-2.251,1.719-4.864,3.709-4.27,7.316.185,1.121.147,2.388-1.22,2.54-6.24.688-8.183,6.084-11.507,10.084-5.565,6.7-10,14.217-16.325,20.438-3.53,3.472-9.385,6.946-7.272,13.879-.288,1.461-1.464,1.495-2.589,1.611-.15.726-.182,1.668-.283,2.486.1-.817.133-1.759.283-2.486-3.935-2.192-4.857,3.06-7.846,3.185q.647-2.257,1.281-4.513a7.922,7.922,0,0,0-.873-.6c-10.472,10.01-15.2,24.114-24.9,34.741-6.64,7.268-10.6,16.4-14.636,25.282-4.616,10.165-13.066,18.157-15.828,29.464-.844,3.458,1.958,6.3,1.545,6.925-2.206,3.352-2.2,7.332-3.873,10.64-1.4,2.762-3.726,1.9-5.408-.362-.246.354-.465.731-.743,1.06-5.8,6.844-8.239,15.192-10.558,23.591,3.312-.937,6.623-1.877,9.857-4.382.012.332.019.65.01.964-.018.7.16.792.441.244a4.1,4.1,0,0,0,1.124,1.636q-.741-.64-1.48-1.282l-9.953,2.821c-3.881,5.988-5.477,12.712-6.328,19.673-4.439,4.09-4.538,9.687-5.231,15.078a5.455,5.455,0,0,0-2.545,3.694c-.017.005-.158.061-.158.061l.116.076.051-.142c-3.054,11.852-5.42,23.834-7.794,35.845-3.672,18.578-3.426,37.115-3.075,55.776l3.328-.554c-2.484-6.038-.876-11.739.587-17.523-1.463,5.784-3.071,11.485-.585,17.523l-3.33.554q.038,1.325.076,2.649a183.3,183.3,0,0,0,12.531,59.091c10.317,26.06,22.991,50.739,42.906,71.02q9.1,9.661,18.185,19.323l8.214,7.219h0l.145.1c2.115,1.714,4.129,3.576,6.367,5.111,6.031,4.136,10.57,10.4,17.943,12.617l.455.16a14.789,14.789,0,0,0,5.393,4.624,1.3,1.3,0,0,0,1.579,1.072c5.652,5.019,12.4,8.424,18.73,12.4,15.706,9.857,32.946,16.785,49.367,25.288l.248.185a17.708,17.708,0,0,0,8.767,3.045.716.716,0,0,0,.944.233c8.037,5.243,17.513,7.076,26.1,11.006l.556.3a6.64,6.64,0,0,1,.836-1.406,5.067,5.067,0,0,1,1.663-1.392,5.067,5.067,0,0,0-1.663,1.392,6.612,6.612,0,0,0-.836,1.407l21.291,7.316c1.923.393,3.081,2.934,5.49,1.955,4.646.809,8.785,3.719,13.724,3.3l.256-.022c.613.3,1.19,1.085,1.9.145.73,1.026,1.571,1.833,2.976,1.549q13.466,3.873,26.933,7.747c9.351,2.445,18.628,5.233,28.067,7.272a871.772,871.772,0,0,0,88.548,14.031c10.03,1.107,20.084,2.223,30.157,2.663,17.791.777,35.759-.265,53.364,1.854,20.89,2.516,41.549-.345,62.3.217,3.337.091,6.716-.93,9.854-1.458,6.348-1.067,12.888,1.075,18.979-1.582q1.226.005,2.449.007c13.4-1.1,26.8-2.095,40.184-3.32,10.079-.922,20.206-1.675,30.174-3.335,12.211-2.034,24.341-4.676,36.365-7.627,3.423-.839,6.05,1.429,9.409.512,7.5-2.046,15.29-3.018,22.772-5.11,22.572-6.31,45.427-11.566,68.193-16.992,17.766-4.235,34.753-10.726,52.328-15.413,6.016-1.6,12.13-3.932,18.106-6.112,12.051-4.4,24.151-8.66,35.924-14,12.5-5.667,25.968-9.348,38.681-14.789,13.189-5.646,26.107-11.751,38.8-18.521,16.872-9,35.157-15.332,51.231-25.905,8.778-5.774,18.509-10.015,26.643-16.79l2.562-.608c7.993-4.589,16.808-8.187,23.8-13.989,11.411-9.476,24.437-16.857,35.022-27.284,6.028-5.939,15.234-8.372,19.6-15.43,6.812-11.015,18.9-15.939,26.741-25.882,5.26-6.668,11.909-12.72,17.981-19,12.791-13.237,21.8-29.34,32.912-43.858,5.367-7.01,11.289-14.163,14.341-22.238,4.08-10.8,9.077-21.225,13.386-31.889,7.4-18.315,10.905-37.28,13.017-56.521,1.3-11.82-.362-23.841-2.791-35.686M165.766-231.585a3.574,3.574,0,0,0-.811-2.113,3.574,3.574,0,0,1,.811,2.113m13.182.04a16.437,16.437,0,0,0-2.7.411,16.437,16.437,0,0,1,2.7-.411c.14.595.249,1.164.322,1.709-.072-.544-.182-1.114-.322-1.709m-1.675-2.4h0a4.039,4.039,0,0,1-.715.184,4.039,4.039,0,0,0,.715-.184m-1.087.239c-.251.029-.509.049-.767.071.258-.022.516-.042.767-.071m-34.444.209c-.79-.04-1.576-.1-2.358-.2a17.981,17.981,0,0,1-5.748-1.6l-.005,0,.005,0a18.025,18.025,0,0,0,5.748,1.6c.782.1,1.567.158,2.358.2s1.581.064,2.373.079c-.792-.015-1.584-.037-2.373-.079m-10.929-10.583c-.131.017-.266.039-.4.061.133-.022.268-.044.4-.061M152.7-231.5a1.8,1.8,0,0,1-.089-.372,1.8,1.8,0,0,0,.089.372m5.029-.148a3.632,3.632,0,0,1,.318.922,3.632,3.632,0,0,0-.318-.922m-.342-.479c-.59-.559-1.608-.58-3.419.4-.644.527-.966.586-1.143.431.177.153.5.1,1.141-.433,1.813-.977,2.831-.957,3.421-.4m-11.845-11.515h0q-.04,1.433-.081,2.867.04-1.433.081-2.867l-.019-.01Zm-9.6-2.567v0a4.042,4.042,0,0,1,.051-1.507,4.049,4.049,0,0,0-.051,1.508M124.574-248.2c-.034,2,.6,3.642,3.825,4.52-.654,2.835-.465,5.143,1.031,6.635a4.892,4.892,0,0,0,1.057.8,7.551,7.551,0,0,0,2.221.8,7.551,7.551,0,0,1-2.221-.8,4.892,4.892,0,0,1-1.057-.8c-1.5-1.491-1.685-3.8-1.031-6.633-3.22-.88-3.859-2.523-3.825-4.521m.111-1.5c-.049.435-.088.854-.1,1.264.017-.41.056-.829.1-1.264m-42.067,7.53h0a4.263,4.263,0,0,1,.351-.546,4.263,4.263,0,0,0-.351.546m.411-.64a6.433,6.433,0,0,1,4.525-2.145,11.973,11.973,0,0,1,1.338-.064,11.973,11.973,0,0,0-1.338.064,6.433,6.433,0,0,0-4.525,2.145m26.847-2.166-.083.118h0ZM89.59-251.88a7.551,7.551,0,0,1-.827.42h0a7.551,7.551,0,0,0,.827-.42m-9.036,12.137v0c-2.243.826-5.078-2.182-7.3-1.19,2.216-.993,5.052,2.014,7.3,1.186M-549.409,543.629a13.715,13.715,0,0,1-1.606.084,13.715,13.715,0,0,0,1.606-.084m-30.125-14.948a2.772,2.772,0,0,0-2.5.411,2.772,2.772,0,0,1,2.5-.411m-16.726-15.823a1.366,1.366,0,0,1-.482-.871h0a1.366,1.366,0,0,0,.482.871m-97-196.928c-.418.052-.838.1-1.257.145.157-.349.283-.7.4-1.055-.121.354-.248.7-.4,1.055.42-.046.839-.093,1.259-.145.48.15.733.334.767.553-.034-.219-.286-.4-.768-.553m-3.234,41.458a9.334,9.334,0,0,0,2.388,1.641c.239.118.487.234.743.345q1-2.123,2-4.245-1,2.121-2,4.245c-.256-.111-.5-.228-.743-.345a9.334,9.334,0,0,1-2.388-1.641,5.589,5.589,0,0,1-1.119-1.529,5.589,5.589,0,0,0,1.119,1.529m3.44-92.782.039-.052s-.022.029-.039.052m-.966,50.172c.964-3.013.723-6.127.463-9.257.26,3.129.5,6.244-.463,9.257M-715.3,323.21c.02.169.045.335.076.5a6.034,6.034,0,0,0,.265.966,5.389,5.389,0,0,0,.435.915,5.694,5.694,0,0,0,1.03,1.269,10.135,10.135,0,0,0,3.746,2.066,1.9,1.9,0,0,0,1.161-.27,1.9,1.9,0,0,1-1.161.27,10.135,10.135,0,0,1-3.746-2.066,5.694,5.694,0,0,1-1.03-1.269,5.389,5.389,0,0,1-.435-.915,6.034,6.034,0,0,1-.265-.966c-.03-.163-.056-.33-.076-.5m8.362,8.453a1.43,1.43,0,0,1-.317.4,4.316,4.316,0,0,1-.674.467,4.316,4.316,0,0,0,.674-.467,1.43,1.43,0,0,0,.317-.4,1.289,1.289,0,0,0,.138-.546,1.289,1.289,0,0,1-.138.546m-2.61-1.464,1.456,1.112h0l-1.456-1.112m3.965,17.846c-.1.042-.2.089-.3.137.1-.047.2-.094.3-.137m-13.687-109.875.034-.047-.034.047m-.16.214a6.7,6.7,0,0,1-.575,3.891,6.7,6.7,0,0,0,.573-3.889Zm-3.96,110.411a11.176,11.176,0,0,1,.548,1.948,11.176,11.176,0,0,0-.548-1.948c-.236-.644-.507-1.281-.77-1.919.263.639.534,1.276.77,1.919m-11.564,5.034.044-.064-.044.064a6.762,6.762,0,0,0,.4,1.818,6.777,6.777,0,0,1-.4-1.818m2.226-3.017h0l-.04.046a2.316,2.316,0,0,1-1.1,2.553,2.319,2.319,0,0,0,1.1-2.553Zm4.23,11.193.015-.015Zm-.72-1.6h0c.067.148.136.295.2.441-.067-.147-.136-.293-.2-.441m2.4-13.672-.019-.111s.008.045.019.111m-7.472,9.336a1.451,1.451,0,0,1-.17-.268,1.451,1.451,0,0,0,.17.268m20.305,62.616h0c-.381-.1-.868-.383-1.112-.243.244-.14.731.143,1.112.243m-5.8-77.722c-.474.74-.876,1.063-1.235,1.132C-720.662,342.026-720.26,341.7-719.786,340.962Zm-3.617-11.668-1.143-.305Q-723.974,329.141-723.4,329.294Zm3,16.813a3.777,3.777,0,0,0,.955-1.24,3.756,3.756,0,0,1-.955,1.24,3.519,3.519,0,0,1-1.518.718,3.519,3.519,0,0,0,1.518-.718m-2.437,50.87a4.382,4.382,0,0,0-.752,1.141,4.382,4.382,0,0,1,.752-1.141m7.407,22.55a2.713,2.713,0,0,1,.3.1,2.62,2.62,0,0,0,.588.18,2.62,2.62,0,0,1-.588-.18A2.713,2.713,0,0,0-715.432,419.527Zm24.9-50.038h0l.007-.008Zm-3.038-64.151c-.069-.834-.138-1.672-.185-2.506.047.834.116,1.672.185,2.506m-1.5-115.5a6.544,6.544,0,0,1,2.951.494A6.544,6.544,0,0,0-695.069,189.84Zm58.754-57.36c-.474.046-.944.091-1.417.135q.71-.066,1.416-.135Zm6.122-9.892c0-.005-.007-.007-.008-.012s.005.007.008.012m-8.858-16.557a.876.876,0,0,1-.045-.217.876.876,0,0,0,.045.217m5.406,23.989c1.08-2.605-.578-6.089.873-8.574a2.838,2.838,0,0,1,2.223.647,2.828,2.828,0,0,0-2.221-.645c-1.453,2.484.206,5.969-.875,8.573m6.562-12.575a1.241,1.241,0,0,1,.219.33h0a1.2,1.2,0,0,0-.217-.33m3.253,2.592h0l.615-.236-.615.236m-16.871-6.7h0q-.62.094-1.235.185.617-.091,1.235-.185m-6.729-.448a4.813,4.813,0,0,0,3.468,1.025,4.813,4.813,0,0,1-3.468-1.025m-.536-5.851a3.7,3.7,0,0,0,.821-1.95,3.7,3.7,0,0,1-.821,1.95m-2.257,1.9c.426-.286.844-.578,1.23-.89-.386.312-.8.6-1.23.89m-13.8,55.956c-.118.118-.234.238-.352.357.118-.12.234-.239.352-.357m-17.69,45.038h0c-.01-.025-.027-.056-.042-.086.015.03.032.061.042.086m8.123,18.258a2.777,2.777,0,0,0-.084-1.245,2.777,2.777,0,0,1,.084,1.245m-.455-1.864a1.8,1.8,0,0,1,.3.465,1.8,1.8,0,0,0-.3-.465m4.178-70.579a.272.272,0,0,0-.035,0l.04-.013a.1.1,0,0,1-.005.012m1.389-16.8a3.43,3.43,0,0,0-.015-.62,3.43,3.43,0,0,1,.015.62m-1.919-2.568a2.1,2.1,0,0,1,1.9,1.928,2.1,2.1,0,0,0-1.9-1.928m-1.771,5.676c-.057.228-.121.457-.179.684.057-.228.121-.457.179-.684m-.258,1.025a1.987,1.987,0,0,0,1.1,2.459c.612.2.863.442.75.728.113-.286-.138-.529-.75-.728a1.987,1.987,0,0,1-1.1-2.459m-2.268,7.492a5.008,5.008,0,0,0,4.495,5.265c.019.281.034.527.052.8a5.091,5.091,0,0,0-.147.669,1.471,1.471,0,0,0,.273,1.416c0-.027,0-.052-.005-.079.438.571,1.424.949,3.391.974-1.943-.025-2.929-.394-3.386-.895a73.855,73.855,0,0,1,.069,9.833,27.78,27.78,0,0,0-.775-9.939c-1.475-2.61-4-4.747-3.967-8.04m-5.814,30.572h0l-.027-.024Zm-4.292,59.836a8.247,8.247,0,0,1,.915.024,8.247,8.247,0,0,0-.915-.024m2.068.184c.231.045.463.1.693.157-.229-.059-.462-.111-.693-.157m4.024-15.408a6.837,6.837,0,0,1,.962-.324,7.063,7.063,0,0,0-.962.324m4.885,9.953c.258.236.509.433.716.356-.207.079-.458-.118-.716-.356m1.953-3.864c.054-.222.11-.445.163-.667l.287-.113c-.1.037-.19.076-.285.113-.056.222-.111.445-.165.667m9-29.69c1.716.988,1.635,2.437,1.488,3.9a14.393,14.393,0,0,0-.1,1.456,14.393,14.393,0,0,1,.1-1.456c.145-1.466.228-2.915-1.488-3.9,3.918-3.932,6.422-9.034,8.14-14-1.717,4.963-4.221,10.066-8.14,14M-622.67,119.6a7.389,7.389,0,0,1,.92-.27,7.389,7.389,0,0,0-.92.27m4.644-7.944-.076-.265.076.265m-1-4.242c.118.728.27,1.449.443,2.166-.174-.716-.325-1.437-.443-2.166m3.475,12.267c.074.172.143.344.206.514-.062-.17-.131-.342-.206-.514m5.174-3.967a6.548,6.548,0,0,0,1.139-3.067l0,0a6.565,6.565,0,0,1-1.141,3.069m62.709-93.784v0a14.419,14.419,0,0,1,.866,1.352,14.187,14.187,0,0,0-.866-1.35m-.763-5.1a4.969,4.969,0,0,1,.391.713,4.969,4.969,0,0,0-.391-.713M-553.62,13.7c2.093.645,4.055,1.426,5.16,3.077-1.106-1.652-3.067-2.432-5.16-3.077m33.957-22.243a1.165,1.165,0,0,1-.226.214,1.148,1.148,0,0,0,.224-.212,0,0,0,0,0,0,0m-3.8.9a1.261,1.261,0,0,1,.229-.2,1.261,1.261,0,0,0-.229.2m-16.4,21.781h0l-1.02.971,1.02-.971m.047,4.473c-.265.315-.531.625-.811.915.28-.29.546-.6.811-.915m20.541-26.1a4.875,4.875,0,0,0-.388-1.053,4.971,4.971,0,0,1,.389,1.053c-.57,1.832-.371,3.793.693,4.882-1.063-1.089-1.262-3.05-.694-4.882m12.774-3.1-6.008,2.255a11.635,11.635,0,0,0,.005,1.188c-.022-.4-.024-.792-.008-1.19q3.008-1.125,6.01-2.253c2.649.347,3.386-1.114,4.51-2.986-1.124,1.872-1.86,3.333-4.508,2.986m7.026-33.029q.263-.935.489-1.872-.225.938-.489,1.872m-.231,1.451c.007-.184.035-.367.059-.551-.024.184-.052.367-.059.551m.136,1.855-.005-.03.005.03m.017,4.5a4.964,4.964,0,0,0,.18-.534,4.964,4.964,0,0,1-.18.534m-7.954,23.623a3.017,3.017,0,0,1,.354-.27,3.017,3.017,0,0,0-.354.27m-4.72-3.113c-.2,3.4,1.528,4.162,4.464,3.333l0,0c-2.934.827-4.658.062-4.462-3.335M-483.4-33.273a.006.006,0,0,0,0,.005.006.006,0,0,1,0-.005m9.933-3.362c-.189-.045-.381-.094-.573-.145.192.051.384.1.573.145m19.943-16.439c.462.47.976.92,1.4,1.4-.426-.482-.94-.932-1.4-1.4m78.093-57.394h0l-1.042,1.311q.521-.657,1.042-1.311m-7.351,6.92-.03,0,.03,0m32.115-34.94a2.579,2.579,0,0,1-.676,1.269,2.579,2.579,0,0,0,.676-1.269m-1.535,2.253,0,.005,0-.005m-.568,1.321h0a1.713,1.713,0,0,1,.337-1,1.684,1.684,0,0,0-.335,1m-2.022,3.839c.086.273.187.548.295.819-.108-.271-.209-.546-.295-.819a2.8,2.8,0,0,1,.219-2.674,2.8,2.8,0,0,0-.219,2.674m-1.4-7.292h0c.037.1.1.2.143.3-.047-.1-.106-.2-.143-.3m16.861,8.591c1.223-1.372,2.634-2.61,3.915-3.94l0,0c-1.282,1.328-2.693,2.567-3.916,3.938m32.784-41.419c.078.01.153.019.231.03-.078-.012-.153-.02-.231-.03m-7.137,29.94c-.039.037-.081.064-.12.1.039-.035.081-.062.12-.1m-5.116-28.131c.342-.086.691-.16,1.045-.236-.354.076-.7.15-1.045.236m-1.614.578a5.679,5.679,0,0,1,.9-.371,5.679,5.679,0,0,0-.9.371m-11.468,12.787a6.914,6.914,0,0,1,1.576-2.353,6.914,6.914,0,0,0-1.576,2.353m5.022,21c-.039.174-.079.342-.128.5.049-.16.089-.329.128-.5m.516-2.663c-.123.468-.211.993-.3,1.518.089-.526.177-1.05.3-1.518m.121-.406.005-.015-.005.015m.032-.084c.039-.106.083-.207.128-.3-.046.094-.089.2-.128.3m.5-.831a16.509,16.509,0,0,0-1.161-5.8c-.327-.932-.684-1.854-1.011-2.786.327.932.684,1.854,1.011,2.786A16.509,16.509,0,0,1-325.7-139.009Zm14.5-3.167a2.077,2.077,0,0,1-.256-.347,2.077,2.077,0,0,0,.256.347m8.1-4.05-2.358,1.8,2.356-1.807c1.449-1.411,3.583-1.877,5.229-3.017-1.646,1.139-3.78,1.606-5.227,3.018m8.568-13.259,7.127-5.005,1.3-.2-1.3.2-7.127,5.005m5.175.612a.5.5,0,0,0-.052,0,.5.5,0,0,1,.052,0m-7.3-.715a4.535,4.535,0,0,0,1.812.2,4.535,4.535,0,0,1-1.812-.2,8.4,8.4,0,0,0-1.09-.216,8.4,8.4,0,0,1,1.09.216m2.122.1Zm2.762-9.166a1,1,0,0,1,.374.624,1,1,0,0,0-.374-.624m.4,1.045a3.9,3.9,0,0,1-.184,1,3.9,3.9,0,0,0,.184-1m-1.913-1.25.313,2.548-.313-2.548a4.143,4.143,0,0,0-1.1-1.8,4.143,4.143,0,0,1,1.1,1.8m6.982,2.892h0l-.207-1.3.207,1.3m.1.637-.049-.318c.025.16.049.318.049.318m-.157-9.852h0a7.752,7.752,0,0,1,2.159-1.444,2.059,2.059,0,0,1,1.006-.158,1.361,1.361,0,0,1,.742.337,1.361,1.361,0,0,0-.742-.337,2.059,2.059,0,0,0-1.006.158,7.789,7.789,0,0,0-2.159,1.444m-.228-1.724c-.067-.362-.157-.718-.256-1.07.1.352.189.708.256,1.07m-1.957,4.675q-1.218-4.232-2.435-8.463,1.216,4.234,2.435,8.463a4.506,4.506,0,0,0,1.412-1.239,4.506,4.506,0,0,1-1.412,1.239m2.395,13.507a2.239,2.239,0,0,0-.62-.349,2.239,2.239,0,0,1,.62.349,9.435,9.435,0,0,1,1.08,1.1,9.435,9.435,0,0,0-1.08-1.1m5.052,1.195c-1.422,1.7-2.393,1.417-3.254.649.861.768,1.832,1.053,3.254-.649a2.188,2.188,0,0,0,1.847-1.006,2.188,2.188,0,0,1-1.847,1.006m.642-13.253a12.43,12.43,0,0,1-2.12,1.311,12.442,12.442,0,0,0,2.12-1.313q-.088-.662-.18-1.323c-.335-.8-.57-1.8-.871-2.671.3.87.536,1.867.873,2.671.059.44.12.881.179,1.323q1.226,3.827,2.452,7.653l-2.452-7.651m50.848-20.814c-2.42-.876-3.153.258-3.78,2.061.627-1.8,1.36-2.937,3.78-2.061q-.106-.6-.2-1.2.094.6.2,1.2m-.1-5.573c.022-.12.052-.238.076-.357-.024.12-.054.238-.076.357m4.262-12.088c-.179.686-.394,1.363-.635,2.034.241-.671.457-1.348.635-2.034m-1.412,4.031c-.273.662-.556,1.321-.834,1.984.278-.661.561-1.321.834-1.984m-1.247,2.976c-.34.829-.656,1.663-.93,2.508.275-.844.59-1.678.93-2.508m-43.947,29.667c-.189-.467-.388-.927-.58-1.39.192.463.391.924.58,1.39m-3.913,11.741a1.451,1.451,0,0,0,.794.138,1.451,1.451,0,0,1-.794-.138m4.479-3.333c-1.218,1.094-2.262,3.269-3.622,3.473,1.36-.2,2.4-2.381,3.62-3.473a5.915,5.915,0,0,0,5.748-1.449,5.913,5.913,0,0,1-5.747,1.449m22.422-9.867c.536-.709,1.008-1.525,1.53-2.253-.522.728-.994,1.544-1.53,2.253m11.178-3.824c-.194.083-.389.163-.585.234.2-.071.391-.152.585-.234m12.086-7.46c-.057,2.053-.848,3.5-2.685,4.082,1.837-.581,2.626-2.029,2.681-4.083,4.456.2,5.47-2.944,6.7-5.881-1.227,2.937-2.241,6.082-6.694,5.883m18.384-8.067c-1.653,4.119-5.617,2.963-8.7,3.81l-1.508-1.129q.753.564,1.508,1.129c3.086-.848,7.049.308,8.7-3.81a9.6,9.6,0,0,1,3.793-.046,9.588,9.588,0,0,0-3.792.046m7.557-19.645.056.042c.128-.254.254-.509.382-.763-.128.254-.254.509-.382.763q-.3.286-.591.57.3-.283.591-.57l-.056-.042m30.386,8.748c-.131-.853-1.1-2.4-.507-2.622.313.313.644.693.986,1.068-.342-.376-.671-.755-.984-1.067-.593.221.374,1.768.506,2.621M-185.849-224c.059-.467.062-.969.1-1.439-.034.47-.037.972-.1,1.439m4.414,4.511a2.741,2.741,0,0,1-.966-.935,2.741,2.741,0,0,0,.966.935,4.665,4.665,0,0,0-.344-2.668,4.612,4.612,0,0,1,.344,2.668m1.235,6.1a6.15,6.15,0,0,0,.664,2.447,6.15,6.15,0,0,1-.664-2.447c.669-1.348,1.434-2.068,2.29-2.189-.856.121-1.621.841-2.29,2.189m-2.813-1.515c0,.2.017.4.02.585h0c0-.18-.017-.383-.02-.585a2.9,2.9,0,0,1,.039-.6,2.9,2.9,0,0,0-.039.6m-2.691-10.988a2.506,2.506,0,0,1,.192-.667,2.506,2.506,0,0,0-.192.667m-9.459,9.811a3.121,3.121,0,0,0,1.488.741c.017,1.527.035,3.054.052,4.591-.017-1.537-.035-3.064-.052-4.591a3.121,3.121,0,0,1-1.488-.741m-.334-.455a1.762,1.762,0,0,0,.182.275,1.762,1.762,0,0,1-.182-.275m14.39,15.042a2.008,2.008,0,0,0,.627-.721,2.008,2.008,0,0,1-.627.721m1.909-4.018a2.2,2.2,0,0,0-.384.553,2.205,2.205,0,0,1,.384-.554c1.269,4.09,1.63,5.221,3.283,4.083-1.653,1.139-2.014.008-3.283-4.082m-1.171,3.062c.022-.052.046-.1.066-.155-.02.052-.044.1-.066.155m4.845.728c.263-.209.549-.45.876-.747-.327.3-.613.538-.876.747m5.984-2.107c-.089.094-.246.128-.5.081.255.047.411.013.5-.081a.514.514,0,0,0,.078-.433.521.521,0,0,1-.078.433m.662-1.889c.74.8,1.54,1.534,2.378,1.475-.838.059-1.638-.676-2.378-1.475m13.318-3.451c.314-.045.627-.093.939-.148a4.458,4.458,0,0,0,1.124-.263,4.454,4.454,0,0,1-1.126.263c-.31.056-.624.1-.937.148m2.219-.48a2.592,2.592,0,0,0,.472-.28,2.592,2.592,0,0,1-.472.28m12.213-1.2a5.146,5.146,0,0,1,1.972-.807h0a5.146,5.146,0,0,0-1.972.807m26.1-6.743a3.273,3.273,0,0,0-1.727-2.632,8.767,8.767,0,0,0-3.332-.831,2.743,2.743,0,0,0-.814.153,2.449,2.449,0,0,0-.74.418,2.449,2.449,0,0,1,.74-.418,2.8,2.8,0,0,1,.814-.153,8.767,8.767,0,0,1,3.332.831,3.273,3.273,0,0,1,1.727,2.632m4.478-7.3a4.832,4.832,0,0,0-.108-.512,4.832,4.832,0,0,1,.108.512m-.359-1.183c.03.062.061.125.088.19-.027-.066-.057-.128-.088-.19m-.6-.736a1.872,1.872,0,0,1,.337.335,1.872,1.872,0,0,0-.337-.335m-66.472-3.719c-.2.11-.4.217-.593.33.2-.111.4-.221.593-.33m-1.916,1.082c-.169.1-.337.19-.507.285.17-.094.339-.189.507-.285m-5.009,2.265a8.61,8.61,0,0,0,.593,2.563,8.39,8.39,0,0,1-.593-2.563m-11.163,5.452c1.692-1.325,3.446-2.541,5.037-4-1.591,1.461-3.345,2.679-5.037,4a11.367,11.367,0,0,0-6.737,3.1,11.379,11.379,0,0,1,6.737-3.1m-9.57,5.339,1.328-.056c-.443.019-.886.037-1.328.059-2.629-1.978-2.294,1.518-3.616,1.957q-.094-.48-.19-.961.1.48.19.959c1.323-.436.988-3.933,3.616-1.958m-72.552,34.566-.071-.448c.025.157.071.448.071.45-2.058,1.006-4.222-1.577-6.331-2.354,2.11.777,4.274,3.359,6.331,2.353m-12.927.647q1.2-.167,2.391-.335l-2.393.337h0c-.184-.366-.374-.967-.556-1.242.182.275.372.876.558,1.24m-1.1-1.338c-.672.207-.313,1.006-.361,1.567-1.717.369-3.517.484-5.206.944,1.689-.46,3.487-.575,5.2-.944.049-.561-.31-1.36.362-1.567m-10.94,9.877,1.048-1.668-1.048,1.668a4.192,4.192,0,0,0,.067,1.067,4.192,4.192,0,0,1-.067-1.067m-18.512,7.826v0a10.316,10.316,0,0,0-1.161.123,11.167,11.167,0,0,1,1.161-.126m-7.69,1.325a10.816,10.816,0,0,1,2.11-2.285,3.024,3.024,0,0,1,1.166-.539,3.024,3.024,0,0,0-1.166.539,10.816,10.816,0,0,0-2.11,2.285q.275,1.949.554,3.895c-.042.025-.072.056-.113.083.04-.027.071-.057.111-.083l-.553-3.895a54.093,54.093,0,0,1-5.753,1.773,54.093,54.093,0,0,0,5.753-1.773m-13.243,4.7a3.434,3.434,0,0,0-.531.229,3.434,3.434,0,0,1,.531-.229m-5.12,5.762q-.073-1.11-.145-2.221.071,1.112.147,2.223a4.552,4.552,0,0,0-2.656,1.84,4.55,4.55,0,0,1,2.654-1.842M-469.108-48.059h0c-.329-.2-.657-.4-.986-.607l.988.607m-12.878,16.106a1.586,1.586,0,0,1-.718-.115,1.563,1.563,0,0,0,.711.111,2.552,2.552,0,0,0,1.837-2.946,2.559,2.559,0,0,1-1.83,2.949M-557.2,12.583c.716-3.618.512-7.587,2.432-10.75A8.821,8.821,0,0,1-553.618.325a8.821,8.821,0,0,0-1.153,1.508C-556.69,5-556.485,8.965-557.2,12.585c-1.357,2.715-4.019,3.017-6.49,3.512,2.471-.5,5.133-.8,6.488-3.514m-94.071,83.1c3.05-2.568,3.532,1.53,5.159,2.678h0q-.005.655-.007,1.306.493.579.988,1.154l-.989-1.154c-.212.411-.423.821-.635,1.23q.8-.023,1.606-.047v0a1.689,1.689,0,0,0,.281.406,1.689,1.689,0,0,1-.281-.406q-.8.025-1.606.047a1.107,1.107,0,0,0-.893,1.439,6.579,6.579,0,0,1,.512,1.936,6.579,6.579,0,0,0-.512-1.936c-.647-.492-1.682-.868-1.866-1.495-.524-1.786-4.518-2.831-1.756-5.158m-17.617,34.249c-2.056,1.259-2.066,3.96-2.292,6.394h0c.229-2.433.239-5.135,2.3-6.394m-11.222,30.1a6.726,6.726,0,0,1-.667.1,6.726,6.726,0,0,0,.667-.1m-.875,1.439c-.8-1.08-.369-1.259.2-1.34-.568.081-1,.26-.2,1.34.145,1.753-.512,1.948-1.325,1.842.812.106,1.47-.089,1.323-1.842m-4.466,4.58c-.067-.423-.113-.848-.14-1.276.027.428.072.853.14,1.276-3.521,4.462-3.95,10.426-6.406,15.438,2.456-5.012,2.885-10.976,6.406-15.438m-20.676,39.116a.246.246,0,0,1,.061.153.352.352,0,0,0-.061-.153m-19.151,195.8a3.257,3.257,0,0,0,.779-.956,3.286,3.286,0,0,1-.779.957c-2.39-2.981-3.148-6.466-3.768-9.995.62,3.529,1.379,7.014,3.768,9.993m65.585,97.229c0,.064,0,.131-.005.2,0-.066.005-.133.005-.2m18.278-21.352c1.476,1.459,2.959,2.912,4.432,4.377-1.473-1.464-2.956-2.917-4.432-4.377m47.52,63.737c-4.12-3.253-6.385-9.732-13.507-7.76,7.122-1.972,9.387,4.508,13.576,7.53-.024.078-.047.155-.069.231.044-.027.093-.052.14-.078a13.105,13.105,0,0,0,1.19,2.027c-.027.017-.87-1.271-1.33-1.95M507.785,215.555c-.89-.357-2.236.386-3.084-.066C505.55,215.941,506.9,215.2,507.785,215.555ZM439.436,355.113a4.107,4.107,0,0,1,.094.9,4.107,4.107,0,0,0-.094-.9m-.666,6.185c-.789-.086-1.587-.271-2.374-.318.787.047,1.586.233,2.374.318m.115-77.345c.062.307.115.617.16.934a13.5,13.5,0,0,1,4.345.369,13.5,13.5,0,0,0-4.345-.369c-.046-.317-.1-.627-.16-.934m7.238,2.44a10.123,10.123,0,0,0-1.768-.836,10.123,10.123,0,0,1,1.768.836M465.76,182.238q.708,4.482,1.417,8.964h0q-.71-4.482-1.417-8.964m-2.838,68.809a2.983,2.983,0,0,0,.506-.062,3.155,3.155,0,0,1-.506.064Zm9.67-58.716a3.553,3.553,0,0,1,.212,1.129,3.553,3.553,0,0,0-.212-1.129m-1.124-1.178a2.018,2.018,0,0,1,.908.752,2.018,2.018,0,0,0-.908-.752m-2.826-.2-.079.008.079-.008m2.449.066a4.252,4.252,0,0,0-.981-.143,4.252,4.252,0,0,1,.981.143m1.085,34.181a1.949,1.949,0,0,0,.474-.927,1.949,1.949,0,0,1-.474.927m-7.7,25.187a1.8,1.8,0,0,1-1.033.6,1.8,1.8,0,0,0,1.033-.6,2.347,2.347,0,0,0,.376-.642,2.347,2.347,0,0,1-.376.642m-2.444,3.44h0q.728.536,1.456,1.077h0q-.728-.541-1.456-1.077-.538.756-1.08,1.512.541-.756,1.08-1.512m1.416,40.587a3.1,3.1,0,0,1,.2-.632,3.1,3.1,0,0,0-.2.632m16.289-6.582a.974.974,0,0,1-.479,1.2.974.974,0,0,0,.479-1.2m0,0a2.238,2.238,0,0,0-.212-.462,2.238,2.238,0,0,1,.212.462m3.33-15.662a8.076,8.076,0,0,0-2.08.63,8.076,8.076,0,0,1,2.08-.63m14.559-46.519h0a7.521,7.521,0,0,0,.281-.888,7.521,7.521,0,0,1-.281.888m-14.286-20.57h0c-.1.383-.394.873-.254,1.114-.14-.241.15-.733.253-1.114m-16.261-23.939a.96.96,0,0,1-.293.57.96.96,0,0,0,.293-.57M456.357,288.825c.167,1.227-.226,2.6-1.614,4.243a6.975,6.975,0,0,0,.5,2.342,6.975,6.975,0,0,1-.5-2.342c1.389-1.64,1.781-3.017,1.614-4.243m-4.186-17.343a5.585,5.585,0,0,0-.482.79,5.585,5.585,0,0,1,.482-.79M451.057,275c0-.071.005-.142.008-.212,0,.071-.007.142-.008.212m.1-1.077a5.832,5.832,0,0,1,.165-.748,5.832,5.832,0,0,0-.165.748m-2.218,15.03a9.526,9.526,0,0,0-1.277-1.422,9.526,9.526,0,0,1,1.277,1.422,10.076,10.076,0,0,1,1,1.692,10.076,10.076,0,0,0-1-1.692m-16.694,56.158q-1.466-1.082-2.934-2.166,1.469,1.082,2.934,2.166c.012-.959-.116-1.957-.044-2.9-.072.944.056,1.941.044,2.9m14.879-5.273h-.007a2.088,2.088,0,0,0,1.924-2.13,2.088,2.088,0,0,1-1.918,2.13m30.29-34.626c-.568-.494-1.2-.922-1.768-1.412.571.49,1.2.918,1.768,1.412m17.341-46.672a4.525,4.525,0,0,0,.442.866,4.525,4.525,0,0,1-.442-.866m1.193,2.056c-.111-.2-.239-.393-.369-.593.13.2.258.4.369.593m10.644-52.9c-.477.054-.952.121-1.427.184.475-.062.95-.13,1.427-.184m-6.333-8.509c.04.089.083.177.131.285-.049-.108-.091-.2-.131-.285M421.594,54.78c-.782.022-1.566.042-2.349.066-.094-.008-.19-.015-.285-.022l.286.02,2.348-.064m-7.968-1.631c.062.271.108.549.145.829-.037-.28-.083-.558-.145-.829l-.022-.012Zm-2.867-2.4,2.46-.116q-1.231.058-2.462.118c-1.158-1.748-2.851-3.192-3.367-5.3.516,2.108,2.209,3.552,3.369,5.3m3.2,4.924c.034.281.074.559.128.832-.054-.273-.094-.551-.128-.832m16.067,239.718q-.354,2.043-.7,4.085h0q.351-2.042.7-4.085m-.725,4.053h0c-2.317.475-4.228,1.047-5.164,2.846.935-1.8,2.846-2.371,5.164-2.846M372.279,404.994a.421.421,0,0,1,.155-.248.421.421,0,0,0-.155.248m3.8,8.866a2.518,2.518,0,0,0,.03.654,2.518,2.518,0,0,1-.03-.654m-3.337-6.409a4.6,4.6,0,0,1-1.569,1.866,4.6,4.6,0,0,0,1.569-1.866m4.705,10.182v0q-1.378.265-2.757.538l2.757-.539M394.57,402.9a1.992,1.992,0,0,1-1-1.449,1.8,1.8,0,0,1,.548-1.422,1.8,1.8,0,0,0-.546,1.421,1.986,1.986,0,0,0,.994,1.451m7.526-27.289a1.311,1.311,0,0,0,.891-.662,1.311,1.311,0,0,1-.891.662m2.58-4.08h0a2.1,2.1,0,0,0-.26.312,2.1,2.1,0,0,1,.26-.312m9.206.135c0-.02-.01-.039-.013-.059,0,.02.01.039.013.059m2.87,2.069a4.227,4.227,0,0,1-1.335-.221A4.227,4.227,0,0,0,416.752,373.737ZM405.3,368.529c.645-.989,1.744-1.151,3.057-.913-1.313-.238-2.41-.076-3.057.913m-1.657,5.012c-.047.125-.1.246-.145.367.049-.121.1-.243.145-.367m-.254.632a5.167,5.167,0,0,1-.339.669,5.167,5.167,0,0,0,.339-.669m-23.027-12.781c-.75-.037-1.5-.148-2.257-.2-.7,4.195-1.4,8.389-2.091,12.583.688-4.194,1.394-8.389,2.091-12.583.752.056,1.507.167,2.257.2M362.51,427.409c-.037.039-.083.076-.116.116.034-.042.079-.078.116-.116m-10.148-1.224c.019.165.037.33.059.494-.022-.163-.04-.329-.059-.494m1.6,2.863v0a21.869,21.869,0,0,1,.347,2.76,22.248,22.248,0,0,0-.347-2.762m-1.294-1.294a3.709,3.709,0,0,1-.157-.531,3.709,3.709,0,0,0,.157.531m-3.44-34.7-1.879.312c-.167.484-.359.733-.573.752.214-.019.406-.268.571-.752q-.642.061-1.284.131.642-.071,1.284-.131l1.881-.312m-29.517,27.255a5.729,5.729,0,0,0-.057-1.048c-.047-.354-.116-.716-.187-1.08.071.364.14.726.187,1.08a5.729,5.729,0,0,1,.057,1.048,2.536,2.536,0,0,1-.42,1.363,2.536,2.536,0,0,0,.42-1.363m7.09,38.062.538.079-.538-.079m-6.377-42.626-1.277.238a9.655,9.655,0,0,0,.2,1.6,9.655,9.655,0,0,1-.2-1.6l1.277-.238m-35.538,71c-.241-.292-.463-.624-.7-.929.234.305.457.637.7.929M139.053,514.164c-.1-.025-.2-.047-.293-.069.1.022.2.044.293.069m-9.934,3.9a3.872,3.872,0,0,0-.645-1.427,3.872,3.872,0,0,1,.645,1.427m-19.247,6.857a3.084,3.084,0,0,0-.632-.642,3.084,3.084,0,0,1,.632.642m.091,1.707c-.1.147-.189.313-.281.485.093-.172.184-.339.281-.485m-.487.871a6.438,6.438,0,0,1-.443.758,6.438,6.438,0,0,0,.443-.758m-1.673-2.867a7.343,7.343,0,0,0-.726,1.392,7.343,7.343,0,0,1,.726-1.392m-3.6,2.54q1.271-.164,2.536-.33c.057-.136.113-.275.169-.411-.056.137-.111.275-.169.411l-2.535.332c-.056.71-.005,1.579-.549,1.926.544-.347.494-1.217.548-1.928l-2.656.42-7.6,1.185c.26,3.263-2.083,5.91-2.937,8.981a8.169,8.169,0,0,0-.285,1.574,8.169,8.169,0,0,1,.285-1.574c.854-3.07,3.2-5.718,2.936-8.982q3.8-.589,7.6-1.183l2.656-.42m.507,30.069h0l0,.005Zm-3.355-24.662c.029.076.047.162.072.241-.025-.079-.044-.165-.072-.241M84.582,565.1c-.066.1-.137.2-.2.312.059-.111.13-.207.2-.312m2.653-2.117a5.345,5.345,0,0,0-2.465,1.82,5.345,5.345,0,0,1,2.465-1.82m3.947-.748c-.411.034-.836.072-1.264.125.428-.052.853-.091,1.264-.125m-8.124-26.785h0s0,0,0,0,0,0,0,0m-26.1,17.936a8.049,8.049,0,0,0,.812-.051c-.266.03-.538.046-.812.051m-2.582,19.255a4.13,4.13,0,0,0,.485,1.453A4.13,4.13,0,0,1,54.373,572.638Zm7.519-32.149c-.442.613-.9,1.215-1.372,1.813.468-.6.93-1.2,1.372-1.813m-4.173,5.4c.45-.608.917-1.207,1.387-1.8-.47.6-.937,1.195-1.387,1.8a20.1,20.1,0,0,0-3.627,7.083h0a20.1,20.1,0,0,1,3.627-7.083m-4.639,8.37a3.541,3.541,0,0,0,1.062-.142,3.6,3.6,0,0,1-1.063.143,7.7,7.7,0,0,0-.305-1.1,7.979,7.979,0,0,1,.307,1.1M28.924,573.435a2.99,2.99,0,0,1,.767-.468,2.99,2.99,0,0,0-.767.468m4.144,6.343c.12.167.231.351.34.538a6.5,6.5,0,0,0,.689,1.053,6.5,6.5,0,0,1-.689-1.053c-.11-.187-.221-.371-.34-.538M12.678,557.832l-.039.052.039-.052M-26.282,570.2v0c-2.075-.288-4.25-.956-6.3-1.346,2.048.391,4.223,1.058,6.3,1.345m-68.809,38.774c.019-.019.042-.035.059-.054-.017.018-.04.035-.059.054m4.727-24.186q-.149.556-.3,1.112h0c.1-.371.2-.742.3-1.112m2.076,15.651a3.363,3.363,0,0,1,.846,1.232,3.4,3.4,0,0,0-.846-1.232,4.526,4.526,0,0,0,.165,3.435,4.461,4.461,0,0,1-.165-3.435m-81.745,11.414c.032.2.064.408.1.61-.032-.2-.064-.406-.1-.61m-312.009-38.482c.015,0,.032,0,.049,0-.017,0-.034,0-.049,0m-20.021-8.345-.067-.049.067.049m2.964,13.554h0c.345-.2.9-.344.972-.618-.076.275-.629.418-.972.618m-2.921-13.522h0a23.125,23.125,0,0,0,7.4,2.149,23.1,23.1,0,0,1-7.4-2.149m11.872,3.256a16.93,16.93,0,0,0-1.63-.5,16.93,16.93,0,0,1,1.63.5m.423,14.495c2.014-.047,3.947-.755,5.952-.836-.073-1.641.45-2.3,1.32-2.356-.87.061-1.392.715-1.318,2.358-2.007.079-3.94.787-5.954.834m7.017.63c-.088.266-.185.534-.28.8.094-.266.192-.534.28-.8m-.656,2a8.354,8.354,0,0,1,.236-.8,8.354,8.354,0,0,0-.236.8m1.355-3.62c-.137-.005-.271-.005-.4,0a3.664,3.664,0,0,1-.02.408,3.664,3.664,0,0,0,.02-.408c.126-.005.261-.005.4,0,.275.01.566.034.851.052-.285-.018-.576-.042-.851-.052m30.784,13.443c.015.1.034.2.054.31-.02-.106-.039-.209-.054-.31m.281,1.3c.03.12.059.236.084.351-.025-.115-.054-.231-.084-.351m95.893,14.86c4.2-.607,8.455,1.07,12.631.671.8-1.471,1.6-2.944,2.487-4.572l-2.486,4.574c-4.178.4-8.433-1.279-12.632-.672m35.455,2.742q-1.274.817-2.545,1.635l2.543-1.635c1.284-1.178.726-2.661.669-4.061a2.558,2.558,0,0,1,.376.207,2.615,2.615,0,0,0-.374-.206c.056,1.4.613,2.882-.669,4.06m7.127,4.178.081.059-.081-.059m152.066-2.949c.007-.018.017-.03.022-.047-.005.017-.015.029-.022.047m2.75,3.116a1.294,1.294,0,0,1,.293-.474,1.294,1.294,0,0,0-.293.474m14.259-4.38-1.623-5.059Zm5.841-4.891h0q.268,1.974.533,3.95-.265-1.974-.533-3.95m39.259-1.286c.929.088,1.283.752,1.667,1.707a2.608,2.608,0,0,0,1.321-.479,2.593,2.593,0,0,1-1.321.479c-.384-.956-.738-1.619-1.667-1.707m9.933,4.417q1.1-.933,2.209-1.862c-.025-.2-.049-.4-.074-.6l.076.607q-1.107.928-2.211,1.859M-59.746,601.7l-1.311.118-2.406.394a2.384,2.384,0,0,1-1.212,2.624,2.386,2.386,0,0,0,1.212-2.626c.8-.13,1.6-.261,2.406-.393q.657-.058,1.311-.12a2.722,2.722,0,0,0,3.075,2.256,2.722,2.722,0,0,1-3.075-2.255m3.357-4.533c.533,2.169,1.065,4.336,1.633,6.647-.568-2.31-1.1-4.478-1.635-6.647l-1.527-1.127-.03-.022.03.02q.763.566,1.527,1.129c1.609-.568,2.577-.212,3.286.509-.709-.721-1.675-1.075-3.284-.509m4,1.463c.094.153.187.308.276.467-.089-.158-.182-.313-.276-.467m27.9.121c.035-.005.066-.022.1-.027-.035.005-.066.022-.1.027m2.781-2a9.788,9.788,0,0,0,.548-.9h0a9.429,9.429,0,0,1-.548.9m-1.424-5.794.394,2.408a2.549,2.549,0,0,1,1.672,2.378,2.549,2.549,0,0,0-1.672-2.378l-.394-2.41c1.631.3,3.347-1.673,4.973-1.21-1.626-.463-3.342,1.512-4.973,1.212m13.3,1.99c-1.778-.652-4.645,2.88-6.038.75,1.394,2.13,4.26-1.4,6.04-.752.283.457.394,1.529.834,1.468-.44.061-.551-1.011-.836-1.466m30.824-5.957c-3.82,2.45-8.7,1.914-12.995,3.315,4.294-1.4,9.173-.866,12.995-3.316a5.462,5.462,0,0,0-.056-.758,5.462,5.462,0,0,1,.056.758q2.594.086,5.191.169l-5.191-.167m20.561-1.83c-2.093.145-2.653-1.975-3.529-7.321-1.389-.2-2.026,1.513-3.1,2.11,1.075-.6,1.712-2.312,3.1-2.112.876,5.347,1.436,7.467,3.529,7.322A5.531,5.531,0,0,0,43,584.8a5.531,5.531,0,0,1-1.454.352m2.346-.718c.635-.283,1.355-.647,2.172-1.082-.817.435-1.537.8-2.172,1.082m11.444-4.749a5.45,5.45,0,0,0,.617-2.093,5.45,5.45,0,0,1-.617,2.093m1.165-5.217a2.252,2.252,0,0,0-.45.58c.005.666,0,1.32-.04,1.938.042-.618.045-1.272.04-1.938a2.252,2.252,0,0,1,.45-.58,1.62,1.62,0,0,1,.849-.448,1.62,1.62,0,0,0-.849.448m14.6-.923c1.026,1.847,2.521,2.917,5.907.972a19.355,19.355,0,0,1,1.68-6.94,19.4,19.4,0,0,0-1.68,6.94c-3.386,1.945-4.88.875-5.907-.972m11.224-7.622,1.485.988v0q-.743-.5-1.485-.989m26.79-5.448,2.589-.352c1.734-2.132,3.332-4.189,3.815-6.544-.484,2.354-2.081,4.412-3.815,6.545q-1.294.174-2.589.351M143.9,546.03a7.008,7.008,0,0,1,.954-.977,7.008,7.008,0,0,0-.954.977m2.022-1.672c1.507-.725,3.349-.622,5.645.581,1.874-1.616,4-2.979,5.305-4.808a7.146,7.146,0,0,0,.59-1.013,7.146,7.146,0,0,1-.59,1.013c-1.3,1.83-3.431,3.193-5.305,4.808-2.3-1.2-4.139-1.306-5.645-.581m45.675-17.509a5.146,5.146,0,0,1,4.761.893c-.015-.115-.03-.229-.044-.344.013.115.029.229.044.344a5.146,5.146,0,0,0-4.761-.893m48.4-18.947c2,.054,3.822-1.1,5.677-2.118,2.506-3.788,2.865-7.789,2.351-11.877.514,4.088.155,8.089-2.349,11.877-1.857,1.023-3.684,2.172-5.679,2.118m-1.186-.177a5.007,5.007,0,0,0,1.009.167,5.007,5.007,0,0,1-1.009-.167m33.755-14.845a2.314,2.314,0,0,0-2.56-1.156q-.766-.579-1.532-1.156.766.576,1.532,1.156a2.314,2.314,0,0,1,2.56,1.156,3.588,3.588,0,0,1,.335,1.062,3.588,3.588,0,0,0-.335-1.062m10.851-4.592a6.287,6.287,0,0,1-1.025.229,6.287,6.287,0,0,0,1.025-.229,2.416,2.416,0,0,0,1.571-1.417h0a2.416,2.416,0,0,1-1.571,1.417m33.952-20.8c.46-.239.942-.46,1.421-.681-.479.221-.961.442-1.421.681m2.135-1.018a6.354,6.354,0,0,0,2.9-2.309,6.354,6.354,0,0,1-2.9,2.309m4.289-2.531a3.191,3.191,0,0,0,1.463-.679,3.191,3.191,0,0,1-1.463.679m1.636-.826a2.606,2.606,0,0,0,.475-2.112q.336-.983.676-1.967-.339.983-.676,1.967a2.606,2.606,0,0,1-.475,2.112m18.013-11.945a3.1,3.1,0,0,0,.745-.18,3.1,3.1,0,0,1-.745.18m1.018-.317c1.916-1.2-2.083-5.1-1.166-6.758l2.245-.324-2.241.324c-.92,1.658,3.079,5.553,1.163,6.758m17.311-21.977a4.628,4.628,0,0,0-.1.706,4.628,4.628,0,0,1,.1-.706m5.966-1.025c-.008-.308-.276-.578-.822-.806-.005-.308-.005-.615,0-.923q-1.393.111-2.781.228c-.106.04-.187.089-.285.135.1-.046.179-.094.285-.135q1.388-.116,2.781-.228a5.214,5.214,0,0,0,.745-4.737,5.217,5.217,0,0,1-.743,4.739c-.01.307-.01.613-.005.92.546.229.814.5.822.807m15.076-10.608s0,0,0,0c-.214,1.372.691,3.1-.27,4.228.961-1.132.056-2.858.266-4.232m1.645.935c2.565,1.094,4.264-.047,5.31-1.967-1.047,1.919-2.745,3.062-5.31,1.967m5.6-2.565a10.794,10.794,0,0,0,.477-1.3,10.794,10.794,0,0,1-.477,1.3m27.152-29.978c-.969,1.987-1.68,4.065-2.762,6.013,1.082-1.948,1.793-4.026,2.762-6.015,2.835-2.647,6.741-4.329,9.442-7.1-2.7,2.769-6.608,4.451-9.442,7.1m22.66-24.5c-.964-.974-.43-2.986-.349-4.683-.081,1.7-.615,3.711.351,4.682Zm33.378-49.7q-1.049.875-2.1,1.751c1.09,5.185-.659,9.264-3.674,12.848,3.015-3.584,4.762-7.663,3.67-12.848q1.052-.875,2.1-1.751a3.075,3.075,0,0,0,2.979,1.181,3.076,3.076,0,0,1-2.979-1.181M497.3,260.362q-.265-1.863-.534-3.728s0,0,.007,0a.013.013,0,0,0-.005.005q.265,1.863.533,3.726m5.556-15.271q.255,1.2.514,2.395l-.516-2.395a27.5,27.5,0,0,1,1.151-6.936,27.42,27.42,0,0,0-1.149,6.936" transform="translate(741.954 264.106)"/>
      </g>
      <g id="Group_82" data-name="Group 82" transform="translate(512.176 235.57)">
        <path id="Path_38" data-name="Path 38" class="cls-1" d="M1.063,79.621C2.381,85.453,14.432,94.7,20.371,95.211c2.048,3.573,6.379,3.876,9.2,6.5,4.865,4.53,6.739,3.857,9.923-2.7q.382-1.052.763-2.107c2.562-2.137,1.181-4.914,1.213-7.464q-.286-2.642-.57-5.283c.688-6.561,1.687-13.1,1.075-19.737C43.2,54.634,47.3,45.382,47.361,35.38h0a10.836,10.836,0,0,0,2.649-5.062C56.968,6.88,64.083-16.513,70.993-39.966,75.351-54.757,79.861-69.53,81.33-84.992c.961-7.5,5.622-15.066-.351-22.462-2.422-5.393-6.559-8-12.486-8.552-6.862-.635-13.6.517-20.406.624-5.681-.354-8.632,2.444-9.557,7.942-4.35,25.836-9.688,51.463-18.76,76.1-4.3,11.679-7.078,23.73-10,35.727-2.477,10.162-7.248,19.71-8.02,30.3,4.837-2,6.613-5.736,7.331-9.747-.718,4.011-2.492,7.747-7.331,9.747,0,0,.017.046.019.047C-2.759,49.63-2.319,64.649,1.063,79.621m11.288,3.1a9.564,9.564,0,0,1,.078-1.882,9.564,9.564,0,0,0-.078,1.882m2.167-9.577a6.73,6.73,0,0,1,.831-.3,6.73,6.73,0,0,0-.831.3m-8.1-27.191Q6.209,44.7,6,43.451c-.568-.221-.807-.48-.7-.777-.1.3.137.556.706.777q.207,1.251.416,2.5M25.59,91.424h0c.042.008.093.015.145.02-.052-.005-.1-.012-.145-.02M18.618,74.391c-.806-1.422-1.734-1.83-2.88-1.631,1.146-.2,2.075.209,2.88,1.631,2.452,2.915,5.061,5.615,6.761,9.056-1.7-3.441-4.309-6.141-6.761-9.056M31.26,94.921c-.051-.062-.125-.14-.165-.2.04.059.115.135.165.2m-14.252-70.6c-.062.174-.158.354-.234.531.076-.177.172-.357.234-.531.059.071.126.142.2.212-.069-.071-.137-.142-.2-.212m3.414,18.253h0l-.025-.017ZM17.858,14.308A13.342,13.342,0,0,1,19,15.274a13.342,13.342,0,0,0-1.139-.966M16.37,4.962c.024-.108.047-.212.071-.319-.024.106-.047.211-.071.319M16.616,4c.005-.015.012-.03.019-.046-.007.015-.013.03-.019.046m.295-.676c.04-.072.088-.143.135-.214-.047.071-.094.142-.135.214M15.167,7.842a5.193,5.193,0,0,1-1.9-.935,5.193,5.193,0,0,0,1.9.935m.384,2.5h0a16.375,16.375,0,0,0-1.923.637,16.375,16.375,0,0,1,1.923-.637m16.78,85.7h0l.037.027ZM28.549-34.981c0,.361-.027.792-.056,1.237C28.522-34.189,28.546-34.621,28.549-34.981Zm20.71,55c.377-1.532.777-3.059,1.208-4.575-.431,1.517-.831,3.044-1.208,4.575m15.3-51.017c.374,3.328-.908,6.151-2.177,9.1,1.269-2.944,2.55-5.769,2.176-9.1ZM60.88-17.962a28.644,28.644,0,0,1,1.075-2.927,29.2,29.2,0,0,0-1.075,2.927M20.78,5.225c-1.358-.288-2.037-1.589-2.508-3.108a2.856,2.856,0,0,0-.8.492,2.859,2.859,0,0,1,.8-.494c.47,1.52,1.149,2.821,2.508,3.109m-8.156-.31a2.214,2.214,0,0,0-.039.839,2.214,2.214,0,0,1,.039-.839" transform="translate(1.551 116.197)"/>
      </g>
      <g id="Group_83" data-name="Group 83" transform="translate(725.611 238.407)">
        <path id="Path_39" data-name="Path 39" class="cls-1" d="M35.173,10.66q.182-3.835.362-7.669C37.791-7.052,33.525-13.2,24.457-15.183c-6.036-1.321-11.478,1.325-17.157.79C1.885-14.9-1.285-12.158-3.566-8.031-5.427-4.665-6.7-.978-8.241,2.566-11,6.794-11.961,11.671-12.874,16.474c-2.735,14.367-4.666,29.07-10.919,42.35-4.176,8.868-6.52,18.19-9.823,27.258-1.712,4.611-4.569,8.935-3.551,14.227a1.337,1.337,0,0,0-.972.521c-2.745,1.134-3.91,3.379-5.246,5.976-4.956,9.633-5.044,20.177-6.913,30.459-2.875,15.811.17,29.919,10.1,42.129,5.295,6.512,13.649,9.19,21.35,12.316l.356.2c1.193,1.761,2.971,1.176,4.611,1.151,3.229,3.416,6.143,4.284,8.773-.736a34.892,34.892,0,0,1,3.721-4.865l-.019-.013a.72.72,0,0,1,.037-.194l-.182.1c-3.342-14.7-2.1-29.274,1.144-43.8A22.341,22.341,0,0,0,2.317,135.3q3.774-10.536,7.545-21.072,5.245-16.5,10.485-33.012l.265-.268-.133-.351c3.568-11.633,7.582-23.15,10.571-34.93,2.9-11.417,5.415-23.027,4.124-35.005M-34.035,153.767c-.209,1.488.768,3-.214,4.287.979-1.282-.012-2.779.067-4.127a33.212,33.212,0,0,0-.47-4.289c.26,1.748.448,3,.617,4.129M-41.184,151c.069-.583.138-1.163.207-1.746L-41.184,151Zm4.434,3.3h0l-.01.012Zm7.905-63.42.051.147-.051-.147m.31.913c.013.039.024.078.037.116-.012-.039-.024-.078-.037-.116m-.856-2.664c.069.308.157.615.256.918-.1-.3-.187-.61-.256-.918m-14.791,71.892a11.356,11.356,0,0,0,2.53,4.54h0a11.356,11.356,0,0,1-2.53-4.54M4.381,72.663q.03.488.062.976l0,0q-.03-.488-.061-.974" transform="translate(51.331 15.557)"/>
      </g>
      <g id="Group_84" data-name="Group 84" transform="translate(99.556 338.545)">
        <path id="Path_40" data-name="Path 40" class="cls-1" d="M1.8,0c-3.128-.029-3.59,2.406-4.424,4.474a7.909,7.909,0,0,1,.871.6C1.288,4.715,2.008,2.747,1.8,0" transform="translate(2.625 0)"/>
      </g>
      <g id="Group_85" data-name="Group 85" transform="translate(418.483 529.577)">
        <path id="Path_41" data-name="Path 41" class="cls-1" d="M34.8,52.471l3.711,1.02h0c11.35,5.477,23.591,7.041,35.927,7.747,20.032,1.149,39.829-1.215,59.5-4.8l2.454-.647c3.633.3,6.953-1.119,10.389-1.894q1.82-.632,3.635-1.262c8.347-.87,16.121-3.989,24.142-6.138q1.234-.324,2.467-.649c17.579-4.21,34.336-10.846,51.264-17.034,12.282-4.489,24.783-8.367,36.192-14.941l1.215-.276L276.78,9c2.425-.169,4.21-1.675,6.114-2.929,5.976-.308,10.371-4.43,15.573-6.6,12.5-5.211,24.656-11.215,35.813-19.024,1.608.118,2.632-.984,3.79-1.808a9.887,9.887,0,0,0,5.59-4.06l.35-.443,3.895-2.26,1.011-.7c4.692-3.343,10.71-4.405,14.879-8.649l.089-.046q2.273-1.823,4.547-3.65c7.273-4.346,12.809-10.4,18.111-16.98,6.264-7.772,6.321-8.7-2.615-13.5-3.379-1.813-6.075-.876-9.195.224-1.9.669-4.928,2.336-5.216-1.808-.34-4.916-2.6-3.44-5.02-1.724-1.218.865-2.224,2.385-3.542,2.7-13.536,3.217-25.017,11.261-37.926,15.969-7.792,2.843-15.425,7.235-23.2,8.788-6.513,1.3-12.267,4.309-17.481,6.854-13.3,6.493-26.989,12.2-40.278,18.726-16.123,7.921-33.039,14.22-49.613,21.22l-1.217.47L188.766.66c-2.508.962-5.536.639-7.472,3.018-2.235.329-4.565.388-6.269,2.218-3.421,1.159-7.145,1.4-10.3,3.382-3.072.457-6.171.849-8.472,3.295l-2.46.854q-1.314.26-2.629.524l-7.619,2.123c-.182-.012-.391-.088-.538-.024a7.818,7.818,0,0,0-.871.526v0a.662.662,0,0,0-.7.091c-1.535-.774-2.858-.147-4.157.632l-8.839,2.57-2.445,1.1c-1.318.051-2.7-.133-3.723,1q-5.791,1.342-11.583,2.688c-11.839,2.189-23.6,5.012-35.536,6.409-15.042,1.759-30.4,3.45-44.128-5.651-4.27-2.831-8.2-6.178-12.282-9.291l-.069-.061C12.942,8.928,5.8,2.952,1.147-5.09c-1.193-2.246-2.3-4.545-3.6-6.731-4.5-7.578-6.85-16.067-9.476-24.311-3.613-11.345-15.447-13.689-23.354-9.361-2.029.679-4.038,1.437-6.1,2.024-5.288,1.508-10.43,9.572-9.233,15.019C-45.871-6.856-35,11.71-19.632,27.025c13.163,13.118,30.224,20.1,48.649,23.243q.781.473,1.562.949c.2-.029.4-.057.6-.083-.2.025-.4.056-.6.083.971,1.886,2.673,1.309,4.22,1.254m98.939-8.205a5.588,5.588,0,0,1-.7.224,5.326,5.326,0,0,0,.7-.224m-2.952-.133h0a12.15,12.15,0,0,0-2.192,2.169,12.15,12.15,0,0,1,2.192-2.169M115.354,29.8a4.287,4.287,0,0,1,.463-.241,4.287,4.287,0,0,0-.463.241m19.206,14.11q.361-.172.72-.345-.359.174-.72.345m7.275-23.034a8.807,8.807,0,0,0,.645,1.39,8.807,8.807,0,0,1-.645-1.39m9.034-.836q.361,2.6.721,5.194h0q-.359-2.6-.721-5.194m-12.13,7.115.013.008Zm24.151,4.2a6.162,6.162,0,0,0,1.475.826,6.162,6.162,0,0,1-1.475-.826m5.13-1.992.049.035s-.025-.017-.049-.035m-6.6-.317-.079-.059.079.059m26.659,1.429a20.388,20.388,0,0,0-1.464-6.35,20.438,20.438,0,0,1,1.466,6.35Zm56.942-14.631s0-.007,0-.01,0,.007,0,.01m-.14-.6h0l-.017-.01.017.01m-33.2,11.219c-.052-.007-.1-.013-.145-.022.042.008.093.015.145.022m-26.588-6.235-.049-.03.049.03m-30.14.5-.037.045C154.928,20.76,154.948,20.736,154.948,20.736Zm-29.631,4.488h0l-9.048,1.352h0l9.048-1.352M69.039,48.539A23.815,23.815,0,0,1,66.6,55.1a23.869,23.869,0,0,0,2.444-6.564M17.311,33.286a2.148,2.148,0,0,1,.393.042,2.148,2.148,0,0,0-.393-.042m-5.376.137a4.281,4.281,0,0,0,.035.445,4.281,4.281,0,0,1-.035-.445,7.2,7.2,0,0,1,.032-.929,7.2,7.2,0,0,0-.032.929m.34,1.464a2.833,2.833,0,0,1-.2-.526,2.833,2.833,0,0,0,.2.526M-5.242,9.118c-.1-.035-.219-.064-.31-.1l-.1,2.88.1-2.88c.091.04.207.069.31.1M-30.5-4.778c-.093-.487-.179-.976-.263-1.464.084.489.17.977.263,1.464" transform="translate(50.785 76.575)"/>
      </g>
    </g>
  </g>
</svg>
