<svg xmlns="http://www.w3.org/2000/svg" viewBox="4082.359 10550.163 175.778 175.778">
  <g id="Group_166" data-name="Group 166" transform="translate(3464.059 10550.163)">
    <path id="Path_63" data-name="Path 63" d="M706.189,175.778a87.889,87.889,0,1,1,87.889-87.889A87.992,87.992,0,0,1,706.189,175.778Zm0-164.943a77.054,77.054,0,1,0,77.054,77.054A77.125,77.125,0,0,0,706.189,10.836Z"/>
    <g id="Group_165" data-name="Group 165" transform="translate(677.294 66.459)">
      <g id="Group_163" data-name="Group 163" transform="translate(45.149)">
        <circle id="Ellipse_10" data-name="Ellipse 10" cx="6.02" cy="6.02" r="6.02" transform="translate(0.301 0.301)"/>
        <path id="Path_64" data-name="Path 64" d="M797.621,123.042a6.321,6.321,0,1,1,6.321-6.321A6.32,6.32,0,0,1,797.621,123.042Zm0-12.04a5.719,5.719,0,1,0,5.719,5.719A5.755,5.755,0,0,0,797.621,111Z" transform="translate(-791.3 -110.4)"/>
      </g>
      <g id="Group_164" data-name="Group 164">
        <circle id="Ellipse_11" data-name="Ellipse 11" cx="6.02" cy="6.02" r="6.02" transform="translate(0.301 0.301)"/>
        <path id="Path_65" data-name="Path 65" d="M722.621,123.042a6.321,6.321,0,1,1,6.321-6.321A6.32,6.32,0,0,1,722.621,123.042Zm0-12.04a5.719,5.719,0,1,0,5.719,5.719A5.755,5.755,0,0,0,722.621,111Z" transform="translate(-716.3 -110.4)"/>
      </g>
    </g>
    <path id="Path_66" data-name="Path 66" d="M741.05,197.616a85.038,85.038,0,0,1-33.35-6.863l4.214-9.993c19.2,8.067,38.768,8.067,59.777-.06l3.913,10.113A95.571,95.571,0,0,1,741.05,197.616Z" transform="translate(-35.583 -71.922)"/>
  </g>
</svg>
