<svg xmlns="http://www.w3.org/2000/svg" xmlns:xlink="http://www.w3.org/1999/xlink" viewBox="3204.213 6787 1479.574 1258.666">
  <defs>
    <style>
      .cls-1 {
        fill: none;
      }

      .cls-2 {
        clip-path: url(#clip-path);
      }

      .cls-3 {
        fill: #7fff72;
      }
    </style>
    <clipPath id="clip-path">
      <path id="Path_53" data-name="Path 53" class="cls-1" d="M0,442H1479.574V-816.667H0Z" transform="translate(0 816.667)"/>
    </clipPath>
  </defs>
  <g id="Group_154" data-name="Group 154" transform="translate(3204.213 6787)">
    <g id="Group_99" data-name="Group 99" class="cls-2">
      <g id="Group_89" data-name="Group 89" transform="translate(143.745 203.519)">
        <path id="Path_43" data-name="Path 43" class="cls-3" d="M3.827,8.077C14.358,14.946,20.56,25.7,28.719,34.575c9.223,10.032,17.419,21.079,26.5,31.353,9.5,10.747,20.905,19.745,28.8,31.974A70.479,70.479,0,0,0,95.08,111.7c15.774,14.488,30.914,29.585,45.707,45.064,7.2,7.529,14.9,14.574,22.369,21.838a7.146,7.146,0,0,0,3.778,4.073s.039.039.039.039c.638,1.825,2.452,2.275,3.811,3.257l-.029.331.281.176h0c9.63,10.291,20.131,19.495,32.569,26.323,11.162,6.126,22.289,12.316,33.432,18.478,4.214-.21,7.93,1.749,11.869,2.731l1.116.481c16.7,4.077,33.514,6.892,50.837,5.989,8.615-.45,17.268-.185,25.743-2.189a45.264,45.264,0,0,0,5.732-.7c1.527-.373,3.278-1.734,1.7-3.18-2.384-2.181-2.956-6.629-7.429-6.325q-7.844-1.808-15.691-3.613l-2.725-.794c-2.3-2.4-5.222-1.361-7.94-1.436-4.812-4.556-11.662-4.653-17.1-7.829l-1.723-.694a4.239,4.239,0,0,0-.62-.032,4.239,4.239,0,0,1,.62.032c-3.078-2.2-6.119-4.463-9.944-5.24q-.067,1.487-.136,2.975h0q.069-1.489.137-2.975l-3.81-1.993c-12.857-8.66-24.854-18.43-36.676-28.425l-.533.188.519-.223h0c-1.432-3.939-5.7-5.625-7.418-9.334-17.647-14.017-31.661-31.822-48.569-46.613l-.077-.151c-1.191-3.118-4.459-3.892-6.647-5.883a.624.624,0,0,0-.506-.564l-3.309-4.1c-2.279-.456-3.69-2.155-5.063-3.767-7.943-9.323-17.309-17.131-26.538-25.088a.486.486,0,0,0-.612-.521c-3.6-4.063-7.27-8.045-12.581-9.949q-2.46-2.86-4.92-5.723c-2.985-3.167-5.246-7.023-8.984-9.479,0,0-.106-.146-.106-.146a3.188,3.188,0,0,0-3.013-2.142l0,0a9.439,9.439,0,0,0-3.984-3.9l-.02-.02L85.489,38.7q-.562-.663-1.127-1.327c-.563-2.091-2.343-3-3.952-4.084-.146,1.789-.653,3.929.291,4.662-.945-.734-.438-2.873-.291-4.662-2.142-.046-3.626-.757-4.474-2.113a5.489,5.489,0,0,1-.711-1.934,5.489,5.489,0,0,0,.711,1.934c.848,1.356,2.332,2.067,4.473,2.111-.925-2.6-3.107-3.935-5.311-5.243h0c-1.88-3.147-5.411-4.292-7.993-6.592L66,20.18h0a1.6,1.6,0,0,0-1.49-1.5q.372.377.746.752-.375-.375-.746-.752-.571-.559-1.141-1.117l-6.735-5.545q-.062.506-.082.959.018-.453.082-.959l-2.5-2.363q-.645-.763-1.287-1.526l0,0a1.411,1.411,0,0,1-.949-.351,1.423,1.423,0,0,0,.951.351A1.266,1.266,0,0,0,51.5,6.816a1.422,1.422,0,0,0,.381.951,1.43,1.43,0,0,1-.382-.952,1.36,1.36,0,0,1-.988-.311,1.358,1.358,0,0,0,.986.31q-.684-.636-1.37-1.27v0q-.844-.862-1.686-1.726L43.991.655c-3.266-2.135-5.912-5.31-10.044-5.991q-.571-.358-1.141-.72c-.784-1.774-2.42-2.133-4.08-2.452L27-9.892c-3.705-2.881-7.361-5.9-12.584-4.759-3.16-.364-6.307-.559-9.34.72-1.688-.3-3.412-.78-4.67.977a1.533,1.533,0,0,0-2,.555c-.828-.18-1.207.191-1.235,1l-.156.156c-.792,0-1.114.4-.974,1.179-3.415,2.543-4.228,5.7-1.373,8.981C-2.494,2.182.441,5.869,3.827,8.077M231.734,200.964h0l.054-.054Zm.043-2.648h0l-.034-.032Zm-6.109,6.333c.052.062.1.12.142.182-.046-.063-.094-.12-.142-.182m-8.962-5.058a7.665,7.665,0,0,1-.411.831h0a7.413,7.413,0,0,0,.413-.831M210.3,210.8c.119-.194.231-.4.341-.615l.043-.045-.042.045c-.111.214-.223.421-.342.615m5.08-1.5a4.516,4.516,0,0,0,.482-.489,6.5,6.5,0,0,0,.658-.948,6.5,6.5,0,0,1-.658.948,4.516,4.516,0,0,1-.482.489m16.349,8.814a1.96,1.96,0,0,0,.057.512,1.96,1.96,0,0,1-.057-.512m35.493-10.642a4.041,4.041,0,0,1-2.5,1.564,5.451,5.451,0,0,1-.974.356,5.234,5.234,0,0,0,.974-.359,4.024,4.024,0,0,0,2.5-1.561M163.643,115.915c.094.015.183.04.279.051-.1-.011-.185-.035-.279-.051m-1.48-.416a7.783,7.783,0,0,1-.9-.439,7.905,7.905,0,0,0,.9.439m-2.993-2.025a11.658,11.658,0,0,0,1.446,1.187,11.658,11.658,0,0,1-1.446-1.187c-.527-.507-1.026-1.06-1.512-1.631.486.57.985,1.124,1.512,1.631" transform="translate(7.071 14.924)"/>
      </g>
      <g id="Group_90" data-name="Group 90" transform="translate(822.575 0.001)">
        <path id="Path_44" data-name="Path 44" class="cls-3" d="M5.644,153.127c8.611,2.6,17.605,4.141,25.694,8.452,6.126,3.266,18.747-1.156,20.511-7.726,2.683-9.986,8.788-18.356,12.092-27.986,1.95-7.13,3.3-14.124,9.741-19.532,3.981-3.341,3.081-10.488,6.185-15.233a1.806,1.806,0,0,1,.2-.875,1.806,1.806,0,0,0-.2.875c1-.045,1.544-.512,1.453-1.567-.581-.965.12.157.026-.015,2.608,1.273,2.434-2.551,4.42-2.415.324-2.267.9-4.422,2.736-6-1.9-3.87,1.276-6.731,2.008-10.077l.043-.079c2.691-.393,2.409-5.162,6.071-4.13a3.942,3.942,0,0,0,2.037-2.87c-.325-.456-.653-.911-.979-1.366q.52-1.854,1.042-3.705a6.9,6.9,0,0,1-1.9-3.671,6.9,6.9,0,0,0,1.9,3.671c5.092-6.111,10.061-12.3,13.125-19.763l.294-.385h0c7.278-4.765,7.942-14.372,14.552-19.849,1.709-1.416,5.234-2.523,4.895-6.046a9.59,9.59,0,0,0,2.589-5.314,6.331,6.331,0,0,1-2-2.423,1.7,1.7,0,0,1-.057-1.071,1.7,1.7,0,0,0,.057,1.071,6.331,6.331,0,0,0,2,2.423l2.105-1.279c3.909-3,4.593-7.863,6.815-11.84,3.008-2.412,4.514-5.878,6.374-9.095a6.951,6.951,0,0,0,2.871-4.027q1.151-.455,2.306-.908l-.042-.535.262-.467q.245-1.267.489-2.531l.2-.157a201.326,201.326,0,0,0,17.507-22.069q.5-.765.993-1.534c.576-2.013,3.3-2.591,3.324-4.972,2.233-2.953,4.98-5.541,6.415-9.059q.573.067,1.14.179,1.392-1.556,2.783-3.115.141-1.121.284-2.241c-.242-.234-.479-.472-.714-.709q.354.358.714.709l3.263-1.193-.129-.319.25-.236a2.2,2.2,0,0,1,1.481-2.62c.065-2.133,1.777-3.055,3.119-4.251l4.61-5.319c3.309-6.865,10.392-10.96,13.285-18.129l.039-.037c2.882-.966,4.567-3.15,5.847-5.746l.244-.256c10.933-11.79,21.548-23.85,32.053-36.038,16.3-18.92,34.752-35.874,51.794-54.163,11.331-12.162,22.953-24.219,35.795-35.035,6.851-5.772,14.321-11.44,17.5-18.237-.248.231-2.128.029-3.616-1.23-1.563-1.324.354-2.672.473-3.961.512-5.528,6.8-5.869,8.578-10.1a.678.678,0,0,0,.516-.956,6.69,6.69,0,0,1,1.361-1.275c3.135-1.6,6.911-2.991,1.315-6.418-.225-.137.114-1.2.191-1.826.549-.63,1.424-1.193,1.569-1.9.219-1.082-.595-1.478-1.594-.989-7.4,3.622-5.69-2.649-6.689-6.561-4.94,3.744-10.972,3.412-16.425,5.135-1.073-1.389-.858-5.2-4.266-1.709-4.388,4.49-9.213,8.552-13.849,12.8l-2.549,1.182c-3.947,5.424-9.714,8.825-14.643,13.154q-.654,2.027-1.305,4.052v0q.652-2.023,1.305-4.05c-4.749-1.934-1.862-5.142-1.325-7.957a6.7,6.7,0,0,0-4.1,1.618c-9.021,6.15-15.744,14.731-23.628,22.077-8.776,7.037-16.534,15.169-24.73,22.832-1.876,1.754-3.508,3.21-3.019,5.971-3.045-.5-4.651,1.592-6.567,3.4-8.5,8.039-15.685,17.274-24.5,25.136C208.133-169,198.15-156.968,187.5-145.688c-2.212,2.386-4.528,4.684-6.615,7.174-7.384,8.822-15.679,16.921-21.566,26.942l-3.6,3.5c-3.671,3.553-7.456,7-10.382,11.242h0c-4.023,5.2-6.942,11.219-11.83,15.765-9.944,8.93-16.527,20.418-23.867,31.328-3.573,2.09-5.081,6.055-7.973,8.766l-.925,1.527c-5.727,5.935-9.267,13.412-14.088,19.985-2.52,3.3-5,6.626-7.567,9.885C73.65-2.67,70.639,5.859,64.432,12.242,53.254,29.669,41.712,46.877,31.077,64.629,26.9,71.61,20.924,77.794,19.422,86.269c-.808,2.375-3.5,3.741-3.506,6.549-2.4.939-2.951,3.192-3.756,5.266l-.028.055c-3.254,4.967-6.216,10.078-7.859,15.842C.043,120.966-4.24,127.92-8.389,134.953c-1.292,2.193-3.351,4.861-.886,7.134,4.537,4.181,8.355,9.061,14.919,11.04M34.987,83.51c.094.163.211.328.294.49v0c-.083-.163-.2-.328-.294-.492m29.2-52.627,0,.012c.062.023.123.046.191.066a.947.947,0,0,0,.5.06l.1.035c.114,1.94.2,3.884.353,5.821A17.976,17.976,0,0,0,64.195,30.9a1.464,1.464,0,0,1-.25-.112c.082.034.162.069.245.1m4.422,5.871h0c-.156.359-.506.8-.4,1.056-.1-.259.25-.7.4-1.056M103.834,2.8a2.6,2.6,0,0,0,.825.68,2.6,2.6,0,0,1-.825-.68c-1.2-1.424-1.7-4.026-3.925-3.634,2.232-.391,2.723,2.21,3.925,3.634M133.5-69.183s0,0-.006-.006ZM124.381.679A6.179,6.179,0,0,1,122.7,4.342,6.168,6.168,0,0,0,124.38.679a2.678,2.678,0,0,0,2.557-1.305A2.677,2.677,0,0,1,124.381.679m-6.575,13.188h0c-2.119-.362-4.374-.744-5.088-2.867.714,2.122,2.968,2.5,5.088,2.867m7.447-59.844c.057-.159.113-.317.168-.478-.055.16-.111.319-.168.478M146.8-41.361l-.2-.256s.2.257.2.254Zm-5.223,24.045a3.214,3.214,0,0,1-.831-.256,3.214,3.214,0,0,0,.831.256M133.906-5.349h0m-5.9-17.847c0-.052.012-.1.015-.157,0,.052-.012.1-.015.157m-.709,3.987c0,.022-.011.045-.017.066.006-.022.012-.045.017-.066m-2.793,9.876a5.705,5.705,0,0,0,1.213-1.871,5.705,5.705,0,0,1-1.213,1.871m6.353,8.2.014-.173Zm-3.922-.826-.026-.035Zm15.523-72.558c2.723.487,3.815,2.017,2.256,3.585,1.558-1.567.467-3.1-2.258-3.585ZM86.077,40.23a2.43,2.43,0,0,1-.506.64,2.438,2.438,0,0,0,.506-.641A5.3,5.3,0,0,0,87.8,40.2a3.666,3.666,0,0,0,1.369-.569A3.666,3.666,0,0,1,87.8,40.2a5.343,5.343,0,0,1-1.722.034M99.261,1.3c.009.234.018.469.028.7.387.727.373,1.048.176,1.184a.989.989,0,0,1-.575.085.989.989,0,0,0,.575-.085c.2-.136.211-.456-.176-1.184-.009-.236-.018-.47-.028-.7M96.1,7.2c-.057-.079-.114-.157-.162-.236.048.079.1.157.162.236a2.6,2.6,0,0,1,.31.47,2.6,2.6,0,0,0-.31-.47M90.034,2c-.008-.435-.012-.868-.015-1.3a6.433,6.433,0,0,0-.7.408A6.08,6.08,0,0,1,90.02.7c0,.435.006.868.014,1.3m-4.291,36.2a3.551,3.551,0,0,0,.133,1.322,3.551,3.551,0,0,1-.133-1.322M87.757,4.539A5.34,5.34,0,0,1,87.85,3.18a5.34,5.34,0,0,0-.092,1.359M86.066,40.217ZM76.907,26.052l-.119.083.119-.083m-1.4.974h0l.039.039-.039-.039m5.838,62.494h0q1.087-3.946,2.184-7.888-1.091,3.944-2.184,7.888M130.874-1.941h0a22.336,22.336,0,0,0,2.165-1.543,22.336,22.336,0,0,1-2.165,1.543m12.163-9.052q-.284,2.4-.567,4.8.282-2.4.564-4.8c1.538-2.091,4.271-3.486,3.924-6.684.347,3.2-2.386,4.593-3.921,6.686m9.492-12.882a4.026,4.026,0,0,1,.706.074,4.026,4.026,0,0,0-.706-.074M159.9-77.093h0a9.791,9.791,0,0,0,1.261-3.309,9.791,9.791,0,0,1-1.261,3.309m22.966-34.184c1.6.393,2.284,1.688,2.039,3.9h0c.245-2.213-.441-3.508-2.039-3.9a5.767,5.767,0,0,0-1.874-.094,5.767,5.767,0,0,1,1.874.094m33.676-40.984a8.78,8.78,0,0,0,1.375,1.623,25.891,25.891,0,0,1,2.105,2.152,25.891,25.891,0,0,0-2.105-2.152,8.853,8.853,0,0,1-1.376-1.623c-.31-1.319-.586-1.725-.843-1.681.257-.043.533.362.845,1.681m6.536-7.965c.706.187,1.817-.031,2.492.227-.675-.257-1.788-.04-2.494-.227Zm8.6,36.018h0a2.685,2.685,0,0,0-.146-.254,2.685,2.685,0,0,1,.146.254m-4.556.963a1.921,1.921,0,0,0,.034-.324,1.921,1.921,0,0,1-.034.324M237.536-143.8a1.162,1.162,0,0,0-1.632-.835,1.162,1.162,0,0,1,1.632.835m-.838,5.875a4.039,4.039,0,0,0,.408,1.495,4.039,4.039,0,0,1-.408-1.495m1.023-4.858h0q.74-.691,1.48-1.378a5.018,5.018,0,0,1,1.174.408,5.091,5.091,0,0,0-1.171-.407q-.742.687-1.483,1.376m-13.367-19.581c-.006-.009-.018-.015-.025-.025.006.009.018.015.025.025m-1.313-.411c.213.02.418.045.606.082-.188-.037-.393-.062-.606-.082m.731.109a1.4,1.4,0,0,1,.427.159,1.4,1.4,0,0,0-.427-.159M195.589-87.624c-.709-.051-1.453,0-2.144-.1C194.135-87.62,194.88-87.675,195.589-87.624ZM180.844-104.8a5.914,5.914,0,0,1,1.2-1.438,5.914,5.914,0,0,0-1.2,1.438m12.766,1.541a1.671,1.671,0,0,0,.031-1.009,5.446,5.446,0,0,0-.23-.743,5.446,5.446,0,0,1,.23.743,1.671,1.671,0,0,1-.031,1.009m-.173.291a2.993,2.993,0,0,1-1.919.826l.015.009h0l-.014-.009a2.993,2.993,0,0,0,1.919-.826m10.835-36.444c-1.46-.868-3.237-1.381-3.5-3.385v0c.268,2.007,2.045,2.52,3.5,3.388m3.489,1.609c.034-.091.077-.182.108-.273.04.014.086.028.136.042-.049-.014-.1-.026-.136-.042-.031.091-.074.182-.108.273m3.1,4.106a5.582,5.582,0,0,1,.27.689,5.582,5.582,0,0,0-.27-.689m-1.407-.5a.982.982,0,0,1,.336-.325.982.982,0,0,0-.336.325m1.836,1.737h0l.018.017Zm-10.539-11.114c0,.072.006.17,0,.247,0-.077-.009-.174,0-.247M180.961-111.37q-.606-.2-1.176-.364a17.084,17.084,0,0,0-2.15-.465,17.084,17.084,0,0,1,2.15.465q.571.16,1.176.364m-.849,14.95c-.057-.126-.114-.251-.17-.378.055.126.113.251.17.378M220.688-108.7a9.734,9.734,0,0,1,.71-1.025,9.734,9.734,0,0,0-.71,1.025m51.283-94.764c2.52,2.992,4.32,6.481,6.347,9.815-2.027-3.334-3.827-6.822-6.347-9.813ZM283.8-218.135a2.152,2.152,0,0,0,.735.951,2.152,2.152,0,0,1-.735-.951M272-204.141a1.25,1.25,0,0,0-.1-.616,1.25,1.25,0,0,1,.1.616m50.017-31.147a9.571,9.571,0,0,0-1.638-.327A9.571,9.571,0,0,1,322.018-235.287Zm-2.5,14.945a14.076,14.076,0,0,1,1.55-1.987,14.076,14.076,0,0,0-1.55,1.987m3.838-3.059a3.247,3.247,0,0,0-1.641.546,3.246,3.246,0,0,1,1.64-.546c.489-.2.993-.384,1.487-.576-.495.193-1,.371-1.486.576m-10.534,6.755c-2.25-.065-4.34-1.33-6.6-2.773h0c2.255,1.443,4.346,2.708,6.6,2.773m-13.877-29.439c-.63-.156-1.173-.271-1.635-.336.462.065,1,.18,1.635.336M268.6-208.418c.122-.146.243-.294.364-.442-.054-.1-.109-.208-.165-.313.055.1.111.208.165.313-.12.148-.242.3-.364.442m.091-.959h0c-.122.148-.328.29-.342.447.014-.157.22-.3.342-.447m-54.764,54.448.125,2.763a.306.306,0,0,0,.159.088.293.293,0,0,1-.16-.089q-.06-1.38-.123-2.76Zm-34.311,35.712q.67,3.923,1.342,7.846-.67-3.923-1.342-7.845-1.295-.032-2.586-.066a6.6,6.6,0,0,1,.082-.774,6.947,6.947,0,0,0-.082.774q1.292.035,2.586.065m-2.962,6.919a9.151,9.151,0,0,0-.917-.008,9.151,9.151,0,0,1,.917.008m-14.662,18.65c-1.927,1.6-3.856-.059-6.14-1.443-2.164-.647-2.2,1.734-3.492,2.663a1.815,1.815,0,0,1-.7.31,1.815,1.815,0,0,0,.7-.31c1.293-.929,1.329-3.311,3.492-2.668,2.284,1.387,4.214,3.041,6.14,1.447M130.9-53.374h0a6.326,6.326,0,0,0-1.342-.1,6.346,6.346,0,0,1,1.344.1M111.2-27.022q-.458.009-.922-.017a20.048,20.048,0,0,1-4.782-.968q-.485-.153-.971-.319.485.166.971.319a20.048,20.048,0,0,0,4.782.968q.465.025.922.017m-1.174-11.536h0c-.1.028-.2.046-.3.072.1-.026.2-.045.3-.072m-24,43.208c-.077-.174-.146-.379-.216-.59s-.136-.427-.207-.626c.071.2.139.416.207.626s.139.416.216.59a3.516,3.516,0,0,0,1.151.965,3.516,3.516,0,0,1-1.151-.965l-2.639-.069,2.639.069M48.454,46.8c-.043.134-.08.251-.117.37.037-.119.074-.236.117-.37" transform="translate(10.428 282.928)"/>
      </g>
      <g id="Group_91" data-name="Group 91" transform="translate(414.247 717.874)">
        <path id="Path_45" data-name="Path 45" class="cls-3" d="M14.3,153.128C9.28,165.819,2.259,177.7-1.086,191.073a1.6,1.6,0,0,0-.387,1.191c-2.942,2.693-4.3,5.986-5.592,9.864-3.565,10.668-8.409,20.9-12.464,31.415-2.907,7.537-7.048,14.808-6.886,24.319,5.046-5.787,6.712-12.5,11.877-16.741.334-6.445,4.286-11.351,6.7-16.924,1.906.869.126,3.274,2.685,3.7,1.219-2.987,2.484-6.085,3.75-9.183,3.19.735,5.491-1.1,7.862-2.728q.178-1.967.354-3.936c-1.734-.122-3.38,1.689-5.175.237q.594-1.047,1.19-2.093c1.094-.943,5.029.134,2.446-3.429a8.551,8.551,0,0,0,1.812-6.011c2.207-.45,1.738-2.028,1.384-3.559,1.233-.162,2.4,2.292,2.976,1.056,1.632-3.512,6.271-6.116,4.127-11.676-2.6,1.728-3.9,5.276-7.339,3.516-1-.51-.929-1.37-.45-2.184,1.971-3.355,5.094-1.139,7.677-1.543,2.346-.365,1.41.891,1.281,2.213-.347,3.539,1.846,3.267,4.212,2.42l.006-.012c-.023-4.7,4.107-8.481,2.975-13.419,6.128-2.881,6.407-9.5,9.178-14.517,1.419-2.568,2.078-4.673,6.395-3.68,5.162,1.188,9.4-3.494,10.59-7.483,1.275-4.286,4.249-6.6,6.371-9.839q0-1.181,0-2.366c-.92-1.379-.153-2.195.966-2.893a81.992,81.992,0,0,1,11.775-20.874c-.037-2.084-2.058-4.705,1.569-5.8.761-1.914.149-4.488,2.666-5.561,2.127-6.145,7.4-10.315,9.442-16.906,1.745-5.644,3.146,1.658,5.194,1.782,2.1-9.785,11.531-15.269,14.44-24.581,1.609-5.155,4.827-9.455,7.307-14.145,3.563-6.738,8.431-12.761,10.718-20.267a32.879,32.879,0,0,1,5.53-9.81c4.269-5.408,6.072-12.083,10.676-17.279,3.013-3.4,7.07-6.908,8.168-11.314,2.4-9.616,10.292-15.287,16.385-21.272,4.844-4.758-1.017-8.247,2.061-11.559,2.93-3.155,8.975-1.939,10.066-7.521a15.913,15.913,0,0,1,1.877-5.5c8.111-12.66,14.255-26.366,21.274-39.606l.02-.034c6.475-9.511,10.647-20.195,15.559-30.5l.011-.072a9.951,9.951,0,0,0,1.974-5.36c4.941-9.224,8.77-18.937,12.595-28.651a12.249,12.249,0,0,0,1.407-2.132c7.153-18.126,14.745-36.1,21.226-54.464,4.134-11.718,10.066-22.65,13.893-34.434,1.54-4.741,3.536-10.852-.182-14.241-4.086-3.727-7.472-9.232-13.837-10.1-7.937-4.554-16.513-6.911-25.5-8.639-9.488-1.825-12.866-1.353-15.841,6.851-8.056,22.218-17.231,44.053-23.425,66.924a.765.765,0,0,0-.313,1.034c-1.065.726-.923,1.757-.709,2.808q-.308,1.35-.617,2.7-.536,1.269-1.076,2.541c-.572.259-1.116.53-.569,1.285l-.92,3.642c-5.137,10.3-9.033,21.119-13.119,31.856l8.053-5.106h0l-8.053,5.106s-.045.071-.045.072h0v0c-7.943,21.09-18.727,40.9-27.788,61.5-6.638,15.092-15.178,29.346-22.87,43.976-8.088,13.581-15.6,27.569-22.482,41.7C81.152,11.185,66.521,36.629,55.106,63.691c-6.146,14.571-14.75,28.121-20.674,42.767-6.361,15.724-13.9,30.908-20.133,46.67m-18.6,54.308c-1.6,2.856-1.947,4.584-.956,6.506-.991-1.922-.644-3.65.956-6.506m28.081-29.82c-1.8,1.609-2.318,4.445-5,5.277.863-5.171-.367-11.138,5.955-13.973,1.427,2.975-3.029,5.564-.959,8.7m23.858-54.049c-.462-2.973-.592-5.875.646-8.475-1.238,2.6-1.108,5.5-.644,8.472q1.7-.608,3.4-1.219l-3.4,1.222m91.29-197.035q.044-.492.088-.986a.005.005,0,0,0,0,0c-.031.328-.06.655-.089.983M85.879,18.361a2.027,2.027,0,0,0,.772.7,2.027,2.027,0,0,1-.772-.7m-14.8,23.707c-.02.321-.02.65-.029.98a6.463,6.463,0,0,1-.083.971,6.463,6.463,0,0,0,.083-.971C71.059,42.718,71.059,42.388,71.079,42.068ZM60.474,104.025a8.027,8.027,0,0,0,1.093.351,8.1,8.1,0,0,1-1.093-.351m1.053,9.13c.214-1.171-.086-2.125-2.249-2.568q.284-1.554.566-3.106-.282,1.551-.566,3.106c2.162.442,2.463,1.4,2.249,2.568M94.169,70.5a11.605,11.605,0,0,1-1.617,4.266c-1.517,1.871-2.971,4.033-5.522,4.658a1.38,1.38,0,0,1-.535-2.107c2.127-2.736,1.336-7.443,4.775-8.6,2.236-.012,3.32.236,2.9,1.785m12.51-31.051h0c.2.576.4,1.153.633,1.806-.23-.653-.432-1.23-.633-1.806m45.737-91.293a1.407,1.407,0,0,1-1.558-.672,1.406,1.406,0,0,0,1.558.672m5.837,9.56a4.082,4.082,0,0,0,1.059-.177,4.082,4.082,0,0,1-1.059.177m11.82-117c0,.029-.011.062-.014.091,0-.029.011-.062.014-.091m15.169-27.694a.864.864,0,0,1-.086.06.864.864,0,0,0,.086-.06m14.563-3.65q.467.044.934.085l-.937-.083,0,0m9.183-25.063c.068-.367.129-.7.194-1.039a7.425,7.425,0,0,1-.194,1.039m1.777,5.957-.327-.18Zm-1.772,6.023a15.136,15.136,0,0,1,1.814-.734q0-1.755.009-3.508,0,1.755-.009,3.508a15.389,15.389,0,0,0-1.814.734,3.454,3.454,0,0,1-.593.183,3.454,3.454,0,0,0,.593-.183m28.187-13.9h0c0,.217-.028.458-.039.684.011-.227.043-.467.039-.684m-22.765,1.89h0c-.154.356-.307.712-.461,1.066.154-.354.307-.71.461-1.066m-29.585,28.992c-1.022.384-2.873-.285-4.393-.516v0c1.518.233,3.371.9,4.393.518M49.668,126.892A4.723,4.723,0,0,1,49,126.55a4.723,4.723,0,0,0,.672.342q.344-.474.692-.945c.755.116,2.34.028,1.828.96-4.261,7.763-7.546,15.956-11.108,24.079,1.666-8.478,3.18-16.972,8.588-24.094" transform="translate(26.419 282.93)"/>
      </g>
      <g id="Group_92" data-name="Group 92" transform="translate(1051.738 264.638)">
        <path id="Path_46" data-name="Path 46" class="cls-3" d="M50.595,50.865l-1.239.633-.059.026L-.335,87.27c-5.915,4.451-11.9,8.82-17.735,13.369-23.089,17.978-46.254,35.864-69.061,54.194-3.144,2.526-8.209,6.721-5.656,11.225s4.99,9.989,9.827,12.72c8.35,4.716,17.333,8.35,25.49,13.35a13.013,13.013,0,0,0,11.1,1.618,31.47,31.47,0,0,0,14.031-8.161c15.825-15.253,31.274-30.917,48.781-44.318,10.587-5.767,19.9-13.27,28.921-21.181l.037-.043c5.052-3.1,10.127-6.177,14.195-10.6q.786-.751,1.572-1.5a17.5,17.5,0,0,1-.492-2.99c-.054-.512-.1-1.025-.173-1.53a13.956,13.956,0,0,0-.273-1.481,13.956,13.956,0,0,1,.273,1.481c.068.506.119,1.019.173,1.53a17.454,17.454,0,0,0,.492,2.988C72.5,103.682,80.567,94.722,90.1,87.873a2.961,2.961,0,0,0,3.075-1.9q1.107-.7,2.213-1.4c1.9.256,2.9-.687,3.255-2.469l4.695-2.617c2.178.2,2.962-1.463,3.9-2.924,3.2-.609,6.025-1.868,7.9-4.7,1.594-.783,3.446-1.214,4.237-3.1l1.273-1.188,2.631-1.211,1.227-.3,9.213-6.558.065-.062a18.952,18.952,0,0,0,7.717-5.323l.072-.091c3.986-1.4,7.723-3.209,10.639-6.39l.02-.014a167.6,167.6,0,0,0,17.629-10.832c19.706-13.9,42.233-23.331,60.843-38.9,3.65-3.053,9.065-3.2,12.371-7q.289-3.049.575-6.1a6.22,6.22,0,0,1-.741-.919v0a6.169,6.169,0,0,0,.741.92c4.124-1.856,8.2-3.819,12.391-5.514,1.735-.7,3.537-3.133,5.624-.465q.8-.546,1.594-1.09c-4.809-3.947-1.416-5.165,2.079-6.606,2.779-1.147,5.411-2.651,8.107-4,4.394-2.241,8.033-6.015,13.276-6.524-2.714-2.155-3.54-4.22.26-6.1,9.226-4.573,16.141-12.832,26.039-16.328a7.165,7.165,0,0,1,1.282-.211l.361-.182c.612-1.834,1.911-2.19,3.613-1.681.4-.2.794-.408,1.191-.613.757-2.1,1.513-4.2,2.279-6.324-1.987-1.315-4.2.017-7-.632,2.2-2.036,7.083-.092,6.288-4.759-2.637-1.347-5.954,3.864-7.332.344-1.278-3.266,3.742-3.158,5.661-4.949,3.736-3.486,8.686-4.605,13.4-6.109,1.785-1.225,1.886-1.806.544-2.854-2.83-2.209-.541-3.118,1.05-4.178-2.346.452-3.759,2.155-6.057,2.68-12.4,2.833-24.154,7.779-36.219,11.729-14.115,4.622-26.793,12.559-41.12,16.878-10.277,3.1-19.305,9.668-29.464,13.623-3.289,1.281-7.316,2.693-10,5.7-13.581,5.012-25.977,12.3-38.208,19.908-1.068-.094-2.189-.338-2.751.983-1.087.123-2.34-.059-2.672,1.452-15.719,8.175-31.537,16.18-45.981,26.56-11.373,5.719-21.707,13.161-32.609,19.658l-1.68,1.572c-1.668.626-3.4,1.151-4.431,2.785l-.4.285L63.746,42.03l-.12.119-11.491,8.07q-.77.321-1.54.646M24.288,95.055c-.211,0-.422,0-.633,0,.211,0,.422,0,.633,0l.039-.045s-.039.045-.039.045c1.127,1.037.973,2.242.7,3.479.27-1.236.424-2.441-.7-3.479m.663,3.667c-.059.26-.119.522-.171.784.052-.262.113-.524.171-.784m-7.33,4.738c2.925,5.274,3.919,6.476,7.227,5.424-3.309,1.053-4.3-.148-7.235-5.42l.008,0m8.955-8.583c.142-.043.284-.085.424-.122-.14.037-.282.079-.424.122M37.454,72.61l.079-3.872-.079,3.872a3.108,3.108,0,0,0-.472,3.559,3.106,3.106,0,0,1,.472-3.559m6.5,21.167v0c.094.074.179.151.285.223.214.148,2.341.589,2.426-.936.028-.485.045-.969.048-1.432l-.011-.008a7.168,7.168,0,0,0-.515-2.785,4.593,4.593,0,0,1,.526,2.793,33.627,33.627,0,0,0,5.346,3.475c1.177-1.4,2.4-2.619,4.127-1.985-1.726-.633-2.95.589-4.126,1.985-.02.37-.034.741-.043,1.111q.624.705,1.247,1.412l-1.247-1.41q.014-.557.042-1.113a8.505,8.505,0,0,0-5.339-1.395c-3.719,3.969-1.13,8.575-1.319,12.9.153-3.519-1.557-7.278-1.447-12.838a3.613,3.613,0,0,1-.917-1.042,3.655,3.655,0,0,0,.917,1.04m1.44,13.11h0l.022.022Zm5.154-.273a4.4,4.4,0,0,1-.976.4,4.4,4.4,0,0,0,.976-.4m2.827-7.8h0a20,20,0,0,1-.507,4.476,19.914,19.914,0,0,0,.506-4.476m-.583,4.721c-.052.174-.1.35-.162.515.06-.165.109-.341.162-.515m-.285.8c-.059.139-.114.282-.18.413.066-.131.122-.274.18-.413M57.555,93.52a.587.587,0,0,0-.3.185.587.587,0,0,1,.3-.185,1.584,1.584,0,0,1,.965.166,1.584,1.584,0,0,0-.965-.166m-.308-6.347c-1.151-.282-2.578.092-3.813.006a3.359,3.359,0,0,1-.882-.166,2.207,2.207,0,0,1-1.09-.8,2.216,2.216,0,0,0,1.09.8,3.359,3.359,0,0,0,.882.166c1.235.086,2.662-.288,3.813-.006l.046,2.631-.046-2.631M60.3,94.659c.116.065.23.126.342.186-.113-.06-.227-.122-.342-.186m51.018-66.841L111.3,27.8Zm1.7-.515c-.032-.048-.065-.1-.1-.142C112.956,27.207,112.988,27.255,113.02,27.3Zm-.413-8.723.1.1-.1-.1M98.795,48.987a6.234,6.234,0,0,0-.089,1.039,6.234,6.234,0,0,1,.089-1.039m.652,5.169h0c.015,1.547-.939,3.139-1.7,4.739a9.627,9.627,0,0,0-.857,2.4,9.627,9.627,0,0,1,.857-2.4c.764-1.6,1.718-3.192,1.7-4.739M149.113,8.843c-1.156-1.791.236-4.476-.584-6.41.82,1.934-.572,4.618.584,6.41m1.8,5.343a22.418,22.418,0,0,1-1.424-4.88c-.066-.065-.111-.137-.17-.2.059.068.1.142.17.207a22.43,22.43,0,0,0,1.424,4.878m2.568,4.385.014.014,2.611-1.3s.043-.051.042-.051h0l-.042.051c.207,1.725-.7,3.412-1.261,5.142.564-1.729,1.467-3.417,1.259-5.14l-2.609,1.3-.014-.014a19.86,19.86,0,0,1-1.435-2.127,19.86,19.86,0,0,0,1.435,2.127M193.1,9.392c-.018-.262-.039-.526-.057-.789.019.264.039.526.059.789Zm-.185-2.514v0h0l0,0c.572-.559,1.583-1.386,2-1.851-.416.465-1.426,1.29-2,1.851Zm0,0h0q-.654,1.2-1.313,2.409c-2.471-.006-4.765.2-6.233,1.358,1.467-1.162,3.761-1.364,6.231-1.359q.659-1.2,1.315-2.407M181.105,17.338c-1.083.885-2.144,1.8-3.221,2.694,1.079-.891,2.138-1.809,3.221-2.694.048.393.108.784.177,1.173a7.24,7.24,0,0,0,1.156.034,7.425,7.425,0,0,1-1.156-.032c-.069-.39-.129-.781-.177-1.174m5.259-9.944c.128-.128.321-.28.476-.418-.156.137-.348.29-.476.418a10.916,10.916,0,0,1-1.13-1.359,10.916,10.916,0,0,0,1.13,1.359m.629-.976a1.642,1.642,0,0,1,.092.217c-.026-.076-.06-.145-.092-.217m-3.5-1.493c.342.149.68.311,1.034.428-.37-.122-.724-.293-1.085-.441l.051.012m1.734,5.821s0,.006-.008.008,0,0,.008-.008m3.924-25.322c.2,0,.4.009.595.009-.2,0-.4-.009-.6-.009,0-.151-.012-.365-.017-.543,0,.177.018.391.018.543m1.174-.046c.066-.015.011-.561.012-.863h0c0,.3.054.848-.014.863M183.749,4.449a.016.016,0,0,1,.018-.014s-.012.012-.018.014M179.868-3.83l.086-.1-.086.1m-10.54,34.278h0a13.149,13.149,0,0,1,1.877-.2,13.149,13.149,0,0,0-1.877.2m-5.806-27.32c.032-.092.077-.186.111-.279-.034.092-.079.186-.111.279-.04-.014-.089-.028-.14-.042.051.014.1.028.14.042m-1.877,28.007a3.678,3.678,0,0,1-.993.22,3.678,3.678,0,0,0,.993-.22m-14.959,5.852c.641-2.005,1.045-4.137,2.9-5.5q1.311-.5,2.622-1.006l0,0s0,0,0,0q-1.311.5-2.622,1.01c-1.859,1.359-2.263,3.491-2.9,5.5a2.42,2.42,0,0,1-.664-.045,2.342,2.342,0,0,0,.661.043m6.806-6.546,2.637,2.612c.578-1.681,2.011-1.649,3.454-1.657-1.443.008-2.876-.023-3.454,1.657l-2.637-2.612M166.347,34.1c.493-.072.988-.14,1.476-.222-.489.082-.983.149-1.476.222m2.918-.524a8.047,8.047,0,0,0,1.356-.492,8.047,8.047,0,0,1-1.356.492m3.044-3.418c-.333.039-.681.063-1.028.086.347-.023.7-.048,1.028-.086a6.794,6.794,0,0,0,.966-.168,6.832,6.832,0,0,1-.966.168m11.5-14.165c-.043-.379-.068-.735-.076-1.073.008.338.032.694.076,1.073m84.38-55.425h0a9.421,9.421,0,0,1,.16-.929,8.983,8.983,0,0,0-.159.929M201.681,7.43c-1.52,2.412-4.61,1.665-7.207,1.934l-1.353,1.2,1.352-1.2c2.6-.27,5.689.478,7.208-1.934M124.059,38.587a1.9,1.9,0,0,1,1.019-.14,1.9,1.9,0,0,0-1.019.14c-.761.368-1.235,1.435-2.2,3.651h0c.966-2.216,1.44-3.284,2.2-3.651" transform="translate(93.482 93.981)"/>
      </g>
      <g id="Group_93" data-name="Group 93" transform="translate(622.517 4.136)">
        <path id="Path_47" data-name="Path 47" class="cls-3" d="M.031,135.78c.008,2.1.282,5.6,3.047,4.428,4.286-1.817,5.075,1.634,7.188,3.23a.161.161,0,0,1,.011.017,2.786,2.786,0,0,0,2.81,2.431l.222.367.424-.068c4.923,2.783,8.927,1.973,12.293-2.742,1.062-1.487,1.681-4.354,3.785-4.029,4.872.754,4.983-2.768,6.222-5.693,2.226-5.252,4.721-10.391,7.105-15.576,1.689-.314,1.45-1.643,1.486-2.825l-.305-2.221c-.421-.385-1.142-.823-1.447-1.19.305.367,1.028.8,1.45,1.19q.148,1.11.3,2.221c.555.183,1.387.2,1.611.581.575.977.872,3.029,1.3,3.033,2.423.026,2.045-2,2.42-3.7,2.068-9.371,5.011-18.519,6.388-28.075a350.388,350.388,0,0,1,8.124-39.485c2.608-9.875,5.669-19.646,7.862-29.61C75.936,1.665,82.286-14.1,83.687-31L87.77-43.764q.576-2.733,1.148-5.467.943-3.385,1.888-6.769l9.012-36.7c-.307.086-.613.179-.919.274.305-.1.612-.188.919-.274l.342-2.574a56.346,56.346,0,0,0,4.147-16.955c3.418-10.824,5.511-21.956,7.738-33.058q.331-.67.663-1.344.892-4.8,1.786-9.6a7.256,7.256,0,0,0,1.145-2.29c1.248-13.439,4.728-26.535,6.453-39.848,1.84-14.207,3.383-28.551,3.11-42.977-.069-3.7-1.037-7.177-4.815-7.436-7.213-.495-14.42-1.882-21.7-1.028q-.654-.042-1.31-.08l-.324-.475-.572.072c-3.152-1.916-5.494,1.509-8.39,1.272a11.407,11.407,0,0,0-8.375,1.831l-4.671.282c-1.316-.542-2.315-.325-2.791,1.157h0c-4.194.988-5.308,3.942-5.069,7.829.464,7.538.88,15.079,1.315,22.619q-.164,1.3-.33,2.6c-1.851,2.933-1.09,6.145-.993,9.286q.007.68.012,1.358l-2.58,15.8c-2.885,24.932-9.079,49.247-13.837,73.829q-.305,1.336-.609,2.674a35.888,35.888,0,0,0-1.538,4.277c-3.516,15.525-6.831,31.1-10.491,46.585-3.606,15.261-7.654,30.421-11.3,45.673-2.286,9.548-3.5,19.4-6.438,28.731C15.483,31.1,12.5,47.133,8.458,62.915,5.644,73.9,5.377,85.343,2.68,96.472c-1.648,6.8-3.092,14.455-1.2,21.848C-.555,124.009.009,129.926.031,135.78M72.408-78.173h0C71.9-76.416,71.263-75.44,70.537-75c.726-.444,1.359-1.419,1.871-3.176M68.43-80.8l.055-.045h0ZM83.5-158.656c.06-.077.12-.154.171-.23h0c-.051.077-.111.153-.171.23m5.283-9.224c.207,8,6.985,4.735,10.708,6.4-3.873-1.732-11.072,1.9-11.26-6.322.089.089.287.057.552-.079m3.93-3.6-.526-.293.529.294,0,0Zm-1.493-1.651h0c.579-.156.812-.066.9.129-.083-.2-.316-.285-.9-.129m20.737-9.215-2.635-.023ZM84.565-58.387a2.818,2.818,0,0,1-.338-1.315,2.818,2.818,0,0,0,.338,1.315m1.006,5.014v0a2.6,2.6,0,0,1-.644-1.854,2.6,2.6,0,0,0,.644,1.853m2.592-27.261c.143,1.433,1.535,2.407,1.395,3.725.139-1.319-1.251-2.292-1.395-3.725M86.1-121.364c.153-.354.307-.709.458-1.063l0,0c-.154.355-.307.707-.459,1.062m9.719-47.262h0a7.251,7.251,0,0,0-.4.82,7.369,7.369,0,0,1,.4-.82M85.59-57.071a6.083,6.083,0,0,1-.6-.658,6.083,6.083,0,0,0,.6.658m2.615-13.181L85.6-70.274h0a13.063,13.063,0,0,1,.082-1.87,13.063,13.063,0,0,0-.082,1.87l2.608.023c.039.843.08,1.688.12,2.531q-.06-1.265-.122-2.531m22.429-116.016h0q-.34-.342-.68-.686a0,0,0,0,0,0,0c.225.228.452.456.677.683M88.659-168.983c-.069.1-.136.211-.2.317l-.022.015c-.037.062-.072.126-.108.193-.171.319-.194.541-.1.644l-2.611-.009a4.328,4.328,0,0,0,2.822-.828,3.373,3.373,0,0,1,.22-.333m-2.706,6.613a19.016,19.016,0,0,0,.851,3.455,19.016,19.016,0,0,1-.851-3.455,38.256,38.256,0,0,1-.368-5.434q-.657-.664-1.312-1.324.657.661,1.312,1.324a.2.2,0,0,1,.017-.019.2.2,0,0,0-.017.019,38.256,38.256,0,0,0,.368,5.434M65.369-66.691a0,0,0,0,1,0,0h0v0l0,0h0v0l.452.378c-.006-.122,0-.247-.011-.37a5.221,5.221,0,0,0,4.634-1.735,6.335,6.335,0,0,1-4.624,2.105Q64.5-57.746,63.184-49.176c.878-5.71,1.757-11.42,2.185-17.514M83.058-40.963c.057-.052.125-.094.179-.151-.054.057-.122.1-.179.151m.274-.279A3.592,3.592,0,0,0,84-42.392a3.592,3.592,0,0,1-.663,1.15M85.6-52.878a3.616,3.616,0,0,0,1.786,3.172A3.616,3.616,0,0,1,85.6-52.878m6.718-38.349h0a8.446,8.446,0,0,0,.98.048,8.446,8.446,0,0,1-.98-.048m11.736-30.435c0-.214.009-.428.014-.641q-.007.319-.014.643-.155,4.471-.308,8.945.155-4.473.308-8.947m9.286-59.319c-.222.391-.447.633-.672.658.225-.025.449-.268.672-.658a3.108,3.108,0,0,0,1.259-2.847,3.108,3.108,0,0,1-1.259,2.847M79.7-159.073l0,0c-.031.319-.059.637-.086.954l.083-.957" transform="translate(0.057 250.875)"/>
      </g>
      <g id="Group_94" data-name="Group 94" transform="translate(898.575 690.227)">
        <path id="Path_48" data-name="Path 48" class="cls-3" d="M31.67,86.315q.245-1.285.489-2.571c-1.458-2.15-.251-5.886-3.976-6.69l-.25-2.541a3.925,3.925,0,0,1-1.759-.354,1.7,1.7,0,0,1-.808-.909,1.7,1.7,0,0,0,.808.909,3.925,3.925,0,0,0,1.759.354c.055-3.529-2.3-7.464,1.742-10.318-.233-3.7-.276-7.424-.727-11.1C26.422,32.5,24.167,11.866,21.1-8.648,18.208-28.033,14.426-47.286,11.034-66.6a2.21,2.21,0,0,0-.251-1.228C9.3-76.72,8.4-85.727,5.592-94.363a36.618,36.618,0,0,0-.408-3.892,213.56,213.56,0,0,1-4.6-32.168c-.419-7.526-1.43-15.811-9.522-19.96-13.45-6.9-27.566-10.826-42.86-8.356-3.964.641-5.519,3.3-6.151,7.2-1.644,10.149.647,19.957,2.663,29.655,2.861,13.751,6.991,27.232,10.092,40.94,2.763,12.213,4.864,24.575,7.258,36.871-.821,3.18.823,6.046,1.4,8.982,2.421,12.3,3.3,24.883,6.857,36.963l.425,2.76h0c-.19.61-.62,1.255-.533,1.823q4.212,28.163,8.517,56.313c.518-2.184,1.375-4.343,1.988-6.513-.613,2.17-1.47,4.329-1.988,6.513q.143.636.29,1.275a15.407,15.407,0,0,0,1.019,1.84,15.42,15.42,0,0,1-1.02-1.84c2.054,18.972,3.918,37.97,6.294,56.9.613,4.895-1.117,10.07,1.663,14.7l-.319.495.277.476s.123-.268.185-.4c-.062.136-.185.405-.185.4q.222,4.471.442,8.945c.749,11.106,1.316,22.231,2.289,33.318,1.561,17.838,3.811,35.624,4.989,53.484,1.2,18.247,3.563,36.327,6.313,54.365,1.176,7.722,3.176,15.321,4.95,22.943.2.845,1.381,1.46,2.107,2.181.314-.638.962-1.313.894-1.906-.888-7.572,4.445-14.21,3.235-21.808-.245-1.651-1.167-3.557.445-4.735.459-.333,2.15,1.022,3.275,1.6q-.079-1.033-.159-2.067c-1.083-.751-.775-1.769-.533-2.774.208-3.935-2.1-7.694-.808-11.7-1.515-.627-.891-1.757-.657-2.8-.92-.775-.6-1.706-.33-2.631-.518-4.721,2.586-3.432,5.121-3.089q-.076-1.977-.154-3.955c-2.62-.637-5.342-1.128-3.261-4.949,2.525-4.636.734-10.647,4.659-14.862l.948-4.633c.328-8.85-2.919-17.929,1.7-26.5q-.1-1.191-.207-2.38c-1.751,1.19-3.237.788-4.536-.751l2.256-3.708c1.074-1.8,2.532-.24,3.79-.433-1.564-7.746.148-15.614.159-23.331.008-6.1,2.418-12.723,2.176-19.347.875-1.11.556-2.332.331-3.546.407-.694.715-1.386-.069-2.042,0,0,.126-.637.126-.637l-.274-.592.239-.583s-.237-.583-.237-.584c.589-8.427,1.786-16.836.563-25.313-1.133-7.845,3.317-14.7,4.064-22.214q-.934-1.97-1.868-3.938a9.525,9.525,0,0,1,2.834-5.47,6.907,6.907,0,0,1-.048-1.071c-1.655-.911-1.415-1.845-.034-2.791m-43.016,62.751a6.513,6.513,0,0,0-.129,1.128,6.513,6.513,0,0,1,.129-1.128m31.937-6.838c.029-.314.057-.627.085-.943,0,0,0,0,0,0-.031.313-.059.627-.088.94M13.4,28.235a11.172,11.172,0,0,1-1.546,2.05,11.172,11.172,0,0,0,1.546-2.05M8.6,94.3a4.5,4.5,0,0,0-1.031.549A4.5,4.5,0,0,1,8.6,94.3m1.216-.264a6.476,6.476,0,0,1,2.244.264l0,0,0,0a6.472,6.472,0,0,0-2.244-.264m2.279.294a4.358,4.358,0,0,0,1.265-2.771A4.358,4.358,0,0,1,12.1,94.328m1.276-4.585c-.02-.412-.046-.826-.057-1.242.011.416.037.831.057,1.242s.035.817.025,1.218c.011-.4,0-.808-.025-1.218m-.062-1.866a7.7,7.7,0,0,1,.117-1.244,7.7,7.7,0,0,0-.117,1.244M9.2,123.129a5.127,5.127,0,0,1-1.458.176,5.127,5.127,0,0,0,1.458-.176m2.76-1.136a3.754,3.754,0,0,1,.723-2.266,3.741,3.741,0,0,0-.721,2.264,13.392,13.392,0,0,1-2.688,1.122,13.424,13.424,0,0,0,2.686-1.12M14.13,27.135a8.461,8.461,0,0,1,.692-.877,8.461,8.461,0,0,0-.692.877m3.226-7.959-.012-.011c-.148.012-.3.026-.436.046.14-.02.288-.034.436-.046q0-1.292,0-2.583,0,1.292,0,2.583l.012.011m1.395-4.594-.029.563q0,1.288.008,2.571,0-1.283-.008-2.569s.029-.564.029-.564m.277-2.756c.194-.908.1-1.723-1.661-1.991-.317-.422-.635-.842-.951-1.262q.474.631.951,1.261c1.76.27,1.856,1.085,1.661,1.993M16.522,6.914a4.2,4.2,0,0,0-.179.667,4.2,4.2,0,0,1,.179-.667c.418-1.225,1.193-2.464-.279-3.63a2.466,2.466,0,0,0-.751.5,2.21,2.21,0,0,0-.436.618,2.21,2.21,0,0,1,.436-.618,2.466,2.466,0,0,1,.751-.5c.162-.623.4-1.242.527-1.866-.129.624-.365,1.244-.526,1.866,1.472,1.165.7,2.4.277,3.63m-1.831-.826h0c.008-.148.018-.294.034-.438-.015.143-.026.29-.034.438m.06-.609c.011-.085.02-.171.037-.253-.017.083-.026.168-.037.253m.082-.439c.018-.072.032-.146.054-.216-.022.069-.035.143-.054.216m.109-.361c.028-.079.054-.159.088-.233-.034.074-.06.154-.088.233M10.749,31.042l.02-.017c.039-.015.072-.043.111-.062-.039.018-.072.046-.111.062l-.02.017c0,1.859,0,3.716,0,5.575,0-1.859,0-3.716,0-5.575L4.168,28.4l6.581,2.645m4.232,158.573h0c.17-.259.339-.519.507-.778l-.506.778M1.241,112.856c-.789.832-1.458,2.068-2.387,2.526h0c.931-.459,1.6-1.694,2.389-2.526m-3.816,42.308c.6,1.6-1.165,3.5-1.359,5.2v0c.2-1.7,1.964-3.6,1.359-5.2M-10.7,108.889c.325-.18.652-.359.979-.539v0c-.328.177-.653.358-.979.536M21.26,24.276l-.885.94c.294-.314.589-.627.885-.942,0-.268.014-.536.039-.8-.025.268-.039.536-.039.806m-40.2-21.932h0c.014-.023.032-.045.048-.068-.015.023-.034.045-.048.068m3.608,70.7a12.667,12.667,0,0,0-.761-1.534,12.667,12.667,0,0,1,.761,1.534M-29.631-35.49c-.148-.12-.293-.242-.441-.364l-.253.139.253-.139c.148.122.293.244.441.364m-.948-.086c.072.06.145.142.217.211C-30.434-35.434-30.507-35.516-30.579-35.576Zm12.026,87.469a13.589,13.589,0,0,1-.219,2.187,13.589,13.589,0,0,0,.219-2.187m1.911,18.715c-.129-.2-.26-.4-.395-.593.134.2.265.395.395.593m28.816,175.38c-.227,1.171-.857,2.745-1.666,3.164.809-.419,1.44-1.994,1.665-3.164a21.667,21.667,0,0,0,3.875-11.881,21.678,21.678,0,0,1-3.873,11.881m7.834-50.218a1.473,1.473,0,0,0,.037-1.176c.459.265,1.342.624,1.307.781-.157.721-.737.775-1.344.395M27.722,90.325l0,0c.305,1.1,0,2.329.165,3.457-.163-1.127.139-2.36-.166-3.455" transform="translate(58.515 159.481)"/>
      </g>
      <g id="Group_95" data-name="Group 95" transform="translate(1139.326 16.27)">
        <path id="Path_49" data-name="Path 49" class="cls-3" d="M.579,2.508C.032,4.388,2.626,5.751,2.863,5.116c1.051-2.8,2.087-5.35,4.355-7.509.485-.462-3.366.35-3.2-2.241C1.72-3.665.271-1.8-1.07.178.659.124,1.1.719.579,2.508" transform="translate(1.07 4.634)"/>
      </g>
      <g id="Group_96" data-name="Group 96" transform="translate(980.785 1065.876)">
        <path id="Path_50" data-name="Path 50" class="cls-3" d="M0,0C.316.157.633.316.948.475c0,0-.032-.082-.032-.082L0,0"/>
      </g>
      <g id="Group_97" data-name="Group 97" transform="translate(0.001 609.295)">
        <path id="Path_51" data-name="Path 51" class="cls-3" d="M.111,102.806c.351.731.98.885,1.375.223,2.467-4.137,8.156-4.129,10.576-8.293L13.2,93.7a4.38,4.38,0,0,0,3.556-1.2c2.526-.136,3.918-2.087,5.635-3.519a3.675,3.675,0,0,1,.094-1.224v0a3.663,3.663,0,0,0-.094,1.222c4.917,2.854,4.917,2.854,5.547-1.957a1.019,1.019,0,0,0-.456-.479.973.973,0,0,1,.456.479q1.228.414,2.452.829c5.854.25,11.49-.156,15.6-5.165.467-.442.934-.883,1.4-1.327,3.123-1.016,6.45-1.709,8.034-5.134,8.128-4.072,12.843-14.5,24.062-12.925.613.086,1.552-.838,2.059-1.5,2.594-3.406,6.513-5.123,9.679-7.782,5.081-4.268,11.963-5.3,16.981-9.548,3.369-2.85,6.142-6.091,11.481-4.622,1.939.533,4.795-1.165,5.226-3.862,1.167-7.324,8.2-9.3,12.826-10.454,5.075-1.268,9.545-3.312,14.233-5.22,5.914-2.407,9.261-8.774,15.341-10.465,7.584-2.108,13.379-7.059,19.933-10.81,14.306-9.106,28.446-18.484,42.954-27.257,24.226-14.649,48.687-28.913,73.048-43.338,2.5-1.145,5.351-1.717,6.928-4.332q1.859-.985,3.714-1.971c5.821-4.063,13.19-5.5,18.3-10.773,7.362-2.654,13.624-7.157,19.8-11.8,8.108-2.417,14.232-8.343,21.426-12.382,9.05-5.083,18.593-9.566,26.517-16.528a5.25,5.25,0,0,0,3.887-1.812,67.19,67.19,0,0,0,18.393-10.522l1.031-.675c5.437-2.176,10.977-4.13,16.288-6.578,9.213-4.248,10.682-13.21,3.23-19.429-1.478-1.233-1.583-3.585-3.741-4.078-1.262-.65-2.377-1.745-3.993-1.342-1.621-2.249-4.084-3.095-6.549-3.939-7.142-3.591-14.108-7.623-21.512-10.551-2.828-1.117-6.6-2.942-10.016-.361-15.845,11.972-33.665,20.83-50.15,31.794-8.039,3.3-14.15,9.967-22.423,12.86-12.163,7.275-24.305,14.586-36.505,21.8-2.958,1.749-6.045,3.267-8.494,5.753.162.185.316.376.461.57h0c-.146-.2-.3-.387-.461-.57-6.458,2.566-12.274,6.314-18.117,9.989a16.684,16.684,0,0,1-6.476,2.873q-2.716,1.764-5.434,3.529c-2.857,1.943-5.65,3.993-8.586,5.81C220.278-81.543,199.71-68.983,179.277-56.21c-8.427,5.269-16.779,10.7-24.806,16.557-5.9,4.3-13.006,6.931-17.755,12.806a.682.682,0,0,0-.837.5A322.733,322.733,0,0,0,98.7-1.151c-6.843,5.317-15.574,8.122-20.8,15.536a13.364,13.364,0,0,0-5.661,3.471c-3.58,2.532-7.544,4.6-10.086,8.386l-3.022,2.252C41.043,40.963,24.518,55.3,8.32,70.309c2.491-1.472,5.387.028,7.15-.993,7.006-4.052,4.208,1.739,4.647,4.314-4.48,2.053-5.9,7.672-10.787,9.252-.136-.165-.244-.405-.419-.475a.676.676,0,0,0-.536.17C4.285,86.019,4.534,88.761,9.7,90.692q-1.093.941-2.189,1.879c-5.248.969-5.311,6.176-7.7,9.475-.086.119.177.507.3.76M131.938,12.913h0a3.335,3.335,0,0,0-.424-2.551,3.335,3.335,0,0,1,.424,2.551m-1.879-4.641c.173.253.353.5.538.749-.183-.248-.365-.5-.538-.749M140.33-9.076c.362.157.814.519,1.057.412-.244.108-.7-.256-1.057-.41v0m.811,24.661h0l.006.006ZM155.286-.968h0q-.236.543-.469,1.083.234-.543.467-1.083M174.2-36.561c.066.974.45,2.189,1.214,2.335-.764-.146-1.148-1.361-1.216-2.333a3.037,3.037,0,0,1,.714-2.575,3.035,3.035,0,0,0-.712,2.574m18.3,27.28a5.611,5.611,0,0,1-.579.188,5.611,5.611,0,0,0,.579-.188M240.55-54.988a2.389,2.389,0,0,1-.7-.151,2.389,2.389,0,0,0,.7.151m-1.714-1.358a2.167,2.167,0,0,0,.422.8,2.167,2.167,0,0,1-.422-.8,4.052,4.052,0,0,1-.129-.563,4.052,4.052,0,0,0,.129.563m-.194-.573c-2.467.171-3.952.817-4.8,1.774.849-.959,2.333-1.6,4.8-1.774m-5.815,5.456c-.012-.314-.008-.62.009-.917-.017.3-.022.6-.009.917m10.056-3.389a3.227,3.227,0,0,0-.766-.116,3.227,3.227,0,0,1,.766.116M216.724-25.544c.156-.111.307-.231.461-.345-.154.114-.305.234-.461.345m134.214-97.593c.174.113.305.23.458.345-2.372.485-4.651,1-3.121,5.172-2.07-5.644,2.831-4.594,2.663-5.518-1.077-.008-2.017.011-2.85.057-.1-2.315-2.458-4.49-.439-7.087-2.094,2.694.524,4.932,3.289,7.029m-6.8,18.771q-.007-1.97-.015-3.938l.031-.032-.031.032q.007,1.967.015,3.938a2.9,2.9,0,0,0-1.831.678,2.645,2.645,0,0,0-.516.64,2.645,2.645,0,0,1,.516-.64,2.9,2.9,0,0,1,1.831-.678m-7.732-23.077a5.942,5.942,0,0,1,.5-1.036,5.889,5.889,0,0,0-.5,1.036m-.271,1.537a3.891,3.891,0,0,1,.137-1.127,3.891,3.891,0,0,0-.137,1.127m.5,1.752a4.049,4.049,0,0,1-.5-1.726,4.049,4.049,0,0,0,.5,1.726m-1.883,6.146-2.461.479-1.325,1.3,1.325-1.305-.034-.032h0s.034.032.034.032l2.461-.478m18.624-8.785-.049.049.049-.049m-7.151,3.905c-2.839.489-3.318,1.819-1.765,5.077-1.811-3.8-.871-4.98,1.765-5.077m-34.429,12.4c.029-.322.057-.643.085-.965a.005.005,0,0,0,0,0c-.029.321-.057.641-.086.962m5,12.9.459.162Zm-5.481,13.7a1.457,1.457,0,0,0-.227-.108,1.457,1.457,0,0,1,.227.108m1.857,1.651a1.386,1.386,0,0,0,.288.1c.092-.43.179-.86.262-1.292q-.007-1.893-.014-3.788.007,1.893.014,3.79-.125.645-.26,1.29a1.343,1.343,0,0,1-.29-.1m8.568-2.321a8.281,8.281,0,0,1-4.816,2.081,5.431,5.431,0,0,1-2.1-.395,5.431,5.431,0,0,0,2.1.395,8.291,8.291,0,0,0,4.816-2.081,9.706,9.706,0,0,0,2.52-2.862,9.706,9.706,0,0,1-2.52,2.862m2.666-5.251h0a38.122,38.122,0,0,0,3.961,1.48,38.122,38.122,0,0,1-3.961-1.48m4.428,1.544a3.86,3.86,0,0,0,.9-.026,3.86,3.86,0,0,1-.9.026m3.876-3.392a6,6,0,0,0-.707,1.154,6,6,0,0,1,.707-1.154c1.669-2.19,4.58-3.788,3.58-7.255q1.954-.095,3.9-.2a2.941,2.941,0,0,0,.279-.395,2.941,2.941,0,0,1-.279.395l-3.9.2c1,3.465-1.913,5.061-3.582,7.251m8.734-10.621c-.06.166-.113.336-.163.507.051-.171.1-.342.163-.507m-.475,1.58c-.071.231-.149.455-.239.67.089-.216.168-.439.239-.67m39.5-22.137a4.132,4.132,0,0,0,.689,0,4.132,4.132,0,0,1-.689,0m-1.477-8.172a8.693,8.693,0,0,0-3.133,2.882c.054.032.1.072.148.106,1.093,2.179-2.2,4.793.311,6.559-2.563-1.8.939-4.5-.459-6.666a.259.259,0,0,1-.031-.026,8.833,8.833,0,0,1,3.164-2.856m-19.026-1.043-.015.014Zm-3.252.86h0c-.06.074-.143.145-.213.217.069-.072.153-.143.213-.217m-38.7-.7a8.76,8.76,0,0,1-1.774,1.119,8.76,8.76,0,0,0,1.774-1.119M222.882-75.379h0a3.934,3.934,0,0,0-2.717,1.409,3.934,3.934,0,0,1,2.717-1.409m-3.28,2.739a5.867,5.867,0,0,0-.108.661,5.867,5.867,0,0,1,.108-.661m-15.929,9.776a8.431,8.431,0,0,0,2.332-.506,8.431,8.431,0,0,1-2.332.506M168.755-39.876a4.541,4.541,0,0,0,.717-.239,4.541,4.541,0,0,1-.717.239,1.692,1.692,0,0,1-1.552-.273,1.7,1.7,0,0,0,1.552.273m-2.555-2.54-.068-.066.068.066M21.859,80.432a5.716,5.716,0,0,0-.436,4.947,5.716,5.716,0,0,1,.436-4.947M61.523,41.621c-.354-.156-.711-.31-1.065-.464-.076.177-.2.375-.294.558.094-.183.219-.381.294-.558l1.067.464ZM54.029,66.672c1.04.28,2.881-.092,3.321.808-.441-.9-2.281-.526-3.321-.806Zm-9.482,9.939a6.026,6.026,0,0,0-.26-.677,6.026,6.026,0,0,1,.26.677m-13.7,9.645a3.114,3.114,0,0,1,2.309-1v0a3.107,3.107,0,0,0-2.309,1M75.2,52.53l.06-.077s-.06.079-.06.077m7.97-19.82q.666-.479,1.335-.956Q83.839,32.23,83.172,32.71Zm10.522,6.615.066-.068-.066.068m-14.6-20.771a4.171,4.171,0,0,0-1.3-1.831v0a4.174,4.174,0,0,1,1.3,1.833m-4.2-.245q-.462.035-.928.068l-.051,7.754q.025-3.877.051-7.755l.928-.066M54.134,40.544l2.632-1.236c-.128-.29-.314-.7-.467-1.043.153.342.339.754.467,1.043h0l-2.632,1.236A13.767,13.767,0,0,0,52,46.2a13.767,13.767,0,0,1,2.133-5.656M51.8,47.4c-.123.8-.236,1.606-.367,2.407.131-.8.244-1.606.367-2.407M21.19,62.918c1.856-4.043,6.413-4.34,8.783-6.384,2.284-.341,3.252.644,2.745,1.678-1.943,3.962-5.587,5.706-9.682,6.8-2.3.612-2.306-1.091-1.846-2.091" transform="translate(0.205 189.951)"/>
      </g>
      <g id="Group_98" data-name="Group 98" transform="translate(477.859 1161.74)">
        <path id="Path_52" data-name="Path 52" class="cls-3" d="M0,.128c-.012.131.166.281.26.422C.382.43.587.319.6.188S.433-.094.336-.237C.216-.117.013,0,0,.128" transform="translate(0 0.237)"/>
      </g>
    </g>
  </g>
</svg>
