<svg xmlns="http://www.w3.org/2000/svg" xmlns:xlink="http://www.w3.org/1999/xlink" viewBox="3154 20471 91.139 60.293">
  <defs>
    <style>
      .cls-1 {
        clip-path: url(#clip-path);
      }
    </style>
    <clipPath id="clip-path">
      <path id="Path_33" data-name="Path 33" d="M0-10H91.139V-70.293H0Z" transform="translate(0 70.293)"/>
    </clipPath>
  </defs>
  <g id="Group_50" data-name="Group 50" transform="translate(3154 20471)">
    <g id="Group_49" data-name="Group 49" class="cls-1" transform="translate(0 0)">
      <g id="Group_48" data-name="Group 48" transform="translate(0 0)">
        <path id="Path_32" data-name="Path 32" d="M-15.117-.779c-1.1.317-2.168.632-3.243.94-2.7.775-5.427,1.468-8.084,2.364a11.13,11.13,0,0,0-2.437,1.7c-.749.522-1.5,1.048-2.278,1.517-3,1.8-6.119,3.4-8.983,5.385-6.627,4.583-13.151,9.316-19.67,14.051a16.454,16.454,0,0,0-3.773,4.375c-1.516,2.244-3.99,3.866-6.11,5.69-6.9,5.941-13.909,11.767-20.7,17.831-1.828,1.632-3.373,2.333-5.594,1.165-2.478-1.3-5.01-2.507-7.467-3.847a4.592,4.592,0,0,1-2.478-4.318q-.008-11.163-.072-22.324c-.008-1.263-.116-2.529-.226-3.789-.235-2.686,1.371-4.151,3.874-3.148a97.2,97.2,0,0,1,8.826,4.264c1.617.846,2.1,2.172,1.744,4.105-.5,2.72-.546,5.522-.8,8.411,2.193.4,3.283-1.037,4.5-1.935,4.8-3.539,9.411-7.335,14.286-10.765,11.485-8.082,23.1-16,35.93-21.9A44.9,44.9,0,0,1-21.686-5.441c3.692-.216,5.055.564,6.569,4.663" transform="translate(106.257 5.474)"/>
      </g>
    </g>
  </g>
</svg>
