<svg xmlns="http://www.w3.org/2000/svg" viewBox="4443.079 8907.235 236.857 291.937">
  <g id="Group_185" data-name="Group 185" transform="translate(4443.094 8907.243)">
    <path id="Path_85" data-name="Path 85" d="M270.455,258.3a33.107,33.107,0,0,1-32.785-28.747l-14.464-3.435a51.32,51.32,0,0,1-7.835,4.1,53.019,53.019,0,0,1-21.214,4.339,54.007,54.007,0,0,1-26.457-6.931l5.3-9.462a42.9,42.9,0,0,0,21.154,5.484,41.576,41.576,0,0,0,16.935-3.5l.06-.06a39.874,39.874,0,0,0,7.895-4.4l1.989-1.386,27.12,6.509V225.1a22.238,22.238,0,1,0,36.763-16.875l-.121-.121-51.227-46.225,7.292-8.076,51.166,46.164A33.238,33.238,0,0,1,270.455,258.3Z" transform="translate(-66.639 -61.113)"/>
    <path id="Path_86" data-name="Path 86" d="M222.74,120.7l-1.748.9-5.906,6.328h0l-.783-.723-.723-.663-.422-.844a43.028,43.028,0,0,0-27.18-21.817,42.525,42.525,0,0,0-11.149-1.446,47.179,47.179,0,0,0-8.5.844l-6.388,1.266-.121-6.509a21.066,21.066,0,0,0-2.29-9.221A21.49,21.49,0,0,0,145,78.034a20.9,20.9,0,0,0-11.21-.542l8.437,16.573.241.542.241.422h0l7.473,14.826-3.254,2.772a43.8,43.8,0,0,0-9.884,11.993l-.542,1.145-.06.06a34.341,34.341,0,0,0-2.833,6.87l-10.366-3.134a3.84,3.84,0,0,0,.121-.422,49.541,49.541,0,0,1,2.893-7.172h0l.6-1.205a53.832,53.832,0,0,1,9.884-13.379l-2.411-4.761-1.507-3.013-3.5-6.87L118.9,72.248l4.821-2.471A32.345,32.345,0,0,1,167.234,84a34.36,34.36,0,0,1,2.833,7.895c1.627-.121,3.194-.241,4.761-.241a53.5,53.5,0,0,1,10.366.964c1.205.241,2.411.542,3.616.844a54.787,54.787,0,0,1,7.473,2.591,52.768,52.768,0,0,1,11.873,7.051c.723.542,1.386,1.145,2.109,1.748a60.588,60.588,0,0,1,6.69,6.931,50.768,50.768,0,0,1,5.364,8.076v.06l.181.181-.06.06A2.443,2.443,0,0,0,222.74,120.7Z" transform="translate(-47.249 -26.328)"/>
    <rect id="Rectangle_40" data-name="Rectangle 40" width="123.245" height="10.848" transform="translate(32.287 208.738) rotate(-67.548)"/>
    <path id="Path_87" data-name="Path 87" d="M5.418,373.75a5.424,5.424,0,0,1-4.339-8.678A74.327,74.327,0,0,1,60.863,335.3c.723,0,1.567,0,2.471.06a5.413,5.413,0,0,1-.9,10.788,13.633,13.633,0,0,0-1.627-.06A63.622,63.622,0,0,0,9.7,371.52,5.106,5.106,0,0,1,5.418,373.75Z" transform="translate(0 -133.229)"/>
    <path id="Path_88" data-name="Path 88" d="M176.38,425.2a10.091,10.091,0,0,1-5.062-1.326,10.289,10.289,0,0,1-5.3-9.582c.06-1.386.121-2.772.121-4.1A64.026,64.026,0,0,0,104,346.248l.3-10.848a74.832,74.832,0,0,1,72.682,74.791c0,1.205-.06,2.471-.06,3.616a49.308,49.308,0,0,0,8.859-71.356l8.317-6.931a60.212,60.212,0,0,1-11.812,87.869A11.128,11.128,0,0,1,176.38,425.2Z" transform="translate(-41.329 -133.268)"/>
    <path id="Path_89" data-name="Path 89" d="M240.186,319.672a7.684,7.684,0,0,1-3.676-4.7l-.121-.542L234.4,272.242l10.848-.542,1.989,41.584-3.616.181Zm5.183-9.522-1.567,2.893L247,312.2A3.1,3.1,0,0,0,245.369,310.15Z" transform="translate(-93.141 -107.958)"/>
    <path id="Path_90" data-name="Path 90" d="M5.431,283.485a5,5,0,0,1-2.049-.422,5.388,5.388,0,0,1-2.953-7.051L54.006,144.63a100.575,100.575,0,0,1,8.919-18.2c10.426-16.332,20.973-18.924,27.964-18.2A5.451,5.451,0,1,1,89.8,119.077c-12.234-1.205-22.841,21.274-25.613,29.29l-.121.3L10.433,280.17A5.437,5.437,0,0,1,5.431,283.485Z" transform="translate(-0.013 -42.963)"/>
    <path id="Path_91" data-name="Path 91" d="M285.39,7.169l-15.308,45.08-9.522,33.207a52.086,52.086,0,0,0-6.69-6.931c-.663-.6-1.386-1.145-2.109-1.748a52.768,52.768,0,0,0-11.873-7.051,52.1,52.1,0,0,0-7.473-2.591c-1.205-.3-2.411-.6-3.616-.844l19.647-25.131L275.868,2.287a5.405,5.405,0,0,1,9.522,4.882Z" transform="translate(-90.916)"/>
    <path id="Path_92" data-name="Path 92" d="M231.439,110.844a54.787,54.787,0,0,1,7.473,2.591l-2.893,3.676a5.387,5.387,0,0,1-7.594.9,5.451,5.451,0,0,1-.964-7.594l.362-.422C229.028,110.241,230.234,110.542,231.439,110.844Z" transform="translate(-89.939 -43.71)"/>
    <path id="Path_93" data-name="Path 93" d="M274.3,136.078l-.3,1.085a5.335,5.335,0,0,1-5.183,3.917,4.38,4.38,0,0,1-1.507-.241,5.466,5.466,0,0,1-3.737-6.69l1.929-6.75c.723.542,1.386,1.145,2.109,1.748A56.016,56.016,0,0,1,274.3,136.078Z" transform="translate(-104.653 -50.623)"/>
    <path id="Path_94" data-name="Path 94" d="M341.7,297.184a20.072,20.072,0,0,1-12.234-4.1,20.317,20.317,0,0,1-3.8-28.386l8.618,6.569a9.414,9.414,0,1,0,14.946,11.451l8.618,6.629A20.546,20.546,0,0,1,341.7,297.184Z" transform="translate(-127.764 -105.177)"/>
    <circle id="Ellipse_21" data-name="Ellipse 21" cx="7.172" cy="7.172" r="7.172" transform="translate(134.087 103.595)"/>
  </g>
</svg>
