<svg id="Layer_1" data-name="Layer 1" xmlns="http://www.w3.org/2000/svg" xmlns:xlink="http://www.w3.org/1999/xlink" viewBox="0 0 842.28 276.21"><defs><style>.cls-1{fill:none;}.cls-2{clip-path:url(#clip-path);}.cls-3{fill:#80ff73;}</style><clipPath id="clip-path"><rect class="cls-1" width="930.28" height="276.21"/></clipPath></defs><title>Website_Logo</title><g class="cls-2"><path class="cls-3" d="M739.46,114.56c-14-5.09-27.4-9.42-40.38-14.86-20.46-8.58-40.85-17.42-60.84-27C608.59,58.44,580.51,41.41,553.31,23,542.43,15.62,532,7.61,521.38-.15c-6-4.38-8.93-10.14-7.74-17.69,2.1-13.31,3.38-26.82,6.64-39.84,1.48-5.91,6.46-11.19,10.63-16.09,2.65-3.1,15.63-.59,18.47,3,10.1,12.59,22.5,22.22,36.8,29.74,6.43,3.38,12,8.37,18.29,12C620.39-19.81,636.28-10.48,652.61-2c18.1,9.4,36.37,18.59,55.11,26.61,22.36,9.57,45.28,17.86,68,26.6,16.72,6.43,33.59,12.5,50.25,19.1,15.08,6,15.72,8.38,12.06,25-2.08,9.49-2.23,19.41-4.29,28.91-1.64,7.51-3.87,15.28-7.81,21.74-1.9,3.11-8.3,3.6-12.74,5-1.84.59-4.15.06-5.8.91-13.71,7-27.3,14.21-40.95,21.33-20.06,10.46-40.25,20.67-60.16,31.4C695,210.75,684.1,217.73,673,224.2c-21.24,12.34-43.35,23.41-63.57,37.23-23.11,15.79-44.29,34.38-66.86,51-10.8,7.95-17.35,18.8-25,29.14-2.4,3.23-8.17,6.17-11.93,5.68-5.75-.75-10.64-5.17-10-12.23,1.13-13.24,3.59-26.44,3.69-39.67.15-19,14.64-27.63,26.34-37.58,19.84-16.86,40.31-33.2,61.83-47.82,25.72-17.48,52.85-32.87,79.31-49.26,15.8-9.78,31.43-19.84,47.24-29.61,7.48-4.63,15.22-8.84,22.79-13.32.78-.46,1.25-1.45,2.69-3.2"/><path class="cls-3" d="M477.61,128.41c-9.53-3.94-19.11-7.73-28.56-11.84-22.93-10-46.3-19.07-68.55-30.37-25.83-13.11-50.88-27.8-75.84-42.55-15.6-9.22-31.43-18.61-45.12-30.3-6.75-5.77-18.08-8.53-19.57-19-1.31-9.25-3.68-18.67-.65-28.25,2.7-8.56,4.11-17.54,7.08-26,4.3-12.28,18.51-14.32,28.19-6.91,15.33,11.72,30.31,23.93,46,35.15C351-9.92,382.94,9.6,417,25.29c20.4,9.41,41.74,16.77,62.05,26.36C504,63.43,531.21,70.32,554.19,86.39c4.07,2.85,9.25,4.25,13,7.39,2.38,2,4.51,6,4.35,9-.78,13.94-1.93,27.9-3.88,41.73-1,7.11-3.75,14-6.19,20.84-.64,1.8-3.16,4.26-4.7,4.18-15.34-.8-26.56,9.18-39.42,14.67-27.44,11.7-55,23.15-81.93,36-28.5,13.65-56.67,28.13-84.2,43.63-17.56,9.88-34.09,21.75-50.26,33.81-7.27,5.41-13,13.13-18.58,20.44-3.87,5.06-8.46,8.1-14.22,6.38-3.81-1.15-7.66-4.55-9.8-8-1.26-2,1-6.07,1.3-9.25,1.16-13.89,1.64-27.87,3.49-41.67.66-4.85,3.45-10.61,7.17-13.63a521.76,521.76,0,0,1,41.92-31.21c17.33-11.43,35.09-22.35,53.35-32.21,33.46-18.06,67.41-35.2,101.19-52.69,3.51-1.82,7.17-3.34,10.77-5l0-2.41"/><path class="cls-3" d="M184,126.59c-18-6.72-34.58-12.76-51-19.07-23.58-9-47.59-17.19-70.48-27.73C39.41,69.15,17.43,56.09-5,44a6,6,0,0,1-2.86-3.28c-2.4-9.12-6.17-17.89-3.52-27.91C-8.8,3.09-7.6-7-5.81-16.89-4.51-24,3.75-30.26,10.76-28.24c6.15,1.77,12,4.82,17.7,7.86C43-12.58,57.28-4.14,72,3.42c15.7,8.07,31.4,16.35,47.76,22.89,27.69,11.07,56,20.63,83.86,31.2C230.5,67.72,257.22,78.38,284,88.9c5,2,9.81,4.55,14.92,6.21,8.63,2.81,11.25,6.19,9.74,15.43-2.66,16.26-5.14,32.59-8.77,48.65-2.1,9.31-8.14,14.84-18.64,13.34-15.92-2.27-31,3-46.23,6.8C188.24,191,144.39,210.47,101,230.7c-23.65,11-46.36,24.21-68.69,37.74-7,4.22-15.12,8.1-19,17.3-2.88,6.75-11.41,3.59-16.57,2.15-2.84-.8-4.89-7.43-5.67-11.73-.91-5,4.46-10.38-.36-15.57a1.46,1.46,0,0,1,.11-1.42c10.34-11.11,3.38-25.86,8.15-38.08,1-2.56,2.58-5.67,4.79-6.87,12-6.52,24.29-12.5,36.46-18.7,19.59-10,39.06-20.19,58.77-29.9,16.56-8.16,33.32-15.91,50.14-23.52,9.42-4.26,19.14-7.85,28.69-11.83a62.59,62.59,0,0,0,6.27-3.68"/></g><g class="cls-2"><path d="M208,144c-6.43-4.46-16.09-6.47-24.69-7.86l-1.61-.25c-14.2-2.24-21.32-3.35-21.32-12.13,0-7.77,5.72-11.24,18.56-11.24,11,0,18.78,4.41,23.76,13.46l11.89-7.61c-6.26-12-18.21-18.09-35.53-18.09-20.59,0-32.88,9.12-32.88,24.4,0,18.37,14.22,22.24,31.4,25.1s24.76,4.53,24.76,14.1c0,7.86-6.42,11.69-19.62,11.69-15.73,0-21.81-5.95-26-14.9l-13.13,5.88c4.61,13.94,18.22,21.61,38.35,21.61,23.41,0,35.28-8.17,35.28-24.28,0-9.19-2.92-15.51-9.21-19.88"/><path d="M239.61,155.85c0,12.38,4,22,15.47,22,12.26,0,15.81-8.71,15.81-21.09,0-11.8-4.58-21.2-15.47-21.2s-15.81,8.25-15.81,20.28m44.92.8c-.11,20.86-11,32.21-29.22,32.21-17.65,0-29.23-12.73-29.34-31.86-.11-20.29,12.26-32.32,29.34-32.32,17.65,0,29.34,12.26,29.22,32"/><path d="M324,177.05c10.42,0,14.55-7.67,14.55-20.74,0-12.6-4.93-19.59-15.13-19.59-9.16,0-15.93,6.41-15.93,19.47,0,14.9,6.19,20.86,16.51,20.86m-16.39,2.53.23,7.79H294.09V100.5h13.75v34.61c3.78-6,9.05-10.2,19.13-10.2,13.64,0,25.22,10.77,25.22,31.17,0,19.83-8.71,32.78-26.25,32.78-10.08,0-15.58-4.59-18.33-9.28"/><path d="M401.2,149.21c-.69-8.14-4.93-13.07-13.18-13.07-8,0-12.84,4-14.32,13.07Zm-12.26,27.5c8,0,12.49-3.44,14.89-10.54l11.7,4.24c-3,10.31-10.55,18-27,18s-28.76-10.77-28.76-32.09c0-19.25,11.8-31.4,28.3-31.4,16.27,0,27.73,9.86,27.73,34.84h-42.4c.8,11.23,5.16,17,15.59,17"/><path d="M441.19,126.17,441,135c1.3-4.9,4-9.28,11.43-9.7,5.52-.31,15.82,2.32,15.82,18.75l-11.62.21s-.16-9.08-6.3-8.94c-5.17.12-7.62,8.62-8.12,13.18a196.48,196.48,0,0,0-1,24.15c0,1,.18,14.76.06,14.76H427.44v-61.2Z"/></g><polygon points="484.32 100.73 504.94 100.73 504.94 169.49 550.78 169.49 550.78 187.37 484.32 187.37 484.32 100.73"/><path d="M561.12,128.12h20.17v59.25H561.12Zm0-27.27h20.17V120.1H561.12Z"/><g class="cls-2"><path d="M590.92,144.05V128.12H602v-11c0-13,8.33-20.17,23.41-20.17,9.43,0,23.6,2.5,23.6,20.28H631.3s.47-9.7-5.08-9.34c-4.76.32-4,7.07-4,10.4v9.83h13.87v15.93H622.2v43.32H602V144.05Z"/><path d="M684.66,151c-.91-5.62-4.58-8.82-11.69-8.82-6.42,0-10.66,2.06-12.15,8.82Zm-11.57,22.58c6.18,0,10.88-1.38,13.63-7.22l17.08,5.38c-5.5,11.92-16.16,17.65-30.48,17.65-18.57,0-32.09-11.35-32.09-30.94,0-19.94,12.72-32,31.74-32,14.78,0,33.23,8.48,30.94,36.11h-43.2c1.26,7.21,5.84,11,12.38,11"/></g></svg>